{
.appVersion = "1286";
DisplayStrings = (
A
);
copyright = "Copyright (c) 2011, Copyright (c) 2011, TypeTogether (www.type-together.com), with Reserved Font Names \"Abril\" and \"Abril Fatface\"";
customParameters = (
{
name = trademark;
value = "Abril Fatface is a trademark of TypeTogether.";
},
{
name = licenseURL;
value = "http://scripts.sil.org/OFL";
},
{
name = license;
value = "This Font Software is licensed under the SIL Open Font License, Version 1.1. This license is available with a FAQ at: http://scripts.sil.org/OFL";
},
{
name = vendorID;
value = "TT  ";
},
{
name = panose;
value = (
2,
0,
5,
3,
0,
0,
0,
2,
0,
3
);
},
{
name = unicodeRanges;
value = (
0,
1,
2,
5,
7,
29,
31,
32,
33,
35,
36,
38,
45,
60,
62
);
},
{
name = fsType;
value = (
);
},
{
name = glyphOrder;
value = (
.notdef,
.null,
CR,
space,
exclam,
quotedbl,
numbersign,
dollar,
percent,
ampersand,
quotesingle,
parenleft,
parenright,
asterisk,
plus,
comma,
hyphen,
period,
slash,
zero,
one,
two,
three,
four,
five,
six,
seven,
eight,
nine,
colon,
semicolon,
less,
equal,
greater,
question,
at,
A,
B,
C,
D,
E,
F,
G,
H,
I,
J,
K,
L,
M,
N,
O,
P,
Q,
R,
S,
T,
U,
V,
W,
X,
Y,
Z,
bracketleft,
backslash,
bracketright,
asciicircum,
underscore,
grave,
a,
b,
c,
d,
e,
f,
g,
h,
i,
j,
k,
l,
m,
n,
o,
p,
q,
r,
s,
t,
u,
v,
w,
x,
y,
z,
braceleft,
bar,
braceright,
asciitilde,
uni00A0,
exclamdown,
cent,
sterling,
currency,
yen,
brokenbar,
section,
dieresis,
copyright,
ordfeminine,
guillemotleft,
logicalnot,
uni00AD,
registered,
macron,
degree,
plusminus,
twosuperior,
threesuperior,
acute,
mu,
paragraph,
periodcentered,
cedilla,
onesuperior,
ordmasculine,
guillemotright,
onequarter,
onehalf,
threequarters,
questiondown,
Agrave,
Aacute,
Acircumflex,
Atilde,
Adieresis,
Aring,
AE,
Ccedilla,
Egrave,
Eacute,
Ecircumflex,
Edieresis,
Igrave,
Iacute,
Icircumflex,
Idieresis,
Eth,
Ntilde,
Ograve,
Oacute,
Ocircumflex,
Otilde,
Odieresis,
multiply,
Oslash,
Ugrave,
Uacute,
Ucircumflex,
Udieresis,
Yacute,
Thorn,
germandbls,
agrave,

glyphs = (
{
glyphname = exclam;
layers = (
{
layerId = "A70DCACA-0340-40F6-B519-7C37231E9414";
paths = (
{
closed = 1;
nodes = (
"200 178 LINE",
"200 263 LINE SMOOTH",
"200 349 OFFCURVE",
"270 583 OFFCURVE",
"270 630 QCURVE SMOOTH",
"270 711 OFFCURVE",
"194 711 QCURVE SMOOTH",
"160 711 OFFCURVE",
"113 673 OFFCURVE",
"113 587 OFFCURVE",
"178 350 OFFCURVE",
"178 264 QCURVE SMOOTH",
"178 178 LINE",
"178 178 LINE"
);
},
{
closed = 1;
nodes = (
"263 32 OFFCURVE",
"263 104 OFFCURVE",
"221 141 OFFCURVE",
"151 141 OFFCURVE",
"111 98 OFFCURVE",
"111 33 OFFCURVE",
"148 -10 OFFCURVE",
"223 -10 OFFCURVE"
);
}
);
width = 377;
}
);
note = exclam;
unicode = 0021;
},
{
glyphname = quotedbl;
layers = (
{
layerId = "A70DCACA-0340-40F6-B519-7C37231E9414";
paths = (
{
closed = 1;
nodes = (
"248 481 LINE",
"288 664 LINE SMOOTH",
"297 707 OFFCURVE",
"297 730 QCURVE SMOOTH",
"297 767 OFFCURVE",
"263 767 QCURVE SMOOTH",
"238 767 OFFCURVE",
"198 747 QCURVE",
"227 481 LINE",
"227 481 LINE"
);
},
{
closed = 1;
nodes = (
"100 481 LINE",
"140 664 LINE SMOOTH",
"149 707 OFFCURVE",
"149 730 QCURVE SMOOTH",
"149 767 OFFCURVE",
"115 767 QCURVE SMOOTH",
"90 767 OFFCURVE",
"50 747 QCURVE",
"79 481 LINE",
"79 481 LINE"
);
}
);
width = 334;
}
);
leftKerningGroup = quotedbl;
note = quotedbl;
rightKerningGroup = quotedbl;
unicode = 0022;
},
{
glyphname = numbersign;
layers = (
{
layerId = "A70DCACA-0340-40F6-B519-7C37231E9414";
paths = (
{
closed = 1;
nodes = (
"191 169 LINE",
"365 169 LINE",
"337 0 LINE",
"362 0 LINE",
"390 169 LINE",
"514 169 LINE",
"528 261 LINE",
"402 261 LINE",
"426 407 LINE",
"552 407 LINE",
"566 500 LINE",
"438 500 LINE",
"460 640 LINE",
"434 640 LINE",
"413 500 LINE",
"241 500 LINE",
"263 640 LINE",
"237 640 LINE",
"216 500 LINE",
"99 500 LINE",
"84 407 LINE",
"204 407 LINE",
"178 261 LINE",
"61 261 LINE",
"45 169 LINE",
"165 169 LINE",
"138 0 LINE",
"163 0 LINE",
"163 0 LINE"
);
},
{
closed = 1;
nodes = (
"377 261 LINE",
"203 261 LINE",
"229 407 LINE",
"401 407 LINE",
"401 407 LINE"
);
}
);
width = 608;
}
);
note = numbersign;
unicode = 0023;
},
{
glyphname = dollar;
layers = (
{
layerId = "A70DCACA-0340-40F6-B519-7C37231E9414";
paths = (
{
closed = 1;
nodes = (
"258 770 LINE",
"230 770 LINE",
"230 687 LINE",
"152 672 OFFCURVE",
"65 556 OFFCURVE",
"65 387 OFFCURVE",
"150 288 OFFCURVE",
"230 260 QCURVE",
"230 35 LINE",
"140 87 OFFCURVE",
"78 222 QCURVE",
"62 222 LINE",
"71 -10 LINE",
"84 -10 LINE",
"95 19 OFFCURVE",
"111 19 QCURVE",
"230 -4 LINE",
"230 -71 LINE",
"258 -71 LINE",
"258 -7 LINE",
"279 -10 OFFCURVE",
"314 -10 OFFCURVE",
"320 -9 QCURVE",
"320 -71 LINE",
"348 -71 LINE",
"348 -6 LINE",
"430 8 OFFCURVE",
"525 131 OFFCURVE",
"525 317 OFFCURVE",
"430 413 OFFCURVE",
"348 440 QCURVE",
"348 646 LINE",
"408 606 OFFCURVE",
"471 485 QCURVE",
"486 485 LINE",
"479 682 LINE",
"469 682 LINE",
"460 662 OFFCURVE",
"431 662 OFFCURVE",
"367 681 OFFCURVE",
"348 685 QCURVE",
"348 770 LINE",
"320 770 LINE",
"320 689 LINE",
"302 692 OFFCURVE",
"281 692 QCURVE SMOOTH",
"258 691 LINE",
"258 691 LINE"
);
},
{
closed = 1;
nodes = (
"285 11 OFFCURVE",
"258 22 QCURVE",
"258 251 LINE",
"259 251 LINE",
"298 239 OFFCURVE",
"320 230 QCURVE",
"320 11 LINE",
"312 11 LINE",
"312 11 LINE"
);
},
{
closed = 1;
nodes = (
"258 671 LINE",
"261 672 OFFCURVE",
"295 672 OFFCURVE",
"320 661 QCURVE",
"320 449 LINE",
"298 454 OFFCURVE",
"258 467 QCURVE",
"258 467 LINE"
);
},
{
closed = 1;
nodes = (
"430 74 OFFCURVE",
"384 24 OFFCURVE",
"348 15 QCURVE",
"348 219 LINE",
"430 180 OFFCURVE",
"430 113 QCURVE",
"430 113 LINE"
);
},
{
closed = 1;
nodes = (
"155 607 OFFCURVE",
"196 657 OFFCURVE",
"230 667 QCURVE",
"230 478 LINE",
"155 510 OFFCURVE",
"155 573 QCURVE",
"155 573 LINE"
);
}
);
width = 565;
}
);
note = dollar;
unicode = 0024;
},
{
glyphname = percent;
layers = (
{
layerId = "A70DCACA-0340-40F6-B519-7C37231E9414";
paths = (
{
closed = 1;
nodes = (
"743 83 OFFCURVE",
"743 242 OFFCURVE",
"654 328 OFFCURVE",
"495 328 OFFCURVE",
"399 230 OFFCURVE",
"399 83 OFFCURVE",
"488 -10 OFFCURVE",
"645 -10 OFFCURVE"
);
},
{
closed = 1;
nodes = (
"611 24 OFFCURVE",
"590 6 OFFCURVE",
"554 6 OFFCURVE",
"533 23 OFFCURVE",
"524 70 OFFCURVE",
"522 110 OFFCURVE",
"522 204 OFFCURVE",
"524 246 OFFCURVE",
"533 295 OFFCURVE",
"554 312 OFFCURVE",
"590 312 OFFCURVE",
"610 295 OFFCURVE",
"619 249 OFFCURVE",
"621 206 OFFCURVE",
"621 86 OFFCURVE",
"615 49 QCURVE",
"615 49 LINE"
);
},
{
closed = 1;
nodes = (
"195 0 LINE",
"615 700 LINE",
"575 700 LINE",
"154 0 LINE",
"154 0 LINE"
);
},
{
closed = 1;
nodes = (
"374 466 OFFCURVE",
"374 625 OFFCURVE",
"285 711 OFFCURVE",
"126 711 OFFCURVE",
"30 613 OFFCURVE",
"30 466 OFFCURVE",
"119 373 OFFCURVE",
"276 373 OFFCURVE"
);
},
{
closed = 1;
nodes = (
"242 407 OFFCURVE",
"221 389 OFFCURVE",
"185 389 OFFCURVE",
"164 406 OFFCURVE",
"155 453 OFFCURVE",
"153 493 OFFCURVE",
"153 587 OFFCURVE",
"155 629 OFFCURVE",
"164 678 OFFCURVE",
"185 695 OFFCURVE",
"221 695 OFFCURVE",
"241 678 OFFCURVE",
"250 632 OFFCURVE",
"252 589 OFFCURVE",
"252 470 OFFCURVE",
"246 432 QCURVE",
"246 432 LINE"
);
}
);
width = 768;
}
);
note = percent;
unicode = 0025;
},
{
glyphname = ampersand;
layers = (
{
layerId = "A70DCACA-0340-40F6-B519-7C37231E9414";
paths = (
{
closed = 1;
nodes = (
"461 -226 OFFCURVE",
"479 -173 QCURVE",
"514 -173 LINE",
"520 -152 OFFCURVE",
"520 -137 QCURVE SMOOTH",
"520 -65 OFFCURVE",
"440 -65 QCURVE SMOOTH",
"404 -65 OFFCURVE",
"357 -112 OFFCURVE",
"357 -196 OFFCURVE",
"429 -250 OFFCURVE",
"494 -250 QCURVE SMOOTH",
"591 -250 OFFCURVE",
"743 -80 OFFCURVE",
"743 28 QCURVE SMOOTH",
"743 95 OFFCURVE",
"699 183 OFFCURVE",
"656 231 QCURVE",
"673 306 OFFCURVE",
"675 400 QCURVE",
"745 400 LINE",
"745 420 LINE",
"571 420 LINE",
"571 400 LINE",
"650 400 LINE",
"648 325 OFFCURVE",
"633 254 QCURVE",
"587 298 OFFCURVE",
"476 370 QCURVE SMOOTH",
"423 403 OFFCURVE",
"403 416 QCURVE",
"564 472 OFFCURVE",
"564 578 QCURVE SMOOTH",
"564 639 OFFCURVE",
"465 711 OFFCURVE",
"267 711 OFFCURVE",
"134 614 OFFCURVE",
"134 425 OFFCURVE",
"222 345 QCURVE",
"137 326 OFFCURVE",
"65 244 OFFCURVE",
"65 177 QCURVE SMOOTH",
"65 80 OFFCURVE",
"222 -10 OFFCURVE",
"488 -10 OFFCURVE",
"564 77 QCURVE",
"617 6 OFFCURVE",
"617 -132 OFFCURVE",
"564 -226 OFFCURVE",
"515 -226 QCURVE",
"515 -226 LINE"
);
},
{
closed = 1;
nodes = (
"299 16 OFFCURVE",
"221 102 OFFCURVE",
"221 298 OFFCURVE",
"236 330 QCURVE",
"275 296 OFFCURVE",
"418 202 QCURVE SMOOTH",
"501 146 OFFCURVE",
"547 98 QCURVE",
"485 16 OFFCURVE",
"379 16 QCURVE",
"379 16 LINE"
);
},
{
closed = 1;
nodes = (
"448 690 OFFCURVE",
"448 572 QCURVE SMOOTH",
"448 512 OFFCURVE",
"427 450 OFFCURVE",
"385 428 QCURVE",
"317 475 OFFCURVE",
"269 541 OFFCURVE",
"269 643 OFFCURVE",
"323 690 OFFCURVE",
"361 690 QCURVE",
"361 690 LINE"
);
}
);
width = 822;
}
);
note = ampersand;
unicode = 0026;
},
{
glyphname = quotesingle;
layers = (
{
layerId = "A70DCACA-0340-40F6-B519-7C37231E9414";
paths = (
{
closed = 1;
nodes = (
"100 481 LINE",
"140 664 LINE SMOOTH",
"149 707 OFFCURVE",
"149 730 QCURVE SMOOTH",
"149 767 OFFCURVE",
"115 767 QCURVE SMOOTH",
"90 767 OFFCURVE",
"50 747 QCURVE",
"79 481 LINE",
"79 481 LINE"
);
}
);
width = 186;
}
);
leftKerningGroup = quotedbl;
note = quotesingle;
rightKerningGroup = quotedbl;
unicode = 0027;
},
{
glyphname = parenleft;
layers = (
{
layerId = "A70DCACA-0340-40F6-B519-7C37231E9414";
paths = (
{
closed = 1;
nodes = (
"371 -137 LINE",
"311 -135 OFFCURVE",
"282 -84 QCURVE SMOOTH",
"251 -31 OFFCURVE",
"251 159 QCURVE SMOOTH",
"251 446 LINE SMOOTH",
"251 554 OFFCURVE",
"258 625 QCURVE SMOOTH",
"263 677 OFFCURVE",
"290 718 QCURVE SMOOTH",
"314 756 OFFCURVE",
"371 758 QCURVE",
"371 778 LINE",
"270 775 OFFCURVE",
"120 630 OFFCURVE",
"50 422 OFFCURVE",
"50 221 OFFCURVE",
"90 61 OFFCURVE",
"165 -75 OFFCURVE",
"292 -157 OFFCURVE",
"371 -158 QCURVE",
"371 -158 LINE"
);
}
);
width = 351;
}
);
note = parenleft;
rightKerningGroup = parenleft;
unicode = 0028;
},
{
glyphname = parenright;
layers = (
{
layerId = "A70DCACA-0340-40F6-B519-7C37231E9414";
paths = (
{
closed = 1;
nodes = (
"-20 756 LINE",
"40 754 OFFCURVE",
"69 704 QCURVE SMOOTH",
"100 650 OFFCURVE",
"100 460 QCURVE SMOOTH",
"100 173 LINE SMOOTH",
"100 65 OFFCURVE",
"93 -6 QCURVE SMOOTH",
"88 -58 OFFCURVE",
"61 -100 QCURVE SMOOTH",
"37 -137 OFFCURVE",
"-20 -139 QCURVE",
"-20 -159 LINE",
"81 -156 OFFCURVE",
"231 -11 OFFCURVE",
"301 197 OFFCURVE",
"301 398 OFFCURVE",
"261 558 OFFCURVE",
"186 694 OFFCURVE",
"59 776 OFFCURVE",
"-20 777 QCURVE",
"-20 777 LINE"
);
}
);
width = 351;
}
);
leftKerningGroup = parenright;
note = parenright;
unicode = 0029;
},
{
glyphname = asterisk;
layers = (
{
layerId = "A70DCACA-0340-40F6-B519-7C37231E9414";
paths = (
{
closed = 1;
nodes = (
"469 624 OFFCURVE",
"469 673 OFFCURVE",
"444 710 OFFCURVE",
"395 710 OFFCURVE",
"363 678 QCURVE SMOOTH",
"274 589 LINE",
"313 693 LINE SMOOTH",
"326 728 OFFCURVE",
"326 769 OFFCURVE",
"298 791 OFFCURVE",
"244 791 OFFCURVE",
"211 765 QCURVE",
"255 590 LINE",
"164 677 LINE SMOOTH",
"147 693 OFFCURVE",
"125 710 OFFCURVE",
"109 710 QCURVE SMOOTH",
"85 710 OFFCURVE",
"60 669 OFFCURVE",
"60 624 OFFCURVE",
"64 608 QCURVE",
"242 575 LINE",
"123 542 LINE SMOOTH",
"92 534 OFFCURVE",
"61 514 OFFCURVE",
"61 466 OFFCURVE",
"102 428 OFFCURVE",
"129 418 QCURVE",
"253 562 LINE",
"210 436 LINE SMOOTH",
"201 409 OFFCURVE",
"201 369 OFFCURVE",
"229 347 OFFCURVE",
"283 347 OFFCURVE",
"316 373 QCURVE",
"271 561 LINE",
"400 418 LINE",
"468 445 OFFCURVE",
"468 492 QCURVE SMOOTH",
"468 507 OFFCURVE",
"449 528 OFFCURVE",
"430 536 OFFCURVE",
"414 540 QCURVE SMOOTH",
"282 575 LINE",
"465 608 LINE",
"465 608 LINE"
);
}
);
width = 529;
}
);
note = asterisk;
unicode = 002A;
},
{
glyphname = plus;
layers = (
{
layerId = "A70DCACA-0340-40F6-B519-7C37231E9414";
paths = (
{
closed = 1;
nodes = (
"492 334 LINE",
"281 334 LINE",
"281 530 LINE",
"243 530 LINE",
"243 334 LINE",
"38 334 LINE",
"38 301 LINE",
"243 301 LINE",
"243 92 LINE",
"281 92 LINE",
"281 301 LINE",
"492 301 LINE",
"492 301 LINE"
);
}
);
width = 530;
}
);
note = plus;
unicode = 002B;
},
{
glyphname = comma;
layers = (
{
layerId = "A70DCACA-0340-40F6-B519-7C37231E9414";
paths = (
{
closed = 1;
nodes = (
"155 -105 OFFCURVE",
"217 -7 OFFCURVE",
"217 99 OFFCURVE",
"165 163 OFFCURVE",
"82 163 OFFCURVE",
"35 117 OFFCURVE",
"35 52 OFFCURVE",
"72 11 OFFCURVE",
"95 3 QCURVE",
"143 46 LINE",
"174 42 OFFCURVE",
"174 -29 OFFCURVE",
"136 -88 OFFCURVE",
"74 -141 QCURVE",
"86 -156 LINE",
"86 -156 LINE"
);
}
);
width = 262;
}
);
leftKerningGroup = comma;
note = comma;
rightKerningGroup = comma;
unicode = 002C;
},
{
glyphname = hyphen;
layers = (
{
layerId = "A70DCACA-0340-40F6-B519-7C37231E9414";
paths = (
{
closed = 1;
nodes = (
"302 278 LINE",
"302 308 LINE",
"50 308 LINE",
"50 278 LINE",
"50 278 LINE"
);
}
);
width = 352;
}
);
leftKerningGroup = hyphen;
note = hyphen;
rightKerningGroup = hyphen;
unicode = 002D;
},
{
glyphname = period;
layers = (
{
layerId = "A70DCACA-0340-40F6-B519-7C37231E9414";
paths = (
{
closed = 1;
nodes = (
"220 38 OFFCURVE",
"220 122 OFFCURVE",
"172 164 OFFCURVE",
"90 164 OFFCURVE",
"45 114 OFFCURVE",
"45 41 OFFCURVE",
"88 -10 OFFCURVE",
"175 -10 OFFCURVE"
);
}
);
width = 265;
}
);
leftKerningGroup = comma;
note = period;
rightKerningGroup = comma;
unicode = 002E;
},
{
glyphname = slash;
layers = (
{
layerId = "A70DCACA-0340-40F6-B519-7C37231E9414";
paths = (
{
closed = 1;
nodes = (
"49 -97 LINE",
"343 795 LINE",
"303 795 LINE",
"8 -97 LINE",
"8 -97 LINE"
);
}
);
width = 351;
}
);
note = slash;
unicode = 002F;
},
{
glyphname = zero;
layers = (
{
layerId = "A70DCACA-0340-40F6-B519-7C37231E9414";
paths = (
{
closed = 1;
nodes = (
"634 163 OFFCURVE",
"634 539 OFFCURVE",
"473 711 OFFCURVE",
"192 711 OFFCURVE",
"30 538 OFFCURVE",
"30 186 OFFCURVE",
"181 -10 OFFCURVE",
"472 -10 OFFCURVE"
);
},
{
closed = 1;
nodes = (
"235 572 OFFCURVE",
"265 690 OFFCURVE",
"401 690 OFFCURVE",
"430 575 OFFCURVE",
"430 379 QCURVE SMOOTH",
"430 291 LINE SMOOTH",
"430 226 OFFCURVE",
"428 162 QCURVE SMOOTH",
"427 129 OFFCURVE",
"421 95 OFFCURVE",
"412 55 OFFCURVE",
"398 36 OFFCURVE",
"377 17 OFFCURVE",
"350 11 OFFCURVE",
"296 11 OFFCURVE",
"256 36 OFFCURVE",
"238 122 OFFCURVE",
"235 202 OFFCURVE",
"235 299 QCURVE SMOOTH",
"235 388 LINE",
"235 388 LINE"
);
}
);
width = 664;
}
);
note = zero;
unicode = 0030;
},
{
glyphname = one;
layers = (
{
layerId = "A70DCACA-0340-40F6-B519-7C37231E9414";
paths = (
{
closed = 1;
nodes = (
"127 19 LINE",
"22 19 LINE",
"22 0 LINE",
"400 0 LINE",
"400 19 LINE",
"322 19 LINE",
"322 711 LINE",
"241 711 LINE",
"15 680 LINE",
"17 660 LINE",
"127 674 LINE",
"127 674 LINE"
);
}
);
width = 425;
}
);
note = one;
unicode = 0031;
},
{
glyphname = two;
layers = (
{
layerId = "A70DCACA-0340-40F6-B519-7C37231E9414";
paths = (
{
closed = 1;
nodes = (
"35 518 OFFCURVE",
"80 465 OFFCURVE",
"162 465 OFFCURVE",
"212 508 OFFCURVE",
"212 567 OFFCURVE",
"204 588 QCURVE",
"174 588 LINE",
"168 604 OFFCURVE",
"168 646 OFFCURVE",
"204 692 OFFCURVE",
"294 692 OFFCURVE",
"332 627 OFFCURVE",
"332 450 OFFCURVE",
"246 303 OFFCURVE",
"143 209 QCURVE SMOOTH",
"42 116 LINE",
"42 0 LINE",
"512 0 LINE",
"522 277 LINE",
"505 277 LINE",
"493 213 OFFCURVE",
"435 153 OFFCURVE",
"366 153 QCURVE SMOOTH",
"126 153 LINE",
"187 197 LINE SMOOTH",
"198 205 OFFCURVE",
"330 300 OFFCURVE",
"390 348 QCURVE SMOOTH",
"430 379 OFFCURVE",
"463 417 OFFCURVE",
"498 466 OFFCURVE",
"508 511 OFFCURVE",
"508 539 QCURVE SMOOTH",
"508 625 OFFCURVE",
"383 711 OFFCURVE",
"151 711 OFFCURVE",
"35 625 OFFCURVE",
"35 558 QCURVE",
"35 558 LINE"
);
}
);
width = 552;
}
);
note = two;
unicode = 0032;
},
{
glyphname = three;
layers = (
{
layerId = "A70DCACA-0340-40F6-B519-7C37231E9414";
paths = (
{
closed = 1;
nodes = (
"42 518 OFFCURVE",
"87 465 OFFCURVE",
"169 465 OFFCURVE",
"219 508 OFFCURVE",
"219 567 OFFCURVE",
"211 588 QCURVE",
"182 588 LINE",
"176 604 OFFCURVE",
"176 646 OFFCURVE",
"209 693 OFFCURVE",
"287 693 OFFCURVE",
"320 620 OFFCURVE",
"320 451 OFFCURVE",
"265 385 OFFCURVE",
"177 376 QCURVE",
"180 354 LINE",
"231 359 OFFCURVE",
"267 367 QCURVE",
"307 347 OFFCURVE",
"348 270 OFFCURVE",
"348 100 OFFCURVE",
"305 10 OFFCURVE",
"246 10 QCURVE SMOOTH",
"162 10 OFFCURVE",
"162 81 QCURVE SMOOTH",
"162 98 OFFCURVE",
"168 114 QCURVE",
"199 114 LINE",
"207 135 OFFCURVE",
"207 194 OFFCURVE",
"159 237 OFFCURVE",
"77 237 OFFCURVE",
"30 183 OFFCURVE",
"30 85 OFFCURVE",
"103 14 OFFCURVE",
"196 -10 OFFCURVE",
"250 -10 QCURVE SMOOTH",
"388 -10 OFFCURVE",
"543 102 OFFCURVE",
"543 198 QCURVE SMOOTH",
"543 276 OFFCURVE",
"425 374 OFFCURVE",
"301 383 QCURVE",
"301 385 LINE",
"401 402 OFFCURVE",
"508 487 OFFCURVE",
"508 552 QCURVE SMOOTH",
"508 711 OFFCURVE",
"280 711 QCURVE SMOOTH",
"162 711 OFFCURVE",
"42 624 OFFCURVE",
"42 558 QCURVE",
"42 558 LINE"
);
}
);
width = 573;
}
);
note = three;
unicode = 0033;
},
{
glyphname = four;
layers = (
{
layerId = "A70DCACA-0340-40F6-B519-7C37231E9414";
paths = (
{
closed = 1;
nodes = (
"529 0 LINE",
"529 19 LINE",
"460 19 LINE",
"460 179 LINE",
"559 179 LINE",
"559 105 LINE",
"578 105 LINE",
"578 290 LINE",
"559 290 LINE",
"559 203 LINE",
"460 203 LINE",
"460 700 LINE",
"287 700 LINE",
"5 198 LINE",
"5 179 LINE",
"276 179 LINE",
"276 19 LINE",
"182 19 LINE",
"182 0 LINE",
"182 0 LINE"
);
},
{
closed = 1;
nodes = (
"276 624 LINE",
"276 203 LINE",
"37 203 LINE",
"37 203 LINE"
);
}
);
width = 603;
}
);
note = four;
unicode = 0034;
},
{
glyphname = five;
layers = (
{
layerId = "A70DCACA-0340-40F6-B519-7C37231E9414";
paths = (
{
closed = 1;
nodes = (
"297 61 OFFCURVE",
"279 31 OFFCURVE",
"245 10 OFFCURVE",
"179 10 OFFCURVE",
"145 49 OFFCURVE",
"145 92 OFFCURVE",
"151 108 QCURVE",
"184 108 LINE",
"193 131 OFFCURVE",
"193 196 OFFCURVE",
"146 237 OFFCURVE",
"63 237 OFFCURVE",
"16 183 OFFCURVE",
"16 100 OFFCURVE",
"57 37 OFFCURVE",
"90 20 QCURVE SMOOTH",
"151 -10 OFFCURVE",
"223 -10 QCURVE SMOOTH",
"357 -10 OFFCURVE",
"510 113 OFFCURVE",
"510 220 QCURVE SMOOTH",
"510 304 OFFCURVE",
"457 363 QCURVE SMOOTH",
"429 394 OFFCURVE",
"325 429 OFFCURVE",
"169 429 OFFCURVE",
"96 390 QCURVE",
"101 584 LINE",
"319 527 LINE SMOOTH",
"383 510 OFFCURVE",
"423 510 OFFCURVE",
"436 525 QCURVE SMOOTH",
"460 554 OFFCURVE",
"475 707 QCURVE",
"460 709 LINE",
"454 686 OFFCURVE",
"437 667 OFFCURVE",
"398 667 OFFCURVE",
"150 692 OFFCURVE",
"89 701 QCURVE",
"73 689 LINE",
"73 370 LINE",
"90 362 LINE",
"159 405 OFFCURVE",
"275 405 OFFCURVE",
"308 329 OFFCURVE",
"308 139 OFFCURVE",
"302 93 QCURVE",
"302 93 LINE"
);
}
);
width = 540;
}
);
note = five;
unicode = 0035;
},
{
glyphname = six;
layers = (
{
layerId = "A70DCACA-0340-40F6-B519-7C37231E9414";
paths = (
{
closed = 1;
nodes = (
"34 -10 OFFCURVE",
"319 -10 QCURVE SMOOTH",
"445 -10 OFFCURVE",
"595 124 OFFCURVE",
"595 338 OFFCURVE",
"481 445 OFFCURVE",
"283 445 OFFCURVE",
"231 364 QCURVE",
"232 544 OFFCURVE",
"298 691 OFFCURVE",
"440 691 OFFCURVE",
"440 628 QCURVE SMOOTH",
"440 608 OFFCURVE",
"434 592 QCURVE",
"402 592 LINE",
"394 570 OFFCURVE",
"394 511 OFFCURVE",
"442 468 OFFCURVE",
"522 468 OFFCURVE",
"571 523 OFFCURVE",
"571 561 QCURVE SMOOTH",
"571 628 OFFCURVE",
"461 711 OFFCURVE",
"358 711 QCURVE SMOOTH",
"207 711 OFFCURVE",
"34 501 OFFCURVE",
"34 308 QCURVE",
"34 308 LINE"
);
},
{
closed = 1;
nodes = (
"385 380 OFFCURVE",
"394 354 OFFCURVE",
"398 303 OFFCURVE",
"399 257 OFFCURVE",
"399 117 OFFCURVE",
"387 70 QCURVE SMOOTH",
"379 38 OFFCURVE",
"344 11 OFFCURVE",
"274 11 OFFCURVE",
"258 37 QCURVE SMOOTH",
"249 52 OFFCURVE",
"239 79 OFFCURVE",
"234 138 OFFCURVE",
"233 181 OFFCURVE",
"233 292 OFFCURVE",
"250 361 OFFCURVE",
"297 412 OFFCURVE",
"365 412 OFFCURVE",
"378 392 QCURVE",
"378 392 LINE"
);
}
);
width = 616;
}
);
note = six;
unicode = 0036;
},
{
glyphname = seven;
layers = (
{
layerId = "A70DCACA-0340-40F6-B519-7C37231E9414";
paths = (
{
closed = 1;
nodes = (
"269 -10 OFFCURVE",
"297 -3 QCURVE",
"304 9 LINE",
"274 52 OFFCURVE",
"274 154 OFFCURVE",
"315 267 OFFCURVE",
"389 398 QCURVE SMOOTH",
"500 592 LINE",
"500 700 LINE",
"52 700 LINE",
"41 446 LINE",
"57 446 LINE",
"70 512 OFFCURVE",
"115 547 OFFCURVE",
"186 547 QCURVE SMOOTH",
"442 547 LINE",
"277 356 LINE SMOOTH",
"178 241 OFFCURVE",
"119 136 OFFCURVE",
"119 49 OFFCURVE",
"181 -10 OFFCURVE",
"235 -10 QCURVE",
"235 -10 LINE"
);
}
);
width = 510;
}
);
note = seven;
unicode = 0037;
},
{
glyphname = eight;
layers = (
{
layerId = "A70DCACA-0340-40F6-B519-7C37231E9414";
paths = (
{
closed = 1;
nodes = (
"249 365 LINE",
"25 350 OFFCURVE",
"25 181 QCURVE SMOOTH",
"25 -10 OFFCURVE",
"308 -10 QCURVE SMOOTH",
"451 -10 OFFCURVE",
"586 86 OFFCURVE",
"586 182 QCURVE SMOOTH",
"586 347 OFFCURVE",
"370 365 QCURVE",
"370 368 LINE",
"466 375 OFFCURVE",
"568 464 OFFCURVE",
"568 619 OFFCURVE",
"436 711 OFFCURVE",
"178 711 OFFCURVE",
"44 613 OFFCURVE",
"44 529 QCURVE SMOOTH",
"44 460 OFFCURVE",
"152 373 OFFCURVE",
"249 368 QCURVE",
"249 368 LINE"
);
},
{
closed = 1;
nodes = (
"361 11 OFFCURVE",
"255 11 OFFCURVE",
"220 89 OFFCURVE",
"220 274 OFFCURVE",
"256 355 OFFCURVE",
"359 355 OFFCURVE",
"395 275 OFFCURVE",
"395 90 OFFCURVE"
);
},
{
closed = 1;
nodes = (
"345 378 OFFCURVE",
"311 378 QCURVE SMOOTH",
"273 378 OFFCURVE",
"256 402 QCURVE SMOOTH",
"248 413 OFFCURVE",
"241 457 OFFCURVE",
"239 498 OFFCURVE",
"239 619 OFFCURVE",
"264 690 OFFCURVE",
"352 690 OFFCURVE",
"377 619 OFFCURVE",
"377 496 OFFCURVE",
"375 421 OFFCURVE",
"362 402 QCURVE",
"362 402 LINE"
);
}
);
width = 611;
}
);
note = eight;
unicode = 0038;
},
{
glyphname = nine;
layers = (
{
layerId = "A70DCACA-0340-40F6-B519-7C37231E9414";
paths = (
{
closed = 1;
nodes = (
"584 711 OFFCURVE",
"306 711 QCURVE SMOOTH",
"182 711 OFFCURVE",
"23 593 OFFCURVE",
"23 473 QCURVE SMOOTH",
"23 372 OFFCURVE",
"139 256 OFFCURVE",
"229 256 QCURVE SMOOTH",
"335 256 OFFCURVE",
"387 337 QCURVE",
"386 156 OFFCURVE",
"325 10 OFFCURVE",
"258 10 QCURVE SMOOTH",
"216 10 OFFCURVE",
"173 47 OFFCURVE",
"173 94 OFFCURVE",
"180 109 QCURVE",
"210 109 LINE",
"218 131 OFFCURVE",
"218 190 OFFCURVE",
"171 233 OFFCURVE",
"90 233 OFFCURVE",
"41 174 OFFCURVE",
"41 134 QCURVE SMOOTH",
"41 70 OFFCURVE",
"160 -10 OFFCURVE",
"265 -10 QCURVE SMOOTH",
"415 -10 OFFCURVE",
"584 199 OFFCURVE",
"584 393 QCURVE",
"584 393 LINE"
);
},
{
closed = 1;
nodes = (
"233 321 OFFCURVE",
"224 347 OFFCURVE",
"220 398 OFFCURVE",
"219 444 OFFCURVE",
"219 529 OFFCURVE",
"220 554 QCURVE SMOOTH",
"223 625 OFFCURVE",
"240 654 QCURVE SMOOTH",
"262 690 OFFCURVE",
"307 690 QCURVE SMOOTH",
"347 690 OFFCURVE",
"362 664 QCURVE SMOOTH",
"370 649 OFFCURVE",
"380 622 OFFCURVE",
"384 563 OFFCURVE",
"385 520 OFFCURVE",
"385 409 OFFCURVE",
"368 340 OFFCURVE",
"321 289 OFFCURVE",
"253 289 OFFCURVE",
"240 309 QCURVE",
"240 309 LINE"
);
}
);
width = 616;
}
);
note = nine;
unicode = 0039;
},
{
glyphname = colon;
layers = (
{
layerId = "A70DCACA-0340-40F6-B519-7C37231E9414";
paths = (
{
closed = 1;
nodes = (
"220 369 OFFCURVE",
"220 453 OFFCURVE",
"172 495 OFFCURVE",
"90 495 OFFCURVE",
"45 445 OFFCURVE",
"45 372 OFFCURVE",
"88 321 OFFCURVE",
"175 321 OFFCURVE"
);
},
{
closed = 1;
nodes = (
"220 38 OFFCURVE",
"220 122 OFFCURVE",
"172 164 OFFCURVE",
"90 164 OFFCURVE",
"45 114 OFFCURVE",
"45 41 OFFCURVE",
"88 -10 OFFCURVE",
"175 -10 OFFCURVE"
);
}
);
width = 265;
}
);
leftKerningGroup = colon;
note = colon;
unicode = 003A;
},
{
glyphname = less;
layers = (
{
layerId = "A70DCACA-0340-40F6-B519-7C37231E9414";
paths = (
{
closed = 1;
nodes = (
"491 123 LINE",
"93 294 LINE",
"491 462 LINE",
"491 497 LINE",
"39 306 LINE",
"39 280 LINE",
"491 86 LINE",
"491 86 LINE"
);
}
);
width = 530;
}
);
note = less;
unicode = 003C;
},
{
glyphname = equal;
layers = (
{
layerId = "A70DCACA-0340-40F6-B519-7C37231E9414";
paths = (
{
closed = 1;
nodes = (
"492 223 LINE",
"38 223 LINE",
"38 190 LINE",
"492 190 LINE",
"492 190 LINE"
);
},
{
closed = 1;
nodes = (
"38 346 LINE",
"492 346 LINE",
"492 379 LINE",
"38 379 LINE",
"38 379 LINE"
);
}
);
width = 530;
}
);
note = equal;
unicode = 003D;
},
{
glyphname = greater;
layers = (
{
layerId = "A70DCACA-0340-40F6-B519-7C37231E9414";
paths = (
{
closed = 1;
nodes = (
"39 460 LINE",
"437 291 LINE",
"39 121 LINE",
"39 86 LINE",
"491 277 LINE",
"491 303 LINE",
"39 497 LINE",
"39 497 LINE"
);
}
);
width = 530;
}
);
note = greater;
unicode = 003E;
},
{
glyphname = question;
layers = (
{
layerId = "A70DCACA-0340-40F6-B519-7C37231E9414";
paths = (
{
closed = 1;
nodes = (
"58 518 OFFCURVE",
"103 465 OFFCURVE",
"185 465 OFFCURVE",
"235 508 OFFCURVE",
"235 567 OFFCURVE",
"227 588 QCURVE",
"195 588 LINE",
"189 604 OFFCURVE",
"189 646 OFFCURVE",
"229 692 OFFCURVE",
"272 692 QCURVE SMOOTH",
"362 692 OFFCURVE",
"362 595 QCURVE SMOOTH",
"362 554 OFFCURVE",
"340 503 OFFCURVE",
"311 474 QCURVE SMOOTH",
"249 411 LINE SMOOTH",
"238 400 OFFCURVE",
"238 383 QCURVE SMOOTH",
"238 173 LINE",
"263 173 LINE",
"263 231 LINE",
"414 365 LINE SMOOTH",
"461 408 OFFCURVE",
"514 491 OFFCURVE",
"514 545 QCURVE SMOOTH",
"514 627 OFFCURVE",
"395 711 OFFCURVE",
"176 711 OFFCURVE",
"58 623 OFFCURVE",
"58 558 QCURVE",
"58 558 LINE"
);
},
{
closed = 1;
nodes = (
"326 32 OFFCURVE",
"326 104 OFFCURVE",
"284 141 OFFCURVE",
"214 141 OFFCURVE",
"174 98 OFFCURVE",
"174 33 OFFCURVE",
"211 -10 OFFCURVE",
"286 -10 OFFCURVE"
);
}
);
width = 580;
}
);
note = question;
unicode = 003F;
},
{
glyphname = at;
layers = (
{
layerId = "A70DCACA-0340-40F6-B519-7C37231E9414";
paths = (
{
closed = 1;
nodes = (
"357 395 OFFCURVE",
"233 268 OFFCURVE",
"233 147 QCURVE SMOOTH",
"233 83 OFFCURVE",
"309 -5 OFFCURVE",
"451 -5 OFFCURVE",
"477 65 QCURVE",
"505 -7 OFFCURVE",
"704 -7 OFFCURVE",
"809 119 OFFCURVE",
"809 244 QCURVE SMOOTH",
"809 399 OFFCURVE",
"620 572 OFFCURVE",
"467 572 QCURVE SMOOTH",
"291 572 OFFCURVE",
"70 345 OFFCURVE",
"70 170 QCURVE SMOOTH",
"70 81 OFFCURVE",
"134 -57 OFFCURVE",
"245 -141 OFFCURVE",
"384 -183 OFFCURVE",
"532 -183 OFFCURVE",
"669 -135 OFFCURVE",
"713 -94 QCURVE",
"697 -76 LINE",
"599 -159 OFFCURVE",
"319 -159 OFFCURVE",
"214 -85 QCURVE SMOOTH",
"161 -47 OFFCURVE",
"98 86 OFFCURVE",
"98 174 QCURVE SMOOTH",
"98 346 OFFCURVE",
"310 550 OFFCURVE",
"613 550 OFFCURVE",
"783 383 OFFCURVE",
"783 237 QCURVE SMOOTH",
"783 139 OFFCURVE",
"704 22 OFFCURVE",
"659 22 QCURVE SMOOTH",
"625 22 OFFCURVE",
"602 59 OFFCURVE",
"602 134 OFFCURVE",
"614 206 QCURVE SMOOTH",
"646 388 LINE",
"537 388 LINE",
"520 358 LINE",
"481 395 OFFCURVE",
"433 395 QCURVE",
"433 395 LINE"
);
},
{
closed = 1;
nodes = (
"473 80 OFFCURVE",
"429 16 OFFCURVE",
"400 16 QCURVE SMOOTH",
"349 16 OFFCURVE",
"349 178 OFFCURVE",
"367 264 QCURVE SMOOTH",
"377 312 OFFCURVE",
"420 374 OFFCURVE",
"486 374 OFFCURVE",
"515 344 QCURVE",
"481 130 LINE",
"481 130 LINE"
);
}
);
width = 879;
}
);
note = at;
unicode = 0040;
},
{
glyphname = A;
lastChange = "2021-08-25 09:49:27 +0000";
layers = (
{
layerId = "A70DCACA-0340-40F6-B519-7C37231E9414";
paths = (
{
closed = 1;
nodes = (
"432 687 LINE",
"359 471 LINE",
"161 471 LINE",
"84 687 LINE",
"159 687 LINE",
"159 706 LINE",
"6 706 LINE",
"6 687 LINE",
"53 687 LINE",
"308 0 LINE",
"390 0 LINE",
"642 687 LINE",
"688 687 LINE",
"688 706 LINE",
"361 706 LINE",
"361 687 LINE",
"432 687 LINE"
);
},
{
closed = 1;
nodes = (
"264 187 LINE",
"170 449 LINE",
"351 449 LINE",
"264 187 LINE"
);
}
);
width = 694;
}
);
leftKerningGroup = A;
note = A;
rightKerningGroup = A;
unicode = 0041;
changeCount = 1;
},
{
glyphname = B;
layers = (
{
layerId = "A70DCACA-0340-40F6-B519-7C37231E9414";
paths = (
{
closed = 1;
nodes = (
"21 681 LINE",
"86 681 LINE",
"86 19 LINE",
"21 19 LINE",
"21 0 LINE",
"315 0 LINE SMOOTH",
"469 0 OFFCURVE",
"633 87 OFFCURVE",
"633 196 QCURVE SMOOTH",
"633 345 OFFCURVE",
"433 370 QCURVE",
"433 372 LINE",
"598 399 OFFCURVE",
"598 536 QCURVE SMOOTH",
"598 625 OFFCURVE",
"459 700 OFFCURVE",
"320 700 QCURVE SMOOTH",
"21 700 LINE",
"21 700 LINE"
);
},
{
closed = 1;
nodes = (
"304 354 LINE SMOOTH",
"373 354 OFFCURVE",
"427 288 OFFCURVE",
"427 222 QCURVE SMOOTH",
"427 169 LINE SMOOTH",
"427 95 OFFCURVE",
"383 19 OFFCURVE",
"328 19 QCURVE SMOOTH",
"281 19 LINE",
"281 354 LINE",
"281 354 LINE"
);
},
{
closed = 1;
nodes = (
"313 681 LINE SMOOTH",
"364 681 OFFCURVE",
"400 622 OFFCURVE",
"400 548 QCURVE SMOOTH",
"400 501 LINE SMOOTH",
"400 436 OFFCURVE",
"359 373 OFFCURVE",
"307 373 QCURVE SMOOTH",
"281 373 LINE",
"281 681 LINE",
"281 681 LINE"
);
}
);
width = 659;
}
);
note = B;
unicode = 0042;
},
{
glyphname = C;
layers = (
{
layerId = "A70DCACA-0340-40F6-B519-7C37231E9414";
paths = (
{
closed = 1;
nodes = (
"461 691 OFFCURVE",
"556 584 OFFCURVE",
"601 483 QCURVE",
"619 483 LINE",
"611 700 LINE",
"600 700 LINE",
"594 689 OFFCURVE",
"584 680 OFFCURVE",
"564 680 OFFCURVE",
"447 711 OFFCURVE",
"386 711 QCURVE SMOOTH",
"228 711 OFFCURVE",
"41 519 OFFCURVE",
"41 166 OFFCURVE",
"220 -10 OFFCURVE",
"383 -10 QCURVE SMOOTH",
"448 -10 OFFCURVE",
"574 21 OFFCURVE",
"593 21 OFFCURVE",
"603 12 OFFCURVE",
"609 1 QCURVE",
"620 1 LINE",
"627 224 LINE",
"609 224 LINE",
"517 10 OFFCURVE",
"407 10 QCURVE SMOOTH",
"327 10 OFFCURVE",
"245 171 OFFCURVE",
"245 313 QCURVE SMOOTH",
"245 392 LINE SMOOTH",
"245 691 OFFCURVE",
"400 691 QCURVE",
"400 691 LINE"
);
}
);
width = 690;
}
);
leftKerningGroup = C;
note = C;
rightKerningGroup = C;
unicode = 0043;
},
{
glyphname = D;
layers = (
{
layerId = "A70DCACA-0340-40F6-B519-7C37231E9414";
paths = (
{
closed = 1;
nodes = (
"714 543 OFFCURVE",
"522 700 OFFCURVE",
"330 700 QCURVE SMOOTH",
"21 700 LINE",
"21 681 LINE",
"87 681 LINE",
"87 19 LINE",
"21 19 LINE",
"21 0 LINE",
"304 0 LINE SMOOTH",
"491 0 OFFCURVE",
"598 75 QCURVE SMOOTH",
"714 156 OFFCURVE",
"714 362 QCURVE",
"714 362 LINE"
);
},
{
closed = 1;
nodes = (
"282 681 LINE",
"306 681 LINE SMOOTH",
"381 681 OFFCURVE",
"422 659 QCURVE SMOOTH",
"508 613 OFFCURVE",
"508 388 QCURVE SMOOTH",
"508 330 LINE SMOOTH",
"508 162 OFFCURVE",
"421 19 OFFCURVE",
"320 19 QCURVE SMOOTH",
"282 19 LINE",
"282 19 LINE"
);
}
);
width = 755;
}
);
note = D;
rightKerningGroup = D;
unicode = 0044;
},
{
glyphname = E;
layers = (
{
layerId = "A70DCACA-0340-40F6-B519-7C37231E9414";
paths = (
{
closed = 1;
nodes = (
"21 678 LINE",
"80 678 LINE",
"80 22 LINE",
"21 22 LINE",
"21 0 LINE",
"570 0 LINE",
"578 218 LINE",
"558 218 LINE",
"534 132 OFFCURVE",
"405 22 OFFCURVE",
"313 22 QCURVE SMOOTH",
"275 22 LINE",
"275 343 LINE",
"299 343 LINE SMOOTH",
"352 343 OFFCURVE",
"413 279 OFFCURVE",
"431 204 QCURVE",
"448 204 LINE",
"448 500 LINE",
"433 500 LINE",
"420 440 OFFCURVE",
"356 369 OFFCURVE",
"309 369 QCURVE SMOOTH",
"275 369 LINE",
"275 678 LINE",
"310 678 LINE SMOOTH",
"399 678 OFFCURVE",
"491 603 OFFCURVE",
"533 502 QCURVE",
"551 502 LINE",
"541 700 LINE",
"21 700 LINE",
"21 700 LINE"
);
}
);
width = 624;
}
);
note = E;
rightKerningGroup = E;
unicode = 0045;
},
{
glyphname = F;
layers = (
{
layerId = "A70DCACA-0340-40F6-B519-7C37231E9414";
paths = (
{
closed = 1;
nodes = (
"21 678 LINE",
"80 678 LINE",
"80 22 LINE",
"21 22 LINE",
"21 0 LINE",
"399 0 LINE",
"399 22 LINE",
"275 22 LINE",
"275 327 LINE",
"320 327 LINE SMOOTH",
"369 327 OFFCURVE",
"426 263 OFFCURVE",
"442 188 QCURVE",
"459 188 LINE",
"459 484 LINE",
"444 484 LINE",
"432 423 OFFCURVE",
"368 353 OFFCURVE",
"320 353 QCURVE SMOOTH",
"275 353 LINE",
"275 678 LINE",
"303 678 LINE SMOOTH",
"399 678 OFFCURVE",
"496 600 OFFCURVE",
"533 492 QCURVE",
"551 492 LINE",
"541 700 LINE",
"21 700 LINE",
"21 700 LINE"
);
}
);
width = 592;
}
);
note = F;
unicode = 0046;
},
{
glyphname = G;
layers = (
{
layerId = "A70DCACA-0340-40F6-B519-7C37231E9414";
paths = (
{
closed = 1;
nodes = (
"320 10 OFFCURVE",
"245 163 OFFCURVE",
"245 313 QCURVE SMOOTH",
"245 392 LINE SMOOTH",
"245 691 OFFCURVE",
"398 691 QCURVE SMOOTH",
"459 691 OFFCURVE",
"558 580 OFFCURVE",
"607 483 QCURVE",
"625 483 LINE",
"617 700 LINE",
"606 700 LINE",
"600 689 OFFCURVE",
"590 680 OFFCURVE",
"570 680 OFFCURVE",
"447 711 OFFCURVE",
"386 711 QCURVE SMOOTH",
"228 711 OFFCURVE",
"41 519 OFFCURVE",
"41 166 OFFCURVE",
"220 -10 OFFCURVE",
"383 -10 QCURVE SMOOTH",
"432 -10 OFFCURVE",
"571 26 OFFCURVE",
"585 26 QCURVE SMOOTH",
"618 26 OFFCURVE",
"636 1 QCURVE",
"651 1 LINE",
"651 283 LINE",
"690 283 LINE",
"690 305 LINE",
"402 305 LINE",
"402 283 LINE",
"466 283 LINE",
"466 89 LINE SMOOTH",
"466 46 OFFCURVE",
"439 10 OFFCURVE",
"390 10 QCURVE",
"390 10 LINE"
);
}
);
width = 723;
}
);
leftKerningGroup = C;
note = G;
rightKerningGroup = G;
unicode = 0047;
},
{
glyphname = H;
layers = (
{
layerId = "A70DCACA-0340-40F6-B519-7C37231E9414";
paths = (
{
closed = 1;
nodes = (
"21 681 LINE",
"80 681 LINE",
"80 19 LINE",
"21 19 LINE",
"21 0 LINE",
"333 0 LINE",
"333 19 LINE",
"275 19 LINE",
"275 345 LINE",
"474 345 LINE",
"474 19 LINE",
"415 19 LINE",
"415 0 LINE",
"728 0 LINE",
"728 19 LINE",
"669 19 LINE",
"669 681 LINE",
"728 681 LINE",
"728 700 LINE",
"415 700 LINE",
"415 681 LINE",
"474 681 LINE",
"474 371 LINE",
"275 371 LINE",
"275 681 LINE",
"333 681 LINE",
"333 700 LINE",
"21 700 LINE",
"21 700 LINE"
);
}
);
width = 749;
}
);
note = H;
rightKerningGroup = H;
unicode = 0048;
},
{
glyphname = I;
layers = (
{
layerId = "A70DCACA-0340-40F6-B519-7C37231E9414";
paths = (
{
closed = 1;
nodes = (
"25 681 LINE",
"80 681 LINE",
"80 19 LINE",
"25 19 LINE",
"25 0 LINE",
"330 0 LINE",
"330 19 LINE",
"275 19 LINE",
"275 681 LINE",
"330 681 LINE",
"330 700 LINE",
"25 700 LINE",
"25 700 LINE"
);
}
);
width = 355;
}
);
note = I;
rightKerningGroup = H;
unicode = 0049;
},
{
glyphname = J;
layers = (
{
layerId = "A70DCACA-0340-40F6-B519-7C37231E9414";
paths = (
{
closed = 1;
nodes = (
"176 681 LINE",
"251 681 LINE",
"251 177 LINE SMOOTH",
"251 72 OFFCURVE",
"228 9 OFFCURVE",
"188 9 QCURVE SMOOTH",
"166 9 OFFCURVE",
"139 28 OFFCURVE",
"139 55 OFFCURVE",
"148 70 QCURVE",
"187 70 LINE",
"198 100 OFFCURVE",
"198 159 OFFCURVE",
"157 201 OFFCURVE",
"74 201 OFFCURVE",
"26 152 OFFCURVE",
"26 109 QCURVE SMOOTH",
"26 53 OFFCURVE",
"121 -9 OFFCURVE",
"202 -9 QCURVE SMOOTH",
"324 -9 OFFCURVE",
"446 114 OFFCURVE",
"446 249 QCURVE SMOOTH",
"446 681 LINE",
"501 681 LINE",
"501 700 LINE",
"176 700 LINE",
"176 700 LINE"
);
}
);
width = 517;
}
);
leftKerningGroup = J;
note = J;
rightKerningGroup = J;
unicode = 004A;
},
{
glyphname = K;
layers = (
{
layerId = "A70DCACA-0340-40F6-B519-7C37231E9414";
paths = (
{
closed = 1;
nodes = (
"25 681 LINE",
"80 681 LINE",
"80 19 LINE",
"25 19 LINE",
"25 0 LINE",
"330 0 LINE",
"330 19 LINE",
"275 19 LINE",
"275 336 LINE",
"284 338 LINE",
"449 19 LINE",
"402 19 LINE",
"402 0 LINE",
"723 0 LINE",
"723 19 LINE",
"669 19 LINE",
"429 489 LINE",
"601 681 LINE",
"661 681 LINE",
"661 700 LINE",
"486 700 LINE",
"486 681 LINE",
"565 681 LINE",
"283 367 LINE",
"275 365 LINE",
"275 681 LINE",
"330 681 LINE",
"330 700 LINE",
"25 700 LINE",
"25 700 LINE"
);
}
);
width = 734;
}
);
note = K;
rightKerningGroup = K;
unicode = 004B;
},
{
glyphname = L;
layers = (
{
layerId = "A70DCACA-0340-40F6-B519-7C37231E9414";
paths = (
{
closed = 1;
nodes = (
"21 678 LINE",
"80 678 LINE",
"80 22 LINE",
"21 22 LINE",
"21 0 LINE",
"551 0 LINE",
"570 234 LINE",
"549 234 LINE",
"497 126 OFFCURVE",
"396 22 OFFCURVE",
"311 22 QCURVE SMOOTH",
"275 22 LINE",
"275 678 LINE",
"381 678 LINE",
"381 700 LINE",
"21 700 LINE",
"21 700 LINE"
);
}
);
width = 596;
}
);
note = L;
rightKerningGroup = L;
unicode = 004C;
},
{
glyphname = M;
layers = (
{
layerId = "A70DCACA-0340-40F6-B519-7C37231E9414";
paths = (
{
closed = 1;
nodes = (
"428 185 LINE",
"295 700 LINE",
"25 700 LINE",
"25 681 LINE",
"80 681 LINE",
"80 19 LINE",
"25 19 LINE",
"25 0 LINE",
"161 0 LINE",
"161 19 LINE",
"106 19 LINE",
"106 647 LINE",
"110 647 LINE",
"286 0 LINE",
"411 0 LINE",
"561 644 LINE",
"565 644 LINE",
"565 19 LINE",
"510 19 LINE",
"510 0 LINE",
"815 0 LINE",
"815 19 LINE",
"760 19 LINE",
"760 681 LINE",
"815 681 LINE",
"815 700 LINE",
"548 700 LINE",
"548 700 LINE"
);
}
);
width = 840;
}
);
note = M;
rightKerningGroup = H;
unicode = 004D;
},
{
glyphname = N;
layers = (
{
layerId = "A70DCACA-0340-40F6-B519-7C37231E9414";
paths = (
{
closed = 1;
nodes = (
"645 681 LINE",
"645 700 LINE",
"508 700 LINE",
"508 681 LINE",
"563 681 LINE",
"563 198 LINE",
"301 700 LINE",
"25 700 LINE",
"25 681 LINE",
"80 681 LINE",
"80 19 LINE",
"25 19 LINE",
"25 0 LINE",
"162 0 LINE",
"162 19 LINE",
"107 19 LINE",
"107 647 LINE",
"450 0 LINE",
"590 0 LINE",
"590 681 LINE",
"590 681 LINE"
);
}
);
width = 670;
}
);
note = N;
rightKerningGroup = N;
unicode = 004E;
},
{
glyphname = O;
layers = (
{
layerId = "A70DCACA-0340-40F6-B519-7C37231E9414";
paths = (
{
closed = 1;
nodes = (
"501 144 OFFCURVE",
"454 11 OFFCURVE",
"375 11 QCURVE SMOOTH",
"310 11 OFFCURVE",
"279 60 QCURVE SMOOTH",
"265 82 OFFCURVE",
"246 185 OFFCURVE",
"246 307 QCURVE SMOOTH",
"246 379 LINE SMOOTH",
"246 492 OFFCURVE",
"252 550 QCURVE SMOOTH",
"257 590 OFFCURVE",
"274 634 OFFCURVE",
"302 674 OFFCURVE",
"345 690 OFFCURVE",
"405 690 OFFCURVE",
"426 682 QCURVE SMOOTH",
"463 669 OFFCURVE",
"483 614 QCURVE SMOOTH",
"501 566 OFFCURVE",
"501 383 QCURVE SMOOTH",
"501 309 LINE",
"501 309 LINE"
);
},
{
closed = 1;
nodes = (
"707 180 OFFCURVE",
"707 524 OFFCURVE",
"542 711 OFFCURVE",
"218 711 OFFCURVE",
"41 514 OFFCURVE",
"41 171 OFFCURVE",
"206 -10 OFFCURVE",
"540 -10 OFFCURVE"
);
}
);
width = 748;
}
);
leftKerningGroup = C;
note = O;
rightKerningGroup = O;
unicode = 004F;
},
{
glyphname = P;
layers = (
{
layerId = "A70DCACA-0340-40F6-B519-7C37231E9414";
paths = (
{
closed = 1;
nodes = (
"15 681 LINE",
"80 681 LINE",
"80 19 LINE",
"15 19 LINE",
"15 0 LINE",
"400 0 LINE",
"400 19 LINE",
"275 19 LINE",
"275 287 LINE",
"283 287 LINE SMOOTH",
"434 287 OFFCURVE",
"518 330 QCURVE SMOOTH",
"608 377 OFFCURVE",
"608 501 QCURVE SMOOTH",
"608 613 OFFCURVE",
"460 700 OFFCURVE",
"309 700 QCURVE SMOOTH",
"15 700 LINE",
"15 700 LINE"
);
},
{
closed = 1;
nodes = (
"302 681 LINE SMOOTH",
"359 681 OFFCURVE",
"402 613 OFFCURVE",
"402 528 QCURVE SMOOTH",
"402 480 LINE SMOOTH",
"402 388 OFFCURVE",
"356 306 OFFCURVE",
"296 306 QCURVE SMOOTH",
"275 306 LINE",
"275 681 LINE",
"275 681 LINE"
);
}
);
width = 634;
}
);
note = P;
rightKerningGroup = P;
unicode = 0050;
},
{
glyphname = Q;
layers = (
{
layerId = "A70DCACA-0340-40F6-B519-7C37231E9414";
paths = (
{
closed = 1;
nodes = (
"41 188 OFFCURVE",
"181 10 OFFCURVE",
"317 -4 QCURVE",
"317 -10 LINE",
"266 -19 OFFCURVE",
"226 -59 QCURVE",
"240 -75 LINE",
"286 -34 OFFCURVE",
"314 -34 QCURVE SMOOTH",
"328 -34 OFFCURVE",
"346 -58 OFFCURVE",
"359 -99 QCURVE SMOOTH",
"379 -166 OFFCURVE",
"455 -235 OFFCURVE",
"594 -235 OFFCURVE",
"672 -165 OFFCURVE",
"674 -99 QCURVE",
"652 -97 LINE",
"645 -177 OFFCURVE",
"607 -177 QCURVE SMOOTH",
"585 -177 OFFCURVE",
"563 -147 OFFCURVE",
"535 -64 OFFCURVE",
"480 -14 OFFCURVE",
"423 -8 QCURVE",
"423 -1 LINE",
"707 25 OFFCURVE",
"707 352 QCURVE SMOOTH",
"707 524 OFFCURVE",
"542 711 OFFCURVE",
"218 711 OFFCURVE",
"41 514 OFFCURVE",
"41 339 QCURVE",
"41 339 LINE"
);
},
{
closed = 1;
nodes = (
"501 144 OFFCURVE",
"454 11 OFFCURVE",
"375 11 QCURVE SMOOTH",
"310 11 OFFCURVE",
"279 60 QCURVE SMOOTH",
"265 82 OFFCURVE",
"246 185 OFFCURVE",
"246 307 QCURVE SMOOTH",
"246 379 LINE SMOOTH",
"246 492 OFFCURVE",
"252 550 QCURVE SMOOTH",
"257 590 OFFCURVE",
"274 634 OFFCURVE",
"302 674 OFFCURVE",
"345 690 OFFCURVE",
"405 690 OFFCURVE",
"426 682 QCURVE SMOOTH",
"463 669 OFFCURVE",
"483 614 QCURVE SMOOTH",
"501 566 OFFCURVE",
"501 383 QCURVE SMOOTH",
"501 309 LINE",
"501 309 LINE"
);
}
);
width = 748;
}
);
leftKerningGroup = C;
note = Q;
rightKerningGroup = O;
unicode = 0051;
},
{
glyphname = R;
layers = (
{
layerId = "A70DCACA-0340-40F6-B519-7C37231E9414";
paths = (
{
closed = 1;
nodes = (
"367 354 OFFCURVE",
"396 302 OFFCURVE",
"396 246 QCURVE SMOOTH",
"396 173 LINE SMOOTH",
"396 67 OFFCURVE",
"465 -10 OFFCURVE",
"629 -10 OFFCURVE",
"684 48 OFFCURVE",
"695 133 QCURVE",
"678 135 LINE",
"669 82 OFFCURVE",
"648 49 OFFCURVE",
"612 49 OFFCURVE",
"601 85 OFFCURVE",
"601 137 QCURVE SMOOTH",
"601 190 LINE SMOOTH",
"601 277 OFFCURVE",
"537 351 OFFCURVE",
"456 362 QCURVE",
"456 365 LINE",
"542 372 OFFCURVE",
"626 445 OFFCURVE",
"626 615 OFFCURVE",
"578 654 QCURVE SMOOTH",
"556 673 OFFCURVE",
"447 700 OFFCURVE",
"317 700 QCURVE SMOOTH",
"15 700 LINE",
"15 681 LINE",
"80 681 LINE",
"80 19 LINE",
"15 19 LINE",
"15 0 LINE",
"340 0 LINE",
"340 19 LINE",
"275 19 LINE",
"275 354 LINE",
"328 354 LINE",
"328 354 LINE"
);
},
{
closed = 1;
nodes = (
"308 681 LINE SMOOTH",
"366 681 OFFCURVE",
"419 630 OFFCURVE",
"419 551 QCURVE SMOOTH",
"419 522 LINE SMOOTH",
"419 443 OFFCURVE",
"364 373 OFFCURVE",
"307 373 QCURVE SMOOTH",
"275 373 LINE",
"275 681 LINE",
"275 681 LINE"
);
}
);
width = 716;
}
);
note = R;
unicode = 0052;
},
{
glyphname = S;
layers = (
{
layerId = "A70DCACA-0340-40F6-B519-7C37231E9414";
paths = (
{
closed = 1;
nodes = (
"249 11 OFFCURVE",
"112 141 OFFCURVE",
"68 228 QCURVE",
"51 228 LINE",
"61 -10 LINE",
"75 -10 LINE",
"88 20 OFFCURVE",
"102 20 QCURVE SMOOTH",
"110 20 OFFCURVE",
"257 -10 OFFCURVE",
"314 -10 QCURVE SMOOTH",
"424 -10 OFFCURVE",
"559 121 OFFCURVE",
"559 229 QCURVE SMOOTH",
"559 295 OFFCURVE",
"532 343 QCURVE SMOOTH",
"521 364 OFFCURVE",
"482 399 OFFCURVE",
"447 422 OFFCURVE",
"392 443 OFFCURVE",
"355 455 OFFCURVE",
"237 487 OFFCURVE",
"156 538 OFFCURVE",
"156 633 OFFCURVE",
"224 690 OFFCURVE",
"347 690 OFFCURVE",
"452 585 OFFCURVE",
"500 498 QCURVE",
"516 498 LINE",
"509 700 LINE",
"498 700 LINE",
"487 680 OFFCURVE",
"459 680 OFFCURVE",
"344 711 OFFCURVE",
"291 711 QCURVE SMOOTH",
"181 711 OFFCURVE",
"54 583 OFFCURVE",
"54 494 QCURVE SMOOTH",
"54 385 OFFCURVE",
"116 333 QCURVE SMOOTH",
"147 307 OFFCURVE",
"216 275 OFFCURVE",
"369 232 OFFCURVE",
"452 174 OFFCURVE",
"452 65 OFFCURVE",
"375 11 OFFCURVE",
"325 11 QCURVE",
"325 11 LINE"
);
}
);
width = 600;
}
);
leftKerningGroup = S;
note = S;
rightKerningGroup = S;
unicode = 0053;
},
{
glyphname = T;
layers = (
{
layerId = "A70DCACA-0340-40F6-B519-7C37231E9414";
paths = (
{
closed = 1;
nodes = (
"46 700 LINE",
"36 449 LINE",
"55 449 LINE",
"97 578 OFFCURVE",
"167 679 OFFCURVE",
"231 679 QCURVE SMOOTH",
"244 679 LINE",
"244 21 LINE",
"159 21 LINE",
"159 0 LINE",
"524 0 LINE",
"524 21 LINE",
"439 21 LINE",
"439 679 LINE",
"451 679 LINE SMOOTH",
"515 679 OFFCURVE",
"583 582 OFFCURVE",
"627 449 QCURVE",
"646 449 LINE",
"636 700 LINE",
"636 700 LINE"
);
}
);
width = 683;
}
);
leftKerningGroup = T;
note = T;
rightKerningGroup = T;
unicode = 0054;
},
{
glyphname = U;
layers = (
{
layerId = "A70DCACA-0340-40F6-B519-7C37231E9414";
paths = (
{
closed = 1;
nodes = (
"271 681 LINE",
"336 681 LINE",
"336 700 LINE",
"21 700 LINE",
"21 681 LINE",
"76 681 LINE",
"76 247 LINE SMOOTH",
"76 106 OFFCURVE",
"223 -10 OFFCURVE",
"502 -10 OFFCURVE",
"612 112 OFFCURVE",
"612 236 QCURVE SMOOTH",
"612 681 LINE",
"667 681 LINE",
"667 700 LINE",
"521 700 LINE",
"521 681 LINE",
"586 681 LINE",
"586 229 LINE SMOOTH",
"586 125 OFFCURVE",
"498 23 OFFCURVE",
"334 23 OFFCURVE",
"271 121 OFFCURVE",
"271 213 QCURVE",
"271 213 LINE"
);
}
);
width = 683;
}
);
leftKerningGroup = U;
note = U;
rightKerningGroup = U;
unicode = 0055;
},
{
glyphname = V;
layers = (
{
layerId = "A70DCACA-0340-40F6-B519-7C37231E9414";
paths = (
{
closed = 1;
nodes = (
"262 681 LINE",
"333 681 LINE",
"333 700 LINE",
"6 700 LINE",
"6 681 LINE",
"52 681 LINE",
"307 -10 LINE",
"391 -10 LINE",
"632 681 LINE",
"679 681 LINE",
"679 700 LINE",
"526 700 LINE",
"526 681 LINE",
"604 681 LINE",
"430 181 LINE",
"430 181 LINE"
);
}
);
width = 685;
}
);
leftKerningGroup = V;
note = V;
rightKerningGroup = V;
unicode = 0056;
},
{
glyphname = W;
layers = (
{
layerId = "A70DCACA-0340-40F6-B519-7C37231E9414";
paths = (
{
closed = 1;
nodes = (
"261 681 LINE",
"331 681 LINE",
"331 700 LINE",
"6 700 LINE",
"6 681 LINE",
"53 681 LINE",
"305 -10 LINE",
"392 -10 LINE",
"522 442 LINE",
"670 -10 LINE",
"759 -10 LINE",
"943 681 LINE",
"1009 681 LINE",
"1009 700 LINE",
"809 700 LINE",
"809 681 LINE",
"910 681 LINE",
"790 208 LINE",
"641 681 LINE",
"700 681 LINE",
"700 700 LINE",
"390 700 LINE",
"390 681 LINE",
"447 681 LINE",
"507 490 LINE",
"424 202 LINE",
"424 202 LINE"
);
}
);
width = 1015;
}
);
leftKerningGroup = V;
note = W;
rightKerningGroup = V;
unicode = 0057;
},
{
glyphname = X;
layers = (
{
layerId = "A70DCACA-0340-40F6-B519-7C37231E9414";
paths = (
{
closed = 1;
nodes = (
"700 19 LINE",
"642 19 LINE",
"415 410 LINE",
"584 680 LINE",
"650 680 LINE",
"650 700 LINE",
"445 700 LINE",
"445 680 LINE",
"549 680 LINE",
"398 438 LINE",
"263 680 LINE",
"331 680 LINE",
"331 700 LINE",
"-6 700 LINE",
"-6 680 LINE",
"48 680 LINE",
"257 313 LINE",
"82 19 LINE",
"15 19 LINE",
"15 0 LINE",
"222 0 LINE",
"222 19 LINE",
"116 19 LINE",
"275 283 LINE",
"424 19 LINE",
"358 19 LINE",
"358 0 LINE",
"700 0 LINE",
"700 0 LINE"
);
}
);
width = 711;
}
);
note = X;
unicode = 0058;
},
{
glyphname = Y;
layers = (
{
layerId = "A70DCACA-0340-40F6-B519-7C37231E9414";
paths = (
{
closed = 1;
nodes = (
"261 684 LINE",
"326 684 LINE",
"326 700 LINE",
"6 700 LINE",
"6 684 LINE",
"53 684 LINE",
"223 331 LINE",
"223 19 LINE",
"162 19 LINE",
"162 0 LINE",
"479 0 LINE",
"479 19 LINE",
"418 19 LINE",
"418 350 LINE",
"569 684 LINE",
"635 684 LINE",
"635 700 LINE",
"438 700 LINE",
"438 684 LINE",
"539 684 LINE",
"397 371 LINE",
"397 371 LINE"
);
}
);
width = 641;
}
);
leftKerningGroup = Y;
note = Y;
rightKerningGroup = Y;
unicode = 0059;
},
{
glyphname = Z;
layers = (
{
layerId = "A70DCACA-0340-40F6-B519-7C37231E9414";
paths = (
{
closed = 1;
nodes = (
"64 700 LINE",
"49 479 LINE",
"67 479 LINE",
"125 600 OFFCURVE",
"217 678 OFFCURVE",
"306 678 QCURVE SMOOTH",
"347 678 LINE",
"48 19 LINE",
"48 0 LINE",
"560 0 LINE",
"572 244 LINE",
"554 244 LINE",
"524 138 OFFCURVE",
"387 23 OFFCURVE",
"297 23 QCURVE SMOOTH",
"263 23 LINE",
"559 678 LINE",
"559 700 LINE",
"559 700 LINE"
);
}
);
width = 612;
}
);
leftKerningGroup = Z;
note = Z;
rightKerningGroup = Z;
unicode = 005A;
},
{
glyphname = bracketleft;
layers = (
{
layerId = "A70DCACA-0340-40F6-B519-7C37231E9414";
paths = (
{
closed = 1;
nodes = (
"303 -142 LINE SMOOTH",
"265 -142 OFFCURVE",
"246 -126 OFFCURVE",
"246 -89 QCURVE SMOOTH",
"246 711 LINE SMOOTH",
"246 745 OFFCURVE",
"267 763 OFFCURVE",
"304 763 QCURVE SMOOTH",
"349 763 LINE",
"349 781 LINE",
"61 781 LINE",
"61 -160 LINE",
"349 -160 LINE",
"349 -142 LINE",
"349 -142 LINE"
);
}
);
width = 329;
}
);
note = bracketleft;
unicode = 005B;
},
{
glyphname = backslash;
layers = (
{
layerId = "A70DCACA-0340-40F6-B519-7C37231E9414";
paths = (
{
closed = 1;
nodes = (
"8 795 LINE",
"302 -97 LINE",
"344 -97 LINE",
"49 795 LINE",
"49 795 LINE"
);
}
);
width = 351;
}
);
note = backslash;
unicode = 005C;
},
{
glyphname = bracketright;
layers = (
{
layerId = "A70DCACA-0340-40F6-B519-7C37231E9414";
paths = (
{
closed = 1;
nodes = (
"268 -160 LINE",
"268 781 LINE",
"-20 781 LINE",
"-20 763 LINE",
"25 763 LINE SMOOTH",
"62 763 OFFCURVE",
"83 745 OFFCURVE",
"83 711 QCURVE SMOOTH",
"83 -89 LINE SMOOTH",
"83 -126 OFFCURVE",
"64 -142 OFFCURVE",
"26 -142 QCURVE SMOOTH",
"-20 -142 LINE",
"-20 -160 LINE",
"-20 -160 LINE"
);
}
);
width = 328;
}
);
note = bracketright;
unicode = 005D;
},
{
glyphname = asciicircum;
layers = (
{
layerId = "A70DCACA-0340-40F6-B519-7C37231E9414";
paths = (
{
closed = 1;
nodes = (
"298 664 LINE",
"249 664 LINE",
"60 300 LINE",
"98 284 LINE",
"273 621 LINE",
"463 285 LINE",
"500 300 LINE",
"500 300 LINE"
);
}
);
width = 560;
}
);
note = asciicircum;
unicode = 005E;
},
{
glyphname = underscore;
layers = (
{
layerId = "A70DCACA-0340-40F6-B519-7C37231E9414";
paths = (
{
closed = 1;
nodes = (
"500 -69 LINE",
"0 -69 LINE",
"0 -106 LINE",
"500 -106 LINE",
"500 -106 LINE"
);
}
);
width = 500;
}
);
note = underscore;
unicode = 005F;
},
{
glyphname = grave;
layers = (
{
layerId = "A70DCACA-0340-40F6-B519-7C37231E9414";
paths = (
{
closed = 1;
nodes = (
"199 733 LINE SMOOTH",
"168 740 OFFCURVE",
"135 711 OFFCURVE",
"135 662 OFFCURVE",
"164 636 QCURVE SMOOTH",
"298 525 LINE",
"309 532 LINE",
"246 723 LINE",
"246 723 LINE"
);
}
);
width = 500;
}
);
note = grave;
unicode = 0060;
},
{
glyphname = a;
layers = (
{
layerId = "A70DCACA-0340-40F6-B519-7C37231E9414";
paths = (
{
closed = 1;
nodes = (
"133 235 OFFCURVE",
"20 182 OFFCURVE",
"20 111 QCURVE SMOOTH",
"20 -10 OFFCURVE",
"168 -10 QCURVE SMOOTH",
"218 -10 OFFCURVE",
"270 26 OFFCURVE",
"283 64 QCURVE",
"301 -10 OFFCURVE",
"421 -10 QCURVE SMOOTH",
"487 -10 OFFCURVE",
"545 56 OFFCURVE",
"549 144 QCURVE",
"534 145 LINE",
"528 42 OFFCURVE",
"494 42 QCURVE SMOOTH",
"465 42 OFFCURVE",
"465 94 QCURVE SMOOTH",
"465 297 LINE SMOOTH",
"465 405 OFFCURVE",
"374 486 OFFCURVE",
"255 486 QCURVE SMOOTH",
"46 486 OFFCURVE",
"46 363 QCURVE SMOOTH",
"46 280 OFFCURVE",
"132 280 QCURVE SMOOTH",
"170 280 OFFCURVE",
"220 323 OFFCURVE",
"220 382 OFFCURVE",
"212 403 QCURVE",
"187 403 LINE",
"181 420 OFFCURVE",
"181 453 OFFCURVE",
"210 472 OFFCURVE",
"228 472 QCURVE SMOOTH",
"258 472 OFFCURVE",
"279 407 OFFCURVE",
"279 312 QCURVE SMOOTH",
"279 235 LINE",
"250 235 LINE",
"250 235 LINE"
);
},
{
closed = 1;
nodes = (
"210 128 LINE SMOOTH",
"210 219 OFFCURVE",
"272 219 QCURVE SMOOTH",
"279 219 LINE",
"279 126 LINE SMOOTH",
"279 81 OFFCURVE",
"252 30 OFFCURVE",
"221 30 OFFCURVE",
"210 60 OFFCURVE",
"210 112 QCURVE",
"210 112 LINE"
);
}
);
width = 549;
}
);
leftKerningGroup = a;
note = a;
rightKerningGroup = a;
unicode = 0061;
},
{
glyphname = b;
layers = (
{
layerId = "A70DCACA-0340-40F6-B519-7C37231E9414";
paths = (
{
closed = 1;
nodes = (
"375 217 LINE SMOOTH",
"375 107 OFFCURVE",
"351 19 OFFCURVE",
"286 19 OFFCURVE",
"251 79 OFFCURVE",
"251 122 QCURVE SMOOTH",
"251 308 LINE SMOOTH",
"251 371 OFFCURVE",
"297 443 OFFCURVE",
"355 443 OFFCURVE",
"375 372 OFFCURVE",
"375 269 QCURVE",
"375 269 LINE"
);
},
{
closed = 1;
nodes = (
"10 750 LINE",
"10 732 LINE",
"65 732 LINE",
"65 18 LINE",
"10 18 LINE",
"10 0 LINE",
"238 0 LINE",
"245 59 LINE",
"255 22 OFFCURVE",
"310 -10 OFFCURVE",
"362 -10 QCURVE SMOOTH",
"465 -10 OFFCURVE",
"568 110 OFFCURVE",
"568 237 QCURVE SMOOTH",
"568 486 OFFCURVE",
"381 486 QCURVE SMOOTH",
"289 486 OFFCURVE",
"251 400 QCURVE",
"251 750 LINE",
"251 750 LINE"
);
}
);
width = 588;
}
);
leftKerningGroup = b;
note = b;
rightKerningGroup = b;
unicode = 0062;
},
{
glyphname = c;
layers = (
{
layerId = "A70DCACA-0340-40F6-B519-7C37231E9414";
paths = (
{
closed = 1;
nodes = (
"338 468 OFFCURVE",
"338 420 QCURVE SMOOTH",
"338 404 OFFCURVE",
"331 384 QCURVE",
"298 384 LINE",
"293 366 OFFCURVE",
"293 348 QCURVE SMOOTH",
"293 307 OFFCURVE",
"341 265 OFFCURVE",
"420 265 OFFCURVE",
"465 313 OFFCURVE",
"465 417 OFFCURVE",
"371 486 OFFCURVE",
"282 486 QCURVE SMOOTH",
"156 486 OFFCURVE",
"15 356 OFFCURVE",
"15 115 OFFCURVE",
"139 -10 OFFCURVE",
"255 -10 QCURVE SMOOTH",
"346 -10 OFFCURVE",
"398 29 QCURVE SMOOTH",
"449 67 OFFCURVE",
"468 153 QCURVE",
"450 155 LINE",
"440 104 OFFCURVE",
"370 24 OFFCURVE",
"252 24 OFFCURVE",
"208 110 OFFCURVE",
"208 209 QCURVE SMOOTH",
"208 261 LINE SMOOTH",
"208 372 OFFCURVE",
"246 468 OFFCURVE",
"290 468 QCURVE",
"290 468 LINE"
);
}
);
width = 483;
}
);
leftKerningGroup = c;
note = c;
rightKerningGroup = c;
unicode = 0063;
},
{
glyphname = d;
layers = (
{
layerId = "A70DCACA-0340-40F6-B519-7C37231E9414";
paths = (
{
closed = 1;
nodes = (
"213 259 LINE SMOOTH",
"213 369 OFFCURVE",
"237 457 OFFCURVE",
"303 457 OFFCURVE",
"337 397 OFFCURVE",
"337 354 QCURVE SMOOTH",
"337 136 LINE SMOOTH",
"337 85 OFFCURVE",
"294 33 OFFCURVE",
"235 33 OFFCURVE",
"213 102 OFFCURVE",
"213 207 QCURVE",
"213 207 LINE"
);
},
{
closed = 1;
nodes = (
"572 0 LINE",
"572 18 LINE",
"523 18 LINE",
"523 750 LINE",
"273 750 LINE",
"273 732 LINE",
"334 732 LINE",
"334 437 LINE",
"306 486 OFFCURVE",
"218 486 QCURVE SMOOTH",
"20 486 OFFCURVE",
"20 237 QCURVE SMOOTH",
"20 114 OFFCURVE",
"115 -10 OFFCURVE",
"201 -10 QCURVE SMOOTH",
"305 -10 OFFCURVE",
"339 70 QCURVE",
"350 0 LINE",
"350 0 LINE"
);
}
);
width = 588;
}
);
leftKerningGroup = d;
note = d;
unicode = 0064;
},
{
glyphname = e;
layers = (
{
layerId = "A70DCACA-0340-40F6-B519-7C37231E9414";
paths = (
{
closed = 1;
nodes = (
"372 -10 OFFCURVE",
"471 70 OFFCURVE",
"490 142 QCURVE",
"472 145 LINE",
"436 21 OFFCURVE",
"320 21 QCURVE SMOOTH",
"258 21 OFFCURVE",
"208 121 OFFCURVE",
"208 219 QCURVE SMOOTH",
"208 258 LINE",
"490 258 LINE",
"499 486 OFFCURVE",
"272 486 QCURVE SMOOTH",
"160 486 OFFCURVE",
"15 360 OFFCURVE",
"15 123 OFFCURVE",
"144 -10 OFFCURVE",
"273 -10 QCURVE",
"273 -10 LINE"
);
},
{
closed = 1;
nodes = (
"209 327 LINE SMOOTH",
"209 404 OFFCURVE",
"236 467 OFFCURVE",
"293 467 OFFCURVE",
"312 408 OFFCURVE",
"312 327 QCURVE SMOOTH",
"312 278 LINE",
"209 278 LINE",
"209 278 LINE"
);
}
);
width = 516;
}
);
leftKerningGroup = c;
note = e;
rightKerningGroup = e;
unicode = 0065;
},
{
glyphname = f;
layers = (
{
layerId = "A70DCACA-0340-40F6-B519-7C37231E9414";
paths = (
{
closed = 1;
nodes = (
"364 756 OFFCURVE",
"344 688 QCURVE",
"306 688 LINE",
"300 664 OFFCURVE",
"300 613 OFFCURVE",
"341 574 OFFCURVE",
"417 574 OFFCURVE",
"463 618 OFFCURVE",
"463 706 OFFCURVE",
"389 773 OFFCURVE",
"304 773 QCURVE SMOOTH",
"175 773 OFFCURVE",
"65 624 OFFCURVE",
"65 480 QCURVE SMOOTH",
"65 476 LINE",
"7 476 LINE",
"7 458 LINE",
"65 458 LINE",
"65 18 LINE",
"10 18 LINE",
"10 0 LINE",
"373 0 LINE",
"373 18 LINE",
"251 18 LINE",
"251 458 LINE",
"383 458 LINE",
"383 476 LINE",
"251 476 LINE",
"251 636 LINE SMOOTH",
"251 699 OFFCURVE",
"275 756 OFFCURVE",
"313 756 QCURVE",
"313 756 LINE"
);
}
);
width = 383;
}
);
leftKerningGroup = f;
note = f;
rightKerningGroup = f;
unicode = 0066;
},
{
glyphname = g;
layers = (
{
layerId = "A70DCACA-0340-40F6-B519-7C37231E9414";
paths = (
{
closed = 1;
nodes = (
"412 503 OFFCURVE",
"445 476 OFFCURVE",
"496 476 OFFCURVE",
"532 509 OFFCURVE",
"532 577 OFFCURVE",
"487 616 OFFCURVE",
"413 616 OFFCURVE",
"353 566 OFFCURVE",
"353 510 QCURVE SMOOTH",
"353 488 OFFCURVE",
"359 461 QCURVE",
"313 486 OFFCURVE",
"248 486 QCURVE SMOOTH",
"140 486 OFFCURVE",
"32 394 OFFCURVE",
"32 319 QCURVE SMOOTH",
"32 200 OFFCURVE",
"148 167 QCURVE",
"84 128 OFFCURVE",
"34 75 OFFCURVE",
"34 -4 OFFCURVE",
"104 -58 OFFCURVE",
"185 -58 QCURVE SMOOTH",
"282 -58 LINE SMOOTH",
"358 -58 OFFCURVE",
"409 -87 OFFCURVE",
"409 -173 OFFCURVE",
"325 -231 OFFCURVE",
"247 -231 QCURVE SMOOTH",
"119 -231 OFFCURVE",
"119 -145 QCURVE SMOOTH",
"119 -119 OFFCURVE",
"127 -90 QCURVE",
"67 -63 LINE",
"-10 -85 OFFCURVE",
"-10 -143 QCURVE SMOOTH",
"-10 -250 OFFCURVE",
"237 -250 QCURVE SMOOTH",
"382 -250 OFFCURVE",
"519 -147 OFFCURVE",
"519 -59 QCURVE SMOOTH",
"519 104 OFFCURVE",
"292 104 QCURVE SMOOTH",
"190 104 LINE SMOOTH",
"126 104 OFFCURVE",
"126 132 OFFCURVE",
"170 160 QCURVE",
"212 152 OFFCURVE",
"251 152 QCURVE SMOOTH",
"345 152 OFFCURVE",
"455 240 OFFCURVE",
"455 399 OFFCURVE",
"379 450 QCURVE",
"372 484 OFFCURVE",
"372 510 QCURVE SMOOTH",
"372 576 OFFCURVE",
"415 576 QCURVE SMOOTH",
"445 576 OFFCURVE",
"439 545 QCURVE",
"411 528 LINE",
"411 528 LINE"
);
},
{
closed = 1;
nodes = (
"199 417 OFFCURVE",
"223 468 OFFCURVE",
"270 468 OFFCURVE",
"290 419 OFFCURVE",
"290 341 QCURVE SMOOTH",
"290 292 LINE SMOOTH",
"290 219 OFFCURVE",
"269 172 OFFCURVE",
"222 172 OFFCURVE",
"199 220 OFFCURVE",
"199 287 QCURVE SMOOTH",
"199 341 LINE",
"199 341 LINE"
);
}
);
width = 522;
}
);
leftKerningGroup = g;
note = g;
rightKerningGroup = g;
unicode = 0067;
},
{
glyphname = h;
layers = (
{
layerId = "A70DCACA-0340-40F6-B519-7C37231E9414";
paths = (
{
closed = 1;
nodes = (
"10 732 LINE",
"65 732 LINE",
"65 18 LINE",
"10 18 LINE",
"10 0 LINE",
"294 0 LINE",
"294 18 LINE",
"251 18 LINE",
"251 294 LINE SMOOTH",
"251 354 OFFCURVE",
"300 438 OFFCURVE",
"332 438 QCURVE SMOOTH",
"353 438 OFFCURVE",
"369 403 OFFCURVE",
"369 343 QCURVE SMOOTH",
"369 18 LINE",
"328 18 LINE",
"328 0 LINE",
"611 0 LINE",
"611 18 LINE",
"555 18 LINE",
"555 319 LINE SMOOTH",
"555 486 OFFCURVE",
"400 486 QCURVE SMOOTH",
"333 486 OFFCURVE",
"267 430 OFFCURVE",
"251 384 QCURVE",
"251 750 LINE",
"10 750 LINE",
"10 750 LINE"
);
}
);
width = 616;
}
);
leftKerningGroup = b;
note = h;
rightKerningGroup = h;
unicode = 0068;
},
{
glyphname = i;
layers = (
{
layerId = "A70DCACA-0340-40F6-B519-7C37231E9414";
paths = (
{
closed = 1;
nodes = (
"260 597 OFFCURVE",
"260 684 OFFCURVE",
"208 731 OFFCURVE",
"108 731 OFFCURVE",
"59 679 OFFCURVE",
"59 599 OFFCURVE",
"104 545 OFFCURVE",
"210 545 OFFCURVE"
);
},
{
closed = 1;
nodes = (
"6 458 LINE",
"65 458 LINE",
"65 18 LINE",
"10 18 LINE",
"10 0 LINE",
"307 0 LINE",
"307 18 LINE",
"251 18 LINE",
"251 476 LINE",
"6 476 LINE",
"6 476 LINE"
);
}
);
width = 317;
}
);
leftKerningGroup = i;
note = i;
rightKerningGroup = i;
unicode = 0069;
},
{
glyphname = j;
layers = (
{
layerId = "A70DCACA-0340-40F6-B519-7C37231E9414";
paths = (
{
closed = 1;
nodes = (
"0 476 LINE",
"0 458 LINE",
"65 458 LINE",
"65 -56 LINE SMOOTH",
"65 -164 OFFCURVE",
"43 -233 OFFCURVE",
"-18 -233 OFFCURVE",
"-41 -195 OFFCURVE",
"-25 -168 QCURVE",
"13 -168 LINE",
"19 -144 OFFCURVE",
"19 -92 OFFCURVE",
"-20 -49 OFFCURVE",
"-98 -49 OFFCURVE",
"-150 -96 OFFCURVE",
"-150 -184 OFFCURVE",
"-73 -250 OFFCURVE",
"10 -250 QCURVE SMOOTH",
"138 -250 OFFCURVE",
"251 -78 OFFCURVE",
"251 86 QCURVE SMOOTH",
"251 476 LINE",
"251 476 LINE"
);
},
{
closed = 1;
nodes = (
"259 597 OFFCURVE",
"259 684 OFFCURVE",
"207 731 OFFCURVE",
"107 731 OFFCURVE",
"58 679 OFFCURVE",
"58 599 OFFCURVE",
"103 545 OFFCURVE",
"209 545 OFFCURVE"
);
}
);
width = 311;
}
);
leftKerningGroup = j;
note = j;
rightKerningGroup = j;
unicode = 006A;
},
{
glyphname = k;
layers = (
{
layerId = "A70DCACA-0340-40F6-B519-7C37231E9414";
paths = (
{
closed = 1;
nodes = (
"615 0 LINE",
"615 18 LINE",
"579 18 LINE",
"406 357 LINE",
"525 458 LINE",
"595 458 LINE",
"595 476 LINE",
"398 476 LINE",
"398 458 LINE",
"492 458 LINE",
"267 271 LINE",
"251 265 LINE",
"251 750 LINE",
"6 750 LINE",
"6 732 LINE",
"65 732 LINE",
"65 18 LINE",
"10 18 LINE",
"10 0 LINE",
"297 0 LINE",
"297 18 LINE",
"251 18 LINE",
"251 245 LINE",
"270 250 LINE",
"383 18 LINE",
"337 18 LINE",
"337 0 LINE",
"337 0 LINE"
);
}
);
width = 620;
}
);
leftKerningGroup = b;
note = k;
rightKerningGroup = k;
unicode = 006B;
},
{
glyphname = l;
layers = (
{
layerId = "A70DCACA-0340-40F6-B519-7C37231E9414";
paths = (
{
closed = 1;
nodes = (
"6 732 LINE",
"65 732 LINE",
"65 18 LINE",
"10 18 LINE",
"10 0 LINE",
"307 0 LINE",
"307 18 LINE",
"251 18 LINE",
"251 750 LINE",
"6 750 LINE",
"6 750 LINE"
);
}
);
width = 316;
}
);
leftKerningGroup = b;
note = l;
rightKerningGroup = l;
unicode = 006C;
},
{
glyphname = m;
layers = (
{
layerId = "A70DCACA-0340-40F6-B519-7C37231E9414";
paths = (
{
closed = 1;
nodes = (
"10 458 LINE",
"65 458 LINE",
"65 18 LINE",
"10 18 LINE",
"10 0 LINE",
"287 0 LINE",
"287 18 LINE",
"251 18 LINE",
"251 294 LINE SMOOTH",
"251 353 OFFCURVE",
"296 438 OFFCURVE",
"324 438 QCURVE SMOOTH",
"334 438 OFFCURVE",
"340 432 QCURVE SMOOTH",
"353 419 OFFCURVE",
"353 343 QCURVE SMOOTH",
"353 18 LINE",
"318 18 LINE",
"318 0 LINE",
"575 0 LINE",
"575 18 LINE",
"539 18 LINE",
"539 300 LINE SMOOTH",
"539 360 OFFCURVE",
"583 438 OFFCURVE",
"612 438 QCURVE SMOOTH",
"622 438 OFFCURVE",
"628 432 QCURVE SMOOTH",
"641 419 OFFCURVE",
"641 343 QCURVE SMOOTH",
"641 18 LINE",
"606 18 LINE",
"606 0 LINE",
"883 0 LINE",
"883 18 LINE",
"827 18 LINE",
"827 319 LINE SMOOTH",
"827 486 OFFCURVE",
"680 486 QCURVE SMOOTH",
"568 486 OFFCURVE",
"533 378 QCURVE",
"509 486 OFFCURVE",
"284 486 OFFCURVE",
"251 384 QCURVE",
"251 476 LINE",
"10 476 LINE",
"10 476 LINE"
);
}
);
width = 888;
}
);
leftKerningGroup = m;
note = m;
rightKerningGroup = h;
unicode = 006D;
},
{
glyphname = n;
layers = (
{
layerId = "A70DCACA-0340-40F6-B519-7C37231E9414";
paths = (
{
closed = 1;
nodes = (
"12 458 LINE",
"67 458 LINE",
"67 18 LINE",
"12 18 LINE",
"12 0 LINE",
"296 0 LINE",
"296 18 LINE",
"253 18 LINE",
"253 294 LINE SMOOTH",
"253 354 OFFCURVE",
"302 438 OFFCURVE",
"334 438 QCURVE SMOOTH",
"355 438 OFFCURVE",
"371 403 OFFCURVE",
"371 343 QCURVE SMOOTH",
"371 18 LINE",
"330 18 LINE",
"330 0 LINE",
"613 0 LINE",
"613 18 LINE",
"557 18 LINE",
"557 319 LINE SMOOTH",
"557 486 OFFCURVE",
"402 486 QCURVE SMOOTH",
"335 486 OFFCURVE",
"269 430 OFFCURVE",
"253 384 QCURVE",
"253 476 LINE",
"12 476 LINE",
"12 476 LINE"
);
}
);
width = 616;
}
);
leftKerningGroup = m;
note = n;
rightKerningGroup = h;
unicode = 006E;
},
{
glyphname = o;
layers = (
{
layerId = "A70DCACA-0340-40F6-B519-7C37231E9414";
paths = (
{
closed = 1;
nodes = (
"333 85 OFFCURVE",
"324 53 QCURVE SMOOTH",
"312 8 OFFCURVE",
"273 8 QCURVE SMOOTH",
"241 8 OFFCURVE",
"230 32 QCURVE SMOOTH",
"223 46 OFFCURVE",
"210 90 OFFCURVE",
"210 199 QCURVE SMOOTH",
"210 277 LINE SMOOTH",
"210 369 OFFCURVE",
"219 414 QCURVE SMOOTH",
"225 443 OFFCURVE",
"252 468 OFFCURVE",
"274 468 QCURVE SMOOTH",
"312 468 OFFCURVE",
"333 379 OFFCURVE",
"333 282 QCURVE SMOOTH",
"333 197 LINE",
"333 197 LINE"
);
},
{
closed = 1;
nodes = (
"525 -10 OFFCURVE",
"525 245 QCURVE SMOOTH",
"525 367 OFFCURVE",
"403 486 OFFCURVE",
"155 486 OFFCURVE",
"18 357 OFFCURVE",
"18 118 OFFCURVE",
"146 -10 OFFCURVE",
"271 -10 QCURVE",
"271 -10 LINE"
);
}
);
width = 543;
}
);
leftKerningGroup = c;
note = o;
rightKerningGroup = e;
unicode = 006F;
},
{
glyphname = p;
layers = (
{
layerId = "A70DCACA-0340-40F6-B519-7C37231E9414";
paths = (
{
closed = 1;
nodes = (
"375 217 LINE SMOOTH",
"375 107 OFFCURVE",
"351 19 OFFCURVE",
"285 19 OFFCURVE",
"251 79 OFFCURVE",
"251 122 QCURVE SMOOTH",
"251 305 LINE SMOOTH",
"251 368 OFFCURVE",
"297 443 OFFCURVE",
"355 443 OFFCURVE",
"375 372 OFFCURVE",
"375 269 QCURVE",
"375 269 LINE"
);
},
{
closed = 1;
nodes = (
"12 476 LINE",
"12 458 LINE",
"65 458 LINE",
"65 -220 LINE",
"10 -220 LINE",
"10 -238 LINE",
"380 -238 LINE",
"380 -220 LINE",
"251 -220 LINE",
"251 39 LINE",
"266 14 OFFCURVE",
"314 -10 OFFCURVE",
"362 -10 QCURVE SMOOTH",
"465 -10 OFFCURVE",
"568 110 OFFCURVE",
"568 362 OFFCURVE",
"473 486 OFFCURVE",
"387 486 QCURVE SMOOTH",
"288 486 OFFCURVE",
"249 397 QCURVE",
"249 476 LINE",
"249 476 LINE"
);
}
);
width = 588;
}
);
leftKerningGroup = m;
note = p;
rightKerningGroup = b;
unicode = 0070;
},
{
glyphname = q;
layers = (
{
layerId = "A70DCACA-0340-40F6-B519-7C37231E9414";
paths = (
{
closed = 1;
nodes = (
"213 259 LINE SMOOTH",
"213 368 OFFCURVE",
"236 457 OFFCURVE",
"271 457 QCURVE SMOOTH",
"302 457 OFFCURVE",
"337 397 OFFCURVE",
"337 354 QCURVE SMOOTH",
"337 168 LINE SMOOTH",
"337 105 OFFCURVE",
"291 33 OFFCURVE",
"233 33 OFFCURVE",
"213 104 OFFCURVE",
"213 207 QCURVE",
"213 207 LINE"
);
},
{
closed = 1;
nodes = (
"235 -220 LINE",
"235 -238 LINE",
"572 -238 LINE",
"572 -220 LINE",
"523 -220 LINE",
"523 458 LINE",
"578 458 LINE",
"578 476 LINE",
"350 476 LINE",
"343 423 LINE",
"309 486 OFFCURVE",
"226 486 QCURVE SMOOTH",
"123 486 OFFCURVE",
"20 366 OFFCURVE",
"20 239 QCURVE SMOOTH",
"20 -10 OFFCURVE",
"207 -10 QCURVE SMOOTH",
"299 -10 OFFCURVE",
"337 76 QCURVE",
"337 -220 LINE",
"337 -220 LINE"
);
}
);
width = 588;
}
);
leftKerningGroup = d;
note = q;
unicode = 0071;
},
{
glyphname = r;
layers = (
{
layerId = "A70DCACA-0340-40F6-B519-7C37231E9414";
paths = (
{
closed = 1;
nodes = (
"390 448 OFFCURVE",
"365 397 QCURVE",
"329 397 LINE",
"313 344 OFFCURVE",
"356 284 OFFCURVE",
"447 284 OFFCURVE",
"491 336 OFFCURVE",
"491 433 OFFCURVE",
"432 486 OFFCURVE",
"338 486 OFFCURVE",
"264 431 OFFCURVE",
"251 380 QCURVE",
"251 476 LINE",
"10 476 LINE",
"10 458 LINE",
"65 458 LINE",
"65 18 LINE",
"10 18 LINE",
"10 0 LINE",
"322 0 LINE",
"322 18 LINE",
"251 18 LINE",
"251 286 LINE SMOOTH",
"251 352 OFFCURVE",
"307 448 OFFCURVE",
"344 448 QCURVE",
"344 448 LINE"
);
}
);
width = 495;
}
);
leftKerningGroup = m;
note = r;
rightKerningGroup = r;
unicode = 0072;
},
{
glyphname = s;
layers = (
{
layerId = "A70DCACA-0340-40F6-B519-7C37231E9414";
paths = (
{
closed = 1;
nodes = (
"45 -10 LINE",
"66 27 OFFCURVE",
"88 27 QCURVE SMOOTH",
"95 27 OFFCURVE",
"107 19 QCURVE",
"165 -10 OFFCURVE",
"227 -10 QCURVE SMOOTH",
"314 -10 OFFCURVE",
"414 77 OFFCURVE",
"414 246 OFFCURVE",
"359 284 QCURVE SMOOTH",
"332 302 OFFCURVE",
"272 327 OFFCURVE",
"204 344 QCURVE SMOOTH",
"198 345 OFFCURVE",
"173 353 OFFCURVE",
"161 358 OFFCURVE",
"143 367 OFFCURVE",
"135 375 OFFCURVE",
"121 392 OFFCURVE",
"121 407 QCURVE SMOOTH",
"121 432 OFFCURVE",
"167 465 OFFCURVE",
"214 465 QCURVE SMOOTH",
"321 465 OFFCURVE",
"372 335 QCURVE",
"384 335 LINE",
"384 488 LINE",
"373 488 LINE",
"363 469 OFFCURVE",
"349 455 OFFCURVE",
"329 455 OFFCURVE",
"310 463 QCURVE SMOOTH",
"258 486 OFFCURVE",
"209 486 QCURVE SMOOTH",
"129 486 OFFCURVE",
"33 393 OFFCURVE",
"33 237 OFFCURVE",
"88 201 QCURVE SMOOTH",
"134 171 OFFCURVE",
"202 153 QCURVE",
"263 141 OFFCURVE",
"302 119 QCURVE SMOOTH",
"327 105 OFFCURVE",
"327 77 QCURVE SMOOTH",
"327 12 OFFCURVE",
"225 12 QCURVE SMOOTH",
"159 12 OFFCURVE",
"71 82 OFFCURVE",
"45 169 QCURVE",
"33 169 LINE",
"33 -10 LINE",
"33 -10 LINE"
);
}
);
width = 434;
}
);
leftKerningGroup = s;
note = s;
rightKerningGroup = s;
unicode = 0073;
},
{
glyphname = t;
layers = (
{
layerId = "A70DCACA-0340-40F6-B519-7C37231E9414";
paths = (
{
closed = 1;
nodes = (
"60 56 OFFCURVE",
"148 -10 OFFCURVE",
"314 -10 OFFCURVE",
"386 71 OFFCURVE",
"394 140 QCURVE",
"377 142 LINE",
"370 90 OFFCURVE",
"325 30 OFFCURVE",
"265 30 OFFCURVE",
"246 74 OFFCURVE",
"246 121 QCURVE SMOOTH",
"246 458 LINE",
"376 458 LINE",
"376 476 LINE",
"246 476 LINE",
"246 651 LINE",
"60 605 LINE",
"60 476 LINE",
"5 476 LINE",
"5 458 LINE",
"60 458 LINE",
"60 143 LINE",
"60 143 LINE"
);
}
);
width = 394;
}
);
leftKerningGroup = t;
note = t;
rightKerningGroup = t;
unicode = 0074;
},
{
glyphname = u;
layers = (
{
layerId = "A70DCACA-0340-40F6-B519-7C37231E9414";
paths = (
{
closed = 1;
nodes = (
"595 18 LINE",
"540 18 LINE",
"540 476 LINE",
"308 476 LINE",
"308 458 LINE",
"354 458 LINE",
"354 152 LINE SMOOTH",
"354 97 OFFCURVE",
"314 35 OFFCURVE",
"263 35 OFFCURVE",
"246 73 OFFCURVE",
"246 133 QCURVE SMOOTH",
"246 476 LINE",
"4 476 LINE",
"4 458 LINE",
"60 458 LINE",
"60 157 LINE SMOOTH",
"60 -10 OFFCURVE",
"215 -10 QCURVE SMOOTH",
"277 -10 OFFCURVE",
"340 33 OFFCURVE",
"356 73 QCURVE",
"367 0 LINE",
"595 0 LINE",
"595 0 LINE"
);
}
);
width = 605;
}
);
leftKerningGroup = u;
note = u;
rightKerningGroup = u;
unicode = 0075;
},
{
glyphname = v;
layers = (
{
layerId = "A70DCACA-0340-40F6-B519-7C37231E9414";
paths = (
{
closed = 1;
nodes = (
"41 458 LINE",
"226 0 LINE",
"340 0 LINE",
"488 458 LINE",
"532 458 LINE",
"532 476 LINE",
"397 476 LINE",
"397 458 LINE",
"464 458 LINE",
"356 126 LINE",
"236 458 LINE",
"299 458 LINE",
"299 476 LINE",
"0 476 LINE",
"0 458 LINE",
"0 458 LINE"
);
}
);
width = 532;
}
);
leftKerningGroup = v;
note = v;
rightKerningGroup = v;
unicode = 0076;
},
{
glyphname = w;
layers = (
{
layerId = "A70DCACA-0340-40F6-B519-7C37231E9414";
paths = (
{
closed = 1;
nodes = (
"389 458 LINE",
"414 352 LINE",
"342 118 LINE",
"250 458 LINE",
"310 458 LINE",
"310 476 LINE",
"7 476 LINE",
"7 458 LINE",
"52 458 LINE",
"200 0 LINE",
"334 0 LINE",
"428 307 LINE",
"515 0 LINE",
"652 0 LINE",
"772 458 LINE",
"814 458 LINE",
"814 476 LINE",
"679 476 LINE",
"679 458 LINE",
"748 458 LINE",
"659 121 LINE",
"569 458 LINE",
"610 458 LINE",
"610 476 LINE",
"352 476 LINE",
"352 458 LINE",
"352 458 LINE"
);
}
);
width = 834;
}
);
leftKerningGroup = w;
note = w;
rightKerningGroup = w;
unicode = 0077;
},
{
glyphname = x;
layers = (
{
layerId = "A70DCACA-0340-40F6-B519-7C37231E9414";
paths = (
{
closed = 1;
nodes = (
"268 458 LINE",
"338 458 LINE",
"338 476 LINE",
"0 476 LINE",
"0 458 LINE",
"58 458 LINE",
"210 218 LINE",
"83 18 LINE",
"17 18 LINE",
"17 0 LINE",
"174 0 LINE",
"174 18 LINE",
"108 18 LINE",
"222 198 LINE",
"332 18 LINE",
"261 18 LINE",
"261 0 LINE",
"595 0 LINE",
"595 18 LINE",
"543 18 LINE",
"380 274 LINE",
"510 458 LINE",
"562 458 LINE",
"562 476 LINE",
"413 476 LINE",
"413 458 LINE",
"485 458 LINE",
"367 295 LINE",
"367 295 LINE"
);
}
);
width = 595;
}
);
note = x;
unicode = 0078;
},
{
glyphname = y;
layers = (
{
layerId = "A70DCACA-0340-40F6-B519-7C37231E9414";
paths = (
{
closed = 1;
nodes = (
"46 458 LINE",
"217 0 LINE",
"305 0 LINE",
"283 -62 LINE SMOOTH",
"254 -145 OFFCURVE",
"190 -226 OFFCURVE",
"149 -226 QCURVE SMOOTH",
"128 -226 OFFCURVE",
"116 -196 OFFCURVE",
"124 -173 QCURVE",
"159 -173 LINE",
"165 -152 OFFCURVE",
"165 -137 QCURVE SMOOTH",
"165 -68 OFFCURVE",
"82 -68 QCURVE SMOOTH",
"46 -68 OFFCURVE",
"2 -112 OFFCURVE",
"2 -196 OFFCURVE",
"70 -250 OFFCURVE",
"188 -250 OFFCURVE",
"270 -175 OFFCURVE",
"303 -81 QCURVE SMOOTH",
"490 458 LINE",
"540 458 LINE",
"540 476 LINE",
"399 476 LINE",
"399 458 LINE",
"466 458 LINE",
"350 126 LINE",
"241 458 LINE",
"295 458 LINE",
"295 476 LINE",
"5 476 LINE",
"5 458 LINE",
"5 458 LINE"
);
}
);
width = 532;
}
);
leftKerningGroup = v;
note = y;
rightKerningGroup = v;
unicode = 0079;
},
{
glyphname = z;
layers = (
{
layerId = "A70DCACA-0340-40F6-B519-7C37231E9414";
paths = (
{
closed = 1;
nodes = (
"55 476 LINE",
"42 284 LINE",
"55 284 LINE",
"86 392 OFFCURVE",
"165 458 OFFCURVE",
"266 458 QCURVE SMOOTH",
"277 458 LINE",
"36 15 LINE",
"36 0 LINE",
"456 0 LINE",
"472 205 LINE",
"458 205 LINE",
"431 106 OFFCURVE",
"335 18 OFFCURVE",
"251 18 QCURVE SMOOTH",
"238 18 LINE",
"475 458 LINE",
"475 476 LINE",
"475 476 LINE"
);
}
);
width = 520;
}
);
leftKerningGroup = z;
note = z;
rightKerningGroup = z;
unicode = 007A;
},
{
glyphname = braceleft;
layers = (
{
layerId = "A70DCACA-0340-40F6-B519-7C37231E9414";
paths = (
{
closed = 1;
nodes = (
"24 308 LINE",
"118 306 OFFCURVE",
"118 192 QCURVE SMOOTH",
"118 152 OFFCURVE",
"89 1 OFFCURVE",
"89 -15 QCURVE SMOOTH",
"89 -160 OFFCURVE",
"291 -160 QCURVE SMOOTH",
"340 -160 OFFCURVE",
"377 -144 QCURVE",
"372 -128 LINE",
"350 -136 OFFCURVE",
"328 -136 QCURVE SMOOTH",
"269 -136 OFFCURVE",
"269 -75 QCURVE SMOOTH",
"269 -42 OFFCURVE",
"297 149 OFFCURVE",
"297 180 QCURVE SMOOTH",
"297 251 OFFCURVE",
"216 310 OFFCURVE",
"127 317 QCURVE",
"127 319 LINE",
"220 324 OFFCURVE",
"297 381 OFFCURVE",
"297 450 QCURVE SMOOTH",
"297 484 OFFCURVE",
"269 663 OFFCURVE",
"269 693 QCURVE SMOOTH",
"269 758 OFFCURVE",
"323 758 QCURVE SMOOTH",
"342 758 OFFCURVE",
"363 751 QCURVE",
"368 767 LINE",
"333 780 OFFCURVE",
"276 780 QCURVE SMOOTH",
"89 780 OFFCURVE",
"89 643 QCURVE SMOOTH",
"89 623 OFFCURVE",
"118 482 OFFCURVE",
"118 441 QCURVE SMOOTH",
"118 326 OFFCURVE",
"24 324 QCURVE",
"24 324 LINE"
);
}
);
width = 377;
}
);
note = braceleft;
unicode = 007B;
},
{
glyphname = bar;
layers = (
{
layerId = "A70DCACA-0340-40F6-B519-7C37231E9414";
paths = (
{
closed = 1;
nodes = (
"179 -127 LINE",
"179 795 LINE",
"140 795 LINE",
"140 -127 LINE",
"140 -127 LINE"
);
}
);
width = 319;
}
);
note = bar;
unicode = 007C;
},
{
glyphname = braceright;
layers = (
{
layerId = "A70DCACA-0340-40F6-B519-7C37231E9414";
paths = (
{
closed = 1;
nodes = (
"259 326 OFFCURVE",
"259 441 QCURVE SMOOTH",
"259 482 OFFCURVE",
"288 623 OFFCURVE",
"288 643 QCURVE SMOOTH",
"288 780 OFFCURVE",
"101 780 QCURVE SMOOTH",
"44 780 OFFCURVE",
"9 767 QCURVE",
"14 751 LINE",
"35 758 OFFCURVE",
"54 758 QCURVE SMOOTH",
"108 758 OFFCURVE",
"108 693 QCURVE SMOOTH",
"108 663 OFFCURVE",
"80 484 OFFCURVE",
"80 450 QCURVE SMOOTH",
"80 381 OFFCURVE",
"157 324 OFFCURVE",
"250 319 QCURVE",
"250 317 LINE",
"161 310 OFFCURVE",
"80 251 OFFCURVE",
"80 180 QCURVE SMOOTH",
"80 149 OFFCURVE",
"108 -42 OFFCURVE",
"108 -69 QCURVE SMOOTH",
"108 -136 OFFCURVE",
"52 -136 QCURVE SMOOTH",
"27 -136 OFFCURVE",
"5 -128 QCURVE",
"0 -144 LINE",
"37 -160 OFFCURVE",
"86 -160 QCURVE SMOOTH",
"288 -160 OFFCURVE",
"288 -15 QCURVE SMOOTH",
"288 1 OFFCURVE",
"259 152 OFFCURVE",
"259 192 QCURVE SMOOTH",
"259 306 OFFCURVE",
"353 308 QCURVE",
"353 324 LINE",
"353 324 LINE"
);
}
);
width = 377;
}
);
note = braceright;
unicode = 007D;
},
{
glyphname = asciitilde;
layers = (
{
layerId = "A70DCACA-0340-40F6-B519-7C37231E9414";
paths = (
{
closed = 1;
nodes = (
"130 398 OFFCURVE",
"78 316 OFFCURVE",
"60 240 QCURVE",
"72 235 LINE",
"94 278 OFFCURVE",
"144 278 QCURVE SMOOTH",
"175 278 OFFCURVE",
"335 237 OFFCURVE",
"417 237 OFFCURVE",
"464 299 OFFCURVE",
"490 398 QCURVE",
"478 401 LINE",
"466 376 OFFCURVE",
"439 358 OFFCURVE",
"381 358 OFFCURVE",
"211 398 OFFCURVE",
"179 398 QCURVE",
"179 398 LINE"
);
}
);
width = 530;
}
);
note = asciitilde;
unicode = 007E;
},
{
glyphname = exclamdown;
layers = (
{
layerId = "A70DCACA-0340-40F6-B519-7C37231E9414";
paths = (
{
closed = 1;
nodes = (
"178 126 OFFCURVE",
"113 -111 OFFCURVE",
"113 -197 OFFCURVE",
"160 -235 OFFCURVE",
"194 -235 QCURVE SMOOTH",
"270 -235 OFFCURVE",
"270 -154 QCURVE SMOOTH",
"270 -107 OFFCURVE",
"200 127 OFFCURVE",
"200 213 QCURVE SMOOTH",
"200 298 LINE",
"178 298 LINE",
"178 212 LINE",
"178 212 LINE"
);
},
{
closed = 1;
nodes = (
"263 372 OFFCURVE",
"263 444 OFFCURVE",
"223 486 OFFCURVE",
"148 486 OFFCURVE",
"111 443 OFFCURVE",
"111 378 OFFCURVE",
"151 335 OFFCURVE",
"221 335 OFFCURVE"
);
}
);
width = 377;
}
);
note = exclamdown;
unicode = 00A1;
},
{
glyphname = cent;
layers = (
{
layerId = "A70DCACA-0340-40F6-B519-7C37231E9414";
paths = (
{
closed = 1;
nodes = (
"334 511 OFFCURVE",
"368 488 OFFCURVE",
"368 451 OFFCURVE",
"362 433 QCURVE",
"331 433 LINE",
"326 417 OFFCURVE",
"326 400 QCURVE SMOOTH",
"326 325 OFFCURVE",
"476 325 OFFCURVE",
"476 410 QCURVE SMOOTH",
"476 456 OFFCURVE",
"407 519 OFFCURVE",
"343 526 QCURVE",
"366 630 LINE",
"338 635 LINE",
"314 528 LINE",
"305 528 LINE SMOOTH",
"187 528 OFFCURVE",
"54 409 OFFCURVE",
"54 296 QCURVE SMOOTH",
"54 125 OFFCURVE",
"194 85 QCURVE",
"171 -20 LINE",
"199 -26 LINE",
"222 79 LINE",
"246 75 OFFCURVE",
"279 75 QCURVE SMOOTH",
"391 75 OFFCURVE",
"434 130 QCURVE SMOOTH",
"467 170 OFFCURVE",
"479 224 QCURVE",
"460 228 LINE",
"451 181 OFFCURVE",
"387 108 OFFCURVE",
"276 108 OFFCURVE",
"232 186 OFFCURVE",
"232 275 QCURVE SMOOTH",
"232 322 LINE SMOOTH",
"232 422 OFFCURVE",
"271 511 OFFCURVE",
"312 511 QCURVE",
"312 511 LINE"
);
}
);
width = 515;
}
);
note = cent;
unicode = 00A2;
},
{
glyphname = sterling;
layers = (
{
layerId = "A70DCACA-0340-40F6-B519-7C37231E9414";
paths = (
{
closed = 1;
nodes = (
"125 298 LINE",
"153 238 OFFCURVE",
"153 151 OFFCURVE",
"131 108 QCURVE",
"84 107 OFFCURVE",
"23 64 OFFCURVE",
"23 33 QCURVE SMOOTH",
"23 15 OFFCURVE",
"46 -11 OFFCURVE",
"108 -11 OFFCURVE",
"157 35 OFFCURVE",
"163 80 QCURVE",
"315 8 LINE SMOOTH",
"370 -19 OFFCURVE",
"472 -19 OFFCURVE",
"547 90 OFFCURVE",
"551 186 QCURVE",
"530 187 LINE",
"526 134 OFFCURVE",
"502 95 OFFCURVE",
"459 95 OFFCURVE",
"337 160 OFFCURVE",
"302 160 QCURVE SMOOTH",
"251 160 OFFCURVE",
"156 96 QCURVE",
"153 101 LINE",
"205 152 OFFCURVE",
"245 217 OFFCURVE",
"245 268 QCURVE SMOOTH",
"245 298 LINE",
"421 298 LINE",
"421 326 LINE",
"245 326 LINE",
"245 530 LINE SMOOTH",
"245 621 OFFCURVE",
"274 692 OFFCURVE",
"329 692 QCURVE SMOOTH",
"402 692 OFFCURVE",
"402 622 QCURVE SMOOTH",
"402 604 OFFCURVE",
"396 588 QCURVE",
"365 588 LINE",
"357 567 OFFCURVE",
"357 508 OFFCURVE",
"407 465 OFFCURVE",
"489 465 OFFCURVE",
"534 518 OFFCURVE",
"534 558 QCURVE SMOOTH",
"534 625 OFFCURVE",
"421 711 OFFCURVE",
"193 711 OFFCURVE",
"50 602 OFFCURVE",
"50 503 QCURVE SMOOTH",
"50 470 OFFCURVE",
"72 400 OFFCURVE",
"93 360 OFFCURVE",
"113 326 QCURVE",
"36 326 LINE",
"36 298 LINE",
"36 298 LINE"
);
}
);
width = 581;
}
);
note = sterling;
unicode = 00A3;
},
{
glyphname = currency;
layers = (
{
layerId = "A70DCACA-0340-40F6-B519-7C37231E9414";
paths = (
{
closed = 1;
nodes = (
"55 147 LINE",
"73 129 LINE",
"162 203 LINE",
"201 176 OFFCURVE",
"318 176 OFFCURVE",
"355 205 QCURVE",
"449 128 LINE",
"467 145 LINE",
"392 243 LINE",
"422 290 OFFCURVE",
"422 399 OFFCURVE",
"394 441 QCURVE",
"469 526 LINE",
"452 542 LINE",
"362 473 LINE",
"324 503 OFFCURVE",
"206 503 OFFCURVE",
"160 472 QCURVE",
"70 543 LINE",
"51 525 LINE",
"128 436 LINE",
"99 392 OFFCURVE",
"99 277 OFFCURVE",
"127 236 QCURVE",
"127 236 LINE"
);
},
{
closed = 1;
nodes = (
"383 400 OFFCURVE",
"383 283 OFFCURVE",
"320 207 OFFCURVE",
"197 207 OFFCURVE",
"138 280 OFFCURVE",
"138 398 OFFCURVE",
"200 474 OFFCURVE",
"322 474 OFFCURVE"
);
}
);
width = 530;
}
);
note = currency;
unicode = 00A4;
},
{
glyphname = yen;
layers = (
{
layerId = "A70DCACA-0340-40F6-B519-7C37231E9414";
paths = (
{
closed = 1;
nodes = (
"251 684 LINE",
"316 684 LINE",
"316 700 LINE",
"-4 700 LINE",
"-4 684 LINE",
"43 684 LINE",
"199 377 LINE",
"99 377 LINE",
"99 349 LINE",
"213 349 LINE",
"213 276 LINE",
"99 276 LINE",
"99 248 LINE",
"213 248 LINE",
"213 19 LINE",
"152 19 LINE",
"152 0 LINE",
"469 0 LINE",
"469 19 LINE",
"408 19 LINE",
"408 248 LINE",
"528 248 LINE",
"528 276 LINE",
"408 276 LINE",
"408 349 LINE",
"528 349 LINE",
"528 377 LINE",
"411 377 LINE",
"559 684 LINE",
"625 684 LINE",
"625 700 LINE",
"428 700 LINE",
"428 684 LINE",
"529 684 LINE",
"387 391 LINE",
"387 391 LINE"
);
}
);
width = 609;
}
);
note = yen;
unicode = 00A5;
},
{
glyphname = brokenbar;
layers = (
{
layerId = "A70DCACA-0340-40F6-B519-7C37231E9414";
paths = (
{
closed = 1;
nodes = (
"179 412 LINE",
"179 795 LINE",
"140 795 LINE",
"140 412 LINE",
"140 412 LINE"
);
},
{
closed = 1;
nodes = (
"179 -127 LINE",
"179 310 LINE",
"140 310 LINE",
"140 -127 LINE",
"140 -127 LINE"
);
}
);
width = 319;
}
);
note = brokenbar;
unicode = 00A6;
},
{
glyphname = section;
layers = (
{
layerId = "A70DCACA-0340-40F6-B519-7C37231E9414";
paths = (
{
closed = 1;
nodes = (
"223 159 OFFCURVE",
"347 112 OFFCURVE",
"433 94 QCURVE",
"430 -5 OFFCURVE",
"381 -108 OFFCURVE",
"315 -108 QCURVE SMOOTH",
"236 -108 OFFCURVE",
"236 -58 QCURVE SMOOTH",
"236 -38 OFFCURVE",
"242 -22 QCURVE",
"278 -14 LINE",
"286 7 OFFCURVE",
"286 66 OFFCURVE",
"236 109 OFFCURVE",
"154 109 OFFCURVE",
"109 56 OFFCURVE",
"109 16 QCURVE SMOOTH",
"109 -50 OFFCURVE",
"216 -127 OFFCURVE",
"445 -127 OFFCURVE",
"619 25 OFFCURVE",
"619 313 OFFCURVE",
"516 388 QCURVE SMOOTH",
"465 425 OFFCURVE",
"341 472 OFFCURVE",
"255 490 QCURVE",
"259 584 OFFCURVE",
"280 634 QCURVE SMOOTH",
"306 692 OFFCURVE",
"374 692 QCURVE SMOOTH",
"453 692 OFFCURVE",
"453 642 QCURVE SMOOTH",
"453 622 OFFCURVE",
"447 606 QCURVE",
"411 598 LINE",
"403 577 OFFCURVE",
"403 518 OFFCURVE",
"453 475 OFFCURVE",
"535 475 OFFCURVE",
"580 528 OFFCURVE",
"580 568 QCURVE SMOOTH",
"580 634 OFFCURVE",
"473 711 OFFCURVE",
"244 711 OFFCURVE",
"70 559 OFFCURVE",
"70 270 OFFCURVE",
"172 196 QCURVE",
"172 196 LINE"
);
},
{
closed = 1;
nodes = (
"434 118 LINE",
"335 157 OFFCURVE",
"255 304 OFFCURVE",
"255 429 QCURVE SMOOTH",
"255 465 LINE",
"353 426 OFFCURVE",
"434 280 OFFCURVE",
"434 155 QCURVE",
"434 155 LINE"
);
}
);
width = 699;
}
);
note = section;
unicode = 00A7;
},
{
glyphname = dieresis;
layers = (
{
layerId = "A70DCACA-0340-40F6-B519-7C37231E9414";
paths = (
{
closed = 1;
nodes = (
"401 543 OFFCURVE",
"440 584 OFFCURVE",
"440 654 OFFCURVE",
"399 691 OFFCURVE",
"330 691 OFFCURVE",
"291 649 OFFCURVE",
"291 587 OFFCURVE",
"327 543 OFFCURVE"
);
},
{
closed = 1;
nodes = (
"208 543 OFFCURVE",
"247 584 OFFCURVE",
"247 654 OFFCURVE",
"206 691 OFFCURVE",
"137 691 OFFCURVE",
"98 649 OFFCURVE",
"98 587 OFFCURVE",
"134 543 OFFCURVE"
);
}
);
width = 500;
}
);
note = dieresis;
unicode = 00A8;
},
{
glyphname = copyright;
layers = (
{
layerId = "A70DCACA-0340-40F6-B519-7C37231E9414";
paths = (
{
closed = 1;
nodes = (
"60 457 OFFCURVE",
"60 163 OFFCURVE",
"231 -11 OFFCURVE",
"539 -11 OFFCURVE",
"721 168 OFFCURVE",
"721 465 OFFCURVE",
"544 636 OFFCURVE",
"250 636 OFFCURVE"
);
},
{
closed = 1;
nodes = (
"86 168 OFFCURVE",
"86 450 OFFCURVE",
"258 614 OFFCURVE",
"528 614 OFFCURVE",
"696 458 OFFCURVE",
"696 174 OFFCURVE",
"531 12 OFFCURVE",
"247 12 OFFCURVE"
);
},
{
closed = 1;
nodes = (
"531 390 LINE",
"528 509 LINE",
"519 509 LINE",
"518 508 OFFCURVE",
"514 500 OFFCURVE",
"512 497 OFFCURVE",
"508 494 OFFCURVE",
"503 494 OFFCURVE",
"438 514 OFFCURVE",
"411 514 QCURVE SMOOTH",
"318 514 OFFCURVE",
"208 412 OFFCURVE",
"208 219 OFFCURVE",
"314 122 OFFCURVE",
"407 122 QCURVE SMOOTH",
"438 122 OFFCURVE",
"473 132 QCURVE SMOOTH",
"508 143 LINE",
"512 143 OFFCURVE",
"516 140 QCURVE",
"517 138 OFFCURVE",
"520 130 OFFCURVE",
"522 128 QCURVE",
"532 128 LINE",
"536 247 LINE",
"524 247 LINE",
"508 202 OFFCURVE",
"452 140 OFFCURVE",
"378 140 OFFCURVE",
"352 215 OFFCURVE",
"352 426 OFFCURVE",
"379 496 OFFCURVE",
"444 496 OFFCURVE",
"501 436 OFFCURVE",
"517 390 QCURVE",
"517 390 LINE"
);
}
);
width = 781;
}
);
note = copyright;
unicode = 00A9;
},
{
glyphname = ordfeminine;
layers = (
{
layerId = "A70DCACA-0340-40F6-B519-7C37231E9414";
paths = (
{
closed = 1;
nodes = (
"115 568 OFFCURVE",
"27 531 OFFCURVE",
"27 480 QCURVE SMOOTH",
"27 394 OFFCURVE",
"142 394 QCURVE SMOOTH",
"181 394 OFFCURVE",
"221 420 OFFCURVE",
"230 447 QCURVE",
"245 394 OFFCURVE",
"337 394 QCURVE SMOOTH",
"388 394 OFFCURVE",
"433 441 OFFCURVE",
"435 503 QCURVE",
"422 505 LINE",
"419 463 OFFCURVE",
"405 435 OFFCURVE",
"393 435 QCURVE SMOOTH",
"371 435 OFFCURVE",
"371 472 QCURVE SMOOTH",
"371 612 LINE SMOOTH",
"371 689 OFFCURVE",
"301 747 OFFCURVE",
"209 747 QCURVE SMOOTH",
"47 747 OFFCURVE",
"47 659 QCURVE SMOOTH",
"47 600 OFFCURVE",
"114 600 QCURVE SMOOTH",
"143 600 OFFCURVE",
"182 631 OFFCURVE",
"182 670 OFFCURVE",
"176 688 QCURVE",
"156 688 LINE",
"152 699 OFFCURVE",
"152 708 QCURVE SMOOTH",
"152 733 OFFCURVE",
"188 733 QCURVE SMOOTH",
"211 733 OFFCURVE",
"227 690 OFFCURVE",
"227 623 QCURVE SMOOTH",
"227 568 LINE",
"205 568 LINE",
"205 568 LINE"
);
},
{
closed = 1;
nodes = (
"174 492 LINE SMOOTH",
"174 525 OFFCURVE",
"197 553 OFFCURVE",
"222 553 QCURVE SMOOTH",
"227 553 LINE",
"227 491 LINE SMOOTH",
"227 462 OFFCURVE",
"206 426 OFFCURVE",
"182 426 OFFCURVE",
"174 447 OFFCURVE",
"174 481 QCURVE",
"174 481 LINE"
);
}
);
width = 454;
}
);
note = ordfeminine;
unicode = 00AA;
},
{
glyphname = guillemotleft;
layers = (
{
layerId = "A70DCACA-0340-40F6-B519-7C37231E9414";
paths = (
{
closed = 1;
nodes = (
"226 242 OFFCURVE",
"226 205 OFFCURVE",
"256 179 QCURVE SMOOTH",
"415 49 LINE",
"424 56 LINE",
"339 231 LINE",
"425 394 LINE",
"416 401 LINE",
"239 263 LINE",
"239 263 LINE"
);
},
{
closed = 1;
nodes = (
"50 242 OFFCURVE",
"50 205 OFFCURVE",
"80 179 QCURVE SMOOTH",
"239 49 LINE",
"248 56 LINE",
"163 231 LINE",
"249 394 LINE",
"240 401 LINE",
"63 263 LINE",
"63 263 LINE"
);
}
);
width = 494;
}
);
leftKerningGroup = guillemotleft;
note = guillemotleft;
rightKerningGroup = guillemotleft;
unicode = 00AB;
},
{
glyphname = logicalnot;
layers = (
{
layerId = "A70DCACA-0340-40F6-B519-7C37231E9414";
paths = (
{
closed = 1;
nodes = (
"492 167 LINE",
"492 334 LINE",
"38 334 LINE",
"38 301 LINE",
"457 301 LINE",
"457 167 LINE",
"457 167 LINE"
);
}
);
width = 530;
}
);
note = logicalnot;
unicode = 00AC;
},
{
glyphname = uni00AD;
layers = (
{
layerId = "A70DCACA-0340-40F6-B519-7C37231E9414";
paths = (
{
closed = 1;
nodes = (
"299 278 LINE",
"299 308 LINE",
"47 308 LINE",
"47 278 LINE",
"47 278 LINE"
);
}
);
width = 340;
}
);
leftKerningGroup = hyphen;
note = uni00AD;
rightKerningGroup = hyphen;
unicode = 00AD;
},
{
glyphname = registered;
layers = (
{
layerId = "A70DCACA-0340-40F6-B519-7C37231E9414";
paths = (
{
closed = 1;
nodes = (
"40 559 OFFCURVE",
"40 393 OFFCURVE",
"138 292 OFFCURVE",
"313 292 OFFCURVE",
"419 396 OFFCURVE",
"419 563 OFFCURVE",
"317 662 OFFCURVE",
"149 662 OFFCURVE"
);
},
{
closed = 1;
nodes = (
"66 399 OFFCURVE",
"66 551 OFFCURVE",
"157 641 OFFCURVE",
"302 641 OFFCURVE",
"394 554 OFFCURVE",
"394 402 OFFCURVE",
"305 314 OFFCURVE",
"152 314 OFFCURVE"
);
},
{
closed = 1;
nodes = (
"238 482 OFFCURVE",
"246 469 OFFCURVE",
"246 450 QCURVE SMOOTH",
"246 421 LINE SMOOTH",
"246 384 OFFCURVE",
"295 384 QCURVE SMOOTH",
"324 384 OFFCURVE",
"346 407 OFFCURVE",
"349 433 QCURVE",
"341 434 LINE",
"337 400 OFFCURVE",
"323 400 QCURVE SMOOTH",
"314 400 OFFCURVE",
"314 416 QCURVE SMOOTH",
"314 439 LINE SMOOTH",
"314 463 OFFCURVE",
"286 484 OFFCURVE",
"248 486 QCURVE",
"248 487 LINE",
"312 492 OFFCURVE",
"312 534 QCURVE SMOOTH",
"312 561 OFFCURVE",
"275 579 OFFCURVE",
"236 579 QCURVE SMOOTH",
"132 579 LINE",
"132 571 LINE",
"154 571 LINE",
"154 395 LINE",
"132 395 LINE",
"132 387 LINE",
"231 387 LINE",
"231 395 LINE",
"223 395 LINE",
"223 482 LINE",
"226 482 LINE",
"226 482 LINE"
);
},
{
closed = 1;
nodes = (
"228 571 LINE SMOOTH",
"243 571 OFFCURVE",
"252 554 OFFCURVE",
"252 510 OFFCURVE",
"242 492 OFFCURVE",
"226 492 QCURVE SMOOTH",
"223 492 LINE",
"223 571 LINE",
"223 571 LINE"
);
}
);
width = 459;
}
);
note = registered;
unicode = 00AE;
},
{
glyphname = macron;
layers = (
{
layerId = "A70DCACA-0340-40F6-B519-7C37231E9414";
paths = (
{
closed = 1;
nodes = (
"386 552 LINE",
"386 647 LINE",
"114 647 LINE",
"114 552 LINE",
"114 552 LINE"
);
}
);
width = 500;
}
);
note = macron;
unicode = 00AF;
},
{
glyphname = degree;
layers = (
{
layerId = "A70DCACA-0340-40F6-B519-7C37231E9414";
paths = (
{
closed = 1;
nodes = (
"205 719 OFFCURVE",
"254 669 OFFCURVE",
"254 587 OFFCURVE",
"206 535 OFFCURVE",
"122 535 OFFCURVE",
"76 586 OFFCURVE",
"76 668 OFFCURVE",
"123 719 OFFCURVE"
);
},
{
closed = 1;
nodes = (
"289 576 OFFCURVE",
"289 683 OFFCURVE",
"226 747 OFFCURVE",
"107 747 OFFCURVE",
"40 678 OFFCURVE",
"40 573 OFFCURVE",
"103 506 OFFCURVE",
"223 506 OFFCURVE"
);
}
);
width = 329;
}
);
note = degree;
unicode = 00B0;
},
{
glyphname = plusminus;
layers = (
{
layerId = "A70DCACA-0340-40F6-B519-7C37231E9414";
paths = (
{
closed = 1;
nodes = (
"492 334 LINE",
"280 334 LINE",
"280 510 LINE",
"242 510 LINE",
"242 334 LINE",
"38 334 LINE",
"38 301 LINE",
"242 301 LINE",
"242 112 LINE",
"280 112 LINE",
"280 301 LINE",
"492 301 LINE",
"492 301 LINE"
);
},
{
closed = 1;
nodes = (
"492 33 LINE",
"38 33 LINE",
"38 0 LINE",
"492 0 LINE",
"492 0 LINE"
);
}
);
width = 530;
}
);
note = plusminus;
unicode = 00B1;
},
{
glyphname = twosuperior;
layers = (
{
layerId = "A70DCACA-0340-40F6-B519-7C37231E9414";
paths = (
{
closed = 1;
nodes = (
"50 698 OFFCURVE",
"81 664 OFFCURVE",
"134 664 OFFCURVE",
"165 691 OFFCURVE",
"165 728 OFFCURVE",
"160 743 QCURVE",
"140 743 LINE",
"129 769 OFFCURVE",
"156 805 OFFCURVE",
"211 805 OFFCURVE",
"230 766 OFFCURVE",
"230 662 OFFCURVE",
"184 579 OFFCURVE",
"121 529 QCURVE SMOOTH",
"57 478 LINE",
"57 394 LINE",
"361 394 LINE",
"368 571 LINE",
"353 571 LINE",
"345 533 OFFCURVE",
"310 496 OFFCURVE",
"267 496 QCURVE SMOOTH",
"107 496 LINE",
"145 516 LINE SMOOTH",
"271 583 OFFCURVE",
"355 659 OFFCURVE",
"355 769 OFFCURVE",
"269 823 OFFCURVE",
"127 823 OFFCURVE",
"50 766 OFFCURVE",
"50 724 QCURVE",
"50 724 LINE"
);
}
);
width = 417;
}
);
note = twosuperior;
unicode = 00B2;
},
{
glyphname = threesuperior;
layers = (
{
layerId = "A70DCACA-0340-40F6-B519-7C37231E9414";
paths = (
{
closed = 1;
nodes = (
"134 819 OFFCURVE",
"58 768 OFFCURVE",
"58 728 QCURVE SMOOTH",
"58 703 OFFCURVE",
"87 670 OFFCURVE",
"139 670 OFFCURVE",
"172 697 OFFCURVE",
"172 730 OFFCURVE",
"166 746 QCURVE",
"150 746 LINE",
"146 757 OFFCURVE",
"146 768 QCURVE SMOOTH",
"146 804 OFFCURVE",
"189 804 QCURVE SMOOTH",
"212 804 OFFCURVE",
"229 764 OFFCURVE",
"229 662 OFFCURVE",
"198 623 OFFCURVE",
"144 618 QCURVE",
"146 600 LINE",
"183 605 OFFCURVE",
"200 608 QCURVE",
"224 597 OFFCURVE",
"247 554 OFFCURVE",
"247 455 OFFCURVE",
"223 402 OFFCURVE",
"187 402 QCURVE SMOOTH",
"165 402 OFFCURVE",
"137 421 OFFCURVE",
"137 447 OFFCURVE",
"143 459 QCURVE",
"158 459 LINE",
"164 475 OFFCURVE",
"164 509 OFFCURVE",
"133 535 OFFCURVE",
"81 535 OFFCURVE",
"49 499 OFFCURVE",
"49 474 QCURVE SMOOTH",
"49 386 OFFCURVE",
"189 386 QCURVE SMOOTH",
"274 386 OFFCURVE",
"371 453 OFFCURVE",
"371 558 OFFCURVE",
"298 617 OFFCURVE",
"221 622 QCURVE",
"221 623 LINE",
"283 633 OFFCURVE",
"349 684 OFFCURVE",
"349 723 QCURVE SMOOTH",
"349 819 OFFCURVE",
"203 819 QCURVE",
"203 819 LINE"
);
}
);
width = 422;
}
);
note = threesuperior;
unicode = 00B3;
},
{
glyphname = acute;
layers = (
{
layerId = "A70DCACA-0340-40F6-B519-7C37231E9414";
paths = (
{
closed = 1;
nodes = (
"174 525 LINE",
"308 636 LINE SMOOTH",
"337 662 OFFCURVE",
"337 711 OFFCURVE",
"304 740 OFFCURVE",
"273 733 QCURVE SMOOTH",
"226 723 LINE",
"163 532 LINE",
"163 532 LINE"
);
}
);
width = 500;
}
);
note = acute;
unicode = 00B4;
},
{
glyphname = mu;
layers = (
{
layerId = "A70DCACA-0340-40F6-B519-7C37231E9414";
paths = (
{
closed = 1;
nodes = (
"80 492 LINE",
"80 -204 LINE",
"171 -223 LINE SMOOTH",
"194 -228 OFFCURVE",
"234 -200 OFFCURVE",
"234 -165 OFFCURVE",
"227 -144 QCURVE SMOOTH",
"223 -133 OFFCURVE",
"218 -119 OFFCURVE",
"202 -81 OFFCURVE",
"198 -71 QCURVE SMOOTH",
"140 71 LINE",
"144 74 LINE",
"168 22 OFFCURVE",
"225 -11 OFFCURVE",
"304 -11 OFFCURVE",
"370 45 OFFCURVE",
"386 89 QCURVE",
"396 44 OFFCURVE",
"462 -10 OFFCURVE",
"585 -10 OFFCURVE",
"643 56 OFFCURVE",
"647 144 QCURVE",
"632 145 LINE",
"626 42 OFFCURVE",
"592 42 QCURVE SMOOTH",
"563 42 OFFCURVE",
"563 85 QCURVE SMOOTH",
"563 501 LINE",
"386 492 LINE",
"386 181 LINE SMOOTH",
"386 117 OFFCURVE",
"338 39 OFFCURVE",
"308 39 QCURVE SMOOTH",
"293 39 OFFCURVE",
"284 47 QCURVE SMOOTH",
"268 63 OFFCURVE",
"268 158 QCURVE SMOOTH",
"268 501 LINE",
"268 501 LINE"
);
}
);
width = 673;
}
);
note = mu;
unicode = 00B5;
},
{
glyphname = paragraph;
layers = (
{
layerId = "A70DCACA-0340-40F6-B519-7C37231E9414";
paths = (
{
closed = 1;
nodes = (
"377 -164 OFFCURVE",
"332 -231 OFFCURVE",
"252 -231 OFFCURVE",
"230 -185 OFFCURVE",
"251 -148 QCURVE",
"280 -148 LINE",
"286 -124 OFFCURVE",
"286 -72 OFFCURVE",
"247 -29 OFFCURVE",
"170 -29 OFFCURVE",
"117 -80 OFFCURVE",
"117 -173 OFFCURVE",
"193 -250 OFFCURVE",
"285 -250 QCURVE SMOOTH",
"533 -250 OFFCURVE",
"533 -13 QCURVE SMOOTH",
"533 681 LINE",
"598 681 LINE",
"598 700 LINE",
"371 700 LINE SMOOTH",
"228 700 OFFCURVE",
"75 554 OFFCURVE",
"75 312 OFFCURVE",
"221 175 OFFCURVE",
"358 175 QCURVE SMOOTH",
"377 175 LINE",
"377 -82 LINE",
"377 -82 LINE"
);
},
{
closed = 1;
nodes = (
"407 681 LINE",
"504 681 LINE",
"504 -4 LINE SMOOTH",
"504 -188 OFFCURVE",
"369 -218 QCURVE",
"407 -184 OFFCURVE",
"407 -93 QCURVE",
"407 -93 LINE"
);
}
);
width = 628;
}
);
note = paragraph;
unicode = 00B6;
},
{
glyphname = periodcentered;
layers = (
{
layerId = "A70DCACA-0340-40F6-B519-7C37231E9414";
paths = (
{
closed = 1;
nodes = (
"245 283 OFFCURVE",
"245 367 OFFCURVE",
"197 409 OFFCURVE",
"115 409 OFFCURVE",
"70 359 OFFCURVE",
"70 286 OFFCURVE",
"113 235 OFFCURVE",
"200 235 OFFCURVE"
);
}
);
width = 300;
}
);
note = periodcentered;
unicode = 00B7;
},
{
glyphname = cedilla;
layers = (
{
layerId = "A70DCACA-0340-40F6-B519-7C37231E9414";
paths = (
{
closed = 1;
nodes = (
"197 -65 LINE",
"200 -74 LINE",
"216 -70 OFFCURVE",
"230 -70 QCURVE SMOOTH",
"257 -70 OFFCURVE",
"260 -106 QCURVE SMOOTH",
"262 -121 OFFCURVE",
"262 -194 OFFCURVE",
"245 -229 OFFCURVE",
"208 -229 OFFCURVE",
"192 -206 OFFCURVE",
"192 -192 QCURVE",
"218 -172 LINE",
"206 -134 OFFCURVE",
"172 -134 QCURVE SMOOTH",
"153 -134 OFFCURVE",
"129 -158 OFFCURVE",
"129 -208 OFFCURVE",
"186 -245 OFFCURVE",
"232 -245 QCURVE SMOOTH",
"302 -245 OFFCURVE",
"368 -182 OFFCURVE",
"368 -141 QCURVE SMOOTH",
"368 -52 OFFCURVE",
"263 -52 QCURVE SMOOTH",
"251 -52 OFFCURVE",
"230 -55 QCURVE",
"270 13 LINE",
"244 13 LINE",
"244 13 LINE"
);
}
);
width = 500;
}
);
note = cedilla;
unicode = 00B8;
},
{
glyphname = onesuperior;
layers = (
{
layerId = "A70DCACA-0340-40F6-B519-7C37231E9414";
paths = (
{
closed = 1;
nodes = (
"160 413 LINE",
"91 413 LINE",
"91 394 LINE",
"369 394 LINE",
"369 413 LINE",
"301 413 LINE",
"301 821 LINE",
"230 821 LINE",
"86 802 LINE",
"88 783 LINE",
"160 791 LINE",
"160 791 LINE"
);
}
);
width = 425;
}
);
note = onesuperior;
unicode = 00B9;
},
{
glyphname = ordmasculine;
layers = (
{
layerId = "A70DCACA-0340-40F6-B519-7C37231E9414";
paths = (
{
closed = 1;
nodes = (
"295 466 OFFCURVE",
"277 411 OFFCURVE",
"213 411 OFFCURVE",
"194 472 OFFCURVE",
"194 542 QCURVE SMOOTH",
"194 598 LINE SMOOTH",
"194 666 OFFCURVE",
"214 729 OFFCURVE",
"277 729 OFFCURVE",
"295 667 OFFCURVE",
"295 601 QCURVE SMOOTH",
"295 541 LINE",
"295 541 LINE"
);
},
{
closed = 1;
nodes = (
"443 394 OFFCURVE",
"443 575 QCURVE SMOOTH",
"443 747 OFFCURVE",
"249 747 QCURVE SMOOTH",
"150 747 OFFCURVE",
"46 656 OFFCURVE",
"46 485 OFFCURVE",
"146 394 OFFCURVE",
"244 394 QCURVE",
"244 394 LINE"
);
}
);
width = 489;
}
);
note = ordmasculine;
unicode = 00BA;
},
{
glyphname = guillemotright;
layers = (
{
layerId = "A70DCACA-0340-40F6-B519-7C37231E9414";
paths = (
{
closed = 1;
nodes = (
"444 208 OFFCURVE",
"444 245 OFFCURVE",
"414 271 QCURVE SMOOTH",
"255 401 LINE",
"247 393 LINE",
"331 219 LINE",
"246 56 LINE",
"254 49 LINE",
"431 187 LINE",
"431 187 LINE"
);
},
{
closed = 1;
nodes = (
"268 208 OFFCURVE",
"268 245 OFFCURVE",
"238 271 QCURVE SMOOTH",
"79 401 LINE",
"71 393 LINE",
"155 219 LINE",
"70 56 LINE",
"78 49 LINE",
"255 187 LINE",
"255 187 LINE"
);
}
);
width = 494;
}
);
leftKerningGroup = guillemotright;
note = guillemotright;
rightKerningGroup = guillemotright;
unicode = 00BB;
},
{
glyphname = onequarter;
layers = (
{
layerId = "A70DCACA-0340-40F6-B519-7C37231E9414";
paths = (
{
closed = 1;
nodes = (
"274 0 LINE",
"594 700 LINE",
"560 700 LINE",
"239 0 LINE",
"239 0 LINE"
);
},
{
closed = 1;
nodes = (
"118 293 LINE",
"49 293 LINE",
"49 274 LINE",
"327 274 LINE",
"327 293 LINE",
"259 293 LINE",
"259 701 LINE",
"188 701 LINE",
"44 682 LINE",
"46 663 LINE",
"118 671 LINE",
"118 671 LINE"
);
},
{
closed = 1;
nodes = (
"758 0 LINE",
"758 19 LINE",
"715 19 LINE",
"715 98 LINE",
"777 98 LINE",
"777 56 LINE",
"796 56 LINE",
"796 174 LINE",
"777 174 LINE",
"777 122 LINE",
"715 122 LINE",
"715 420 LINE",
"588 420 LINE",
"413 119 LINE",
"413 98 LINE",
"581 98 LINE",
"581 19 LINE",
"523 19 LINE",
"523 0 LINE",
"523 0 LINE"
);
},
{
closed = 1;
nodes = (
"581 360 LINE",
"581 122 LINE",
"442 122 LINE",
"442 122 LINE"
);
}
);
width = 820;
}
);
note = onequarter;
unicode = 00BC;
},
{
glyphname = onehalf;
layers = (
{
layerId = "A70DCACA-0340-40F6-B519-7C37231E9414";
paths = (
{
closed = 1;
nodes = (
"263 0 LINE",
"583 700 LINE",
"549 700 LINE",
"228 0 LINE",
"228 0 LINE"
);
},
{
closed = 1;
nodes = (
"107 293 LINE",
"38 293 LINE",
"38 274 LINE",
"316 274 LINE",
"316 293 LINE",
"248 293 LINE",
"248 701 LINE",
"177 701 LINE",
"33 682 LINE",
"35 663 LINE",
"107 671 LINE",
"107 671 LINE"
);
},
{
closed = 1;
nodes = (
"469 304 OFFCURVE",
"500 270 OFFCURVE",
"553 270 OFFCURVE",
"584 297 OFFCURVE",
"584 334 OFFCURVE",
"579 349 QCURVE",
"559 349 LINE",
"548 375 OFFCURVE",
"575 411 OFFCURVE",
"630 411 OFFCURVE",
"649 372 OFFCURVE",
"649 268 OFFCURVE",
"603 185 OFFCURVE",
"540 135 QCURVE SMOOTH",
"476 84 LINE",
"476 0 LINE",
"780 0 LINE",
"787 177 LINE",
"772 177 LINE",
"764 139 OFFCURVE",
"729 102 OFFCURVE",
"686 102 QCURVE SMOOTH",
"526 102 LINE",
"564 122 LINE SMOOTH",
"690 189 OFFCURVE",
"774 265 OFFCURVE",
"774 375 OFFCURVE",
"688 429 OFFCURVE",
"546 429 OFFCURVE",
"469 372 OFFCURVE",
"469 330 QCURVE",
"469 330 LINE"
);
}
);
width = 820;
}
);
note = onehalf;
unicode = 00BD;
},
{
glyphname = threequarters;
layers = (
{
layerId = "A70DCACA-0340-40F6-B519-7C37231E9414";
paths = (
{
closed = 1;
nodes = (
"289 0 LINE",
"609 700 LINE",
"575 700 LINE",
"254 0 LINE",
"254 0 LINE"
);
},
{
closed = 1;
nodes = (
"773 0 LINE",
"773 19 LINE",
"730 19 LINE",
"730 98 LINE",
"792 98 LINE",
"792 56 LINE",
"811 56 LINE",
"811 174 LINE",
"792 174 LINE",
"792 122 LINE",
"730 122 LINE",
"730 420 LINE",
"603 420 LINE",
"428 119 LINE",
"428 98 LINE",
"596 98 LINE",
"596 19 LINE",
"538 19 LINE",
"538 0 LINE",
"538 0 LINE"
);
},
{
closed = 1;
nodes = (
"596 360 LINE",
"596 122 LINE",
"457 122 LINE",
"457 122 LINE"
);
},
{
closed = 1;
nodes = (
"113 699 OFFCURVE",
"37 648 OFFCURVE",
"37 608 QCURVE SMOOTH",
"37 583 OFFCURVE",
"66 550 OFFCURVE",
"118 550 OFFCURVE",
"151 577 OFFCURVE",
"151 610 OFFCURVE",
"145 626 QCURVE",
"129 626 LINE",
"125 637 OFFCURVE",
"125 648 QCURVE SMOOTH",
"125 684 OFFCURVE",
"168 684 QCURVE SMOOTH",
"191 684 OFFCURVE",
"208 644 OFFCURVE",
"208 542 OFFCURVE",
"177 503 OFFCURVE",
"123 498 QCURVE",
"125 480 LINE",
"162 485 OFFCURVE",
"179 488 QCURVE",
"203 477 OFFCURVE",
"226 434 OFFCURVE",
"226 335 OFFCURVE",
"202 282 OFFCURVE",
"166 282 QCURVE SMOOTH",
"144 282 OFFCURVE",
"116 301 OFFCURVE",
"116 327 OFFCURVE",
"122 339 QCURVE",
"137 339 LINE",
"143 355 OFFCURVE",
"143 389 OFFCURVE",
"112 415 OFFCURVE",
"60 415 OFFCURVE",
"28 379 OFFCURVE",
"28 354 QCURVE SMOOTH",
"28 266 OFFCURVE",
"168 266 QCURVE SMOOTH",
"253 266 OFFCURVE",
"350 333 OFFCURVE",
"350 438 OFFCURVE",
"277 497 OFFCURVE",
"200 502 QCURVE",
"200 503 LINE",
"262 513 OFFCURVE",
"328 564 OFFCURVE",
"328 603 QCURVE SMOOTH",
"328 699 OFFCURVE",
"182 699 QCURVE",
"182 699 LINE"
);
}
);
width = 820;
}
);
note = threequarters;
unicode = 00BE;
},
{
glyphname = questiondown;
layers = (
{
layerId = "A70DCACA-0340-40F6-B519-7C37231E9414";
paths = (
{
closed = 1;
nodes = (
"526 -42 OFFCURVE",
"481 11 OFFCURVE",
"399 11 OFFCURVE",
"349 -32 OFFCURVE",
"349 -91 OFFCURVE",
"357 -112 QCURVE",
"389 -112 LINE",
"395 -128 OFFCURVE",
"395 -170 OFFCURVE",
"355 -216 OFFCURVE",
"312 -216 QCURVE SMOOTH",
"222 -216 OFFCURVE",
"222 -119 QCURVE SMOOTH",
"222 -78 OFFCURVE",
"244 -27 OFFCURVE",
"273 2 QCURVE SMOOTH",
"335 65 LINE SMOOTH",
"346 76 OFFCURVE",
"346 93 QCURVE SMOOTH",
"346 303 LINE",
"321 303 LINE",
"321 245 LINE",
"170 111 LINE SMOOTH",
"123 68 OFFCURVE",
"70 -15 OFFCURVE",
"70 -69 QCURVE SMOOTH",
"70 -151 OFFCURVE",
"189 -235 OFFCURVE",
"408 -235 OFFCURVE",
"526 -147 OFFCURVE",
"526 -82 QCURVE",
"526 -82 LINE"
);
},
{
closed = 1;
nodes = (
"258 444 OFFCURVE",
"258 372 OFFCURVE",
"300 335 OFFCURVE",
"370 335 OFFCURVE",
"410 378 OFFCURVE",
"410 443 OFFCURVE",
"373 486 OFFCURVE",
"298 486 OFFCURVE"
);
}
);
width = 580;
}
);
note = questiondown;
unicode = 00BF;
},
{
glyphname = Agrave;
layers = (
{
layerId = "A70DCACA-0340-40F6-B519-7C37231E9414";
paths = (
{
closed = 1;
nodes = (
"361 19 LINE",
"361 0 LINE",
"688 0 LINE",
"688 19 LINE",
"642 19 LINE",
"390 706 LINE",
"308 706 LINE",
"53 19 LINE",
"6 19 LINE",
"6 0 LINE",
"159 0 LINE",
"159 19 LINE",
"84 19 LINE",
"161 235 LINE",
"359 235 LINE",
"432 19 LINE",
"432 19 LINE"
);
},
{
closed = 1;
nodes = (
"351 257 LINE",
"170 257 LINE",
"264 519 LINE",
"264 519 LINE"
);
},
{
closed = 1;
nodes = (
"281 901 LINE SMOOTH",
"256 899 OFFCURVE",
"233 873 OFFCURVE",
"233 856 QCURVE SMOOTH",
"233 816 OFFCURVE",
"277 798 QCURVE SMOOTH",
"436 733 LINE",
"444 743 LINE",
"329 905 LINE",
"329 905 LINE"
);
}
);
width = 694;
}
);
leftKerningGroup = A;
note = Agrave;
rightKerningGroup = A;
unicode = 00C0;
},
{
glyphname = Aacute;
layers = (
{
layerId = "A70DCACA-0340-40F6-B519-7C37231E9414";
paths = (
{
closed = 1;
nodes = (
"361 19 LINE",
"361 0 LINE",
"688 0 LINE",
"688 19 LINE",
"642 19 LINE",
"390 706 LINE",
"308 706 LINE",
"53 19 LINE",
"6 19 LINE",
"6 0 LINE",
"159 0 LINE",
"159 19 LINE",
"84 19 LINE",
"161 235 LINE",
"359 235 LINE",
"432 19 LINE",
"432 19 LINE"
);
},
{
closed = 1;
nodes = (
"351 257 LINE",
"170 257 LINE",
"264 519 LINE",
"264 519 LINE"
);
},
{
closed = 1;
nodes = (
"269 733 LINE",
"428 798 LINE SMOOTH",
"472 816 OFFCURVE",
"472 856 QCURVE SMOOTH",
"472 873 OFFCURVE",
"449 899 OFFCURVE",
"424 901 QCURVE SMOOTH",
"376 905 LINE",
"261 743 LINE",
"261 743 LINE"
);
}
);
width = 694;
}
);
leftKerningGroup = A;
note = Aacute;
rightKerningGroup = A;
unicode = 00C1;
},
{
glyphname = Acircumflex;
layers = (
{
layerId = "A70DCACA-0340-40F6-B519-7C37231E9414";
paths = (
{
closed = 1;
nodes = (
"361 19 LINE",
"361 0 LINE",
"688 0 LINE",
"688 19 LINE",
"642 19 LINE",
"390 706 LINE",
"308 706 LINE",
"53 19 LINE",
"6 19 LINE",
"6 0 LINE",
"159 0 LINE",
"159 19 LINE",
"84 19 LINE",
"161 235 LINE",
"359 235 LINE",
"432 19 LINE",
"432 19 LINE"
);
},
{
closed = 1;
nodes = (
"351 257 LINE",
"170 257 LINE",
"264 519 LINE",
"264 519 LINE"
);
},
{
closed = 1;
nodes = (
"205 733 LINE",
"351 801 LINE",
"493 733 LINE",
"502 743 LINE",
"428 867 LINE SMOOTH",
"405 907 OFFCURVE",
"358 907 QCURVE SMOOTH",
"331 907 OFFCURVE",
"303 891 QCURVE",
"197 743 LINE",
"197 743 LINE"
);
}
);
width = 694;
}
);
leftKerningGroup = A;
note = Acircumflex;
rightKerningGroup = A;
unicode = 00C2;
},
{
glyphname = Atilde;
layers = (
{
layerId = "A70DCACA-0340-40F6-B519-7C37231E9414";
paths = (
{
closed = 1;
nodes = (
"361 19 LINE",
"361 0 LINE",
"688 0 LINE",
"688 19 LINE",
"642 19 LINE",
"390 706 LINE",
"308 706 LINE",
"53 19 LINE",
"6 19 LINE",
"6 0 LINE",
"159 0 LINE",
"159 19 LINE",
"84 19 LINE",
"161 235 LINE",
"359 235 LINE",
"432 19 LINE",
"432 19 LINE"
);
},
{
closed = 1;
nodes = (
"351 257 LINE",
"170 257 LINE",
"264 519 LINE",
"264 519 LINE"
);
},
{
closed = 1;
nodes = (
"509 895 LINE",
"495 853 OFFCURVE",
"451 853 QCURVE SMOOTH",
"434 853 OFFCURVE",
"333 893 OFFCURVE",
"283 893 OFFCURVE",
"251 877 OFFCURVE",
"222 827 OFFCURVE",
"199 755 QCURVE",
"211 751 LINE",
"228 792 OFFCURVE",
"266 792 QCURVE SMOOTH",
"285 792 OFFCURVE",
"391 752 OFFCURVE",
"457 752 OFFCURVE",
"502 812 OFFCURVE",
"522 891 QCURVE",
"522 891 LINE"
);
}
);
width = 694;
}
);
leftKerningGroup = A;
note = Atilde;
rightKerningGroup = A;
unicode = 00C3;
},
{
glyphname = Adieresis;
layers = (
{
layerId = "A70DCACA-0340-40F6-B519-7C37231E9414";
paths = (
{
closed = 1;
nodes = (
"361 19 LINE",
"361 0 LINE",
"688 0 LINE",
"688 19 LINE",
"642 19 LINE",
"390 706 LINE",
"308 706 LINE",
"53 19 LINE",
"6 19 LINE",
"6 0 LINE",
"159 0 LINE",
"159 19 LINE",
"84 19 LINE",
"161 235 LINE",
"359 235 LINE",
"432 19 LINE",
"432 19 LINE"
);
},
{
closed = 1;
nodes = (
"351 257 LINE",
"170 257 LINE",
"264 519 LINE",
"264 519 LINE"
);
},
{
closed = 1;
nodes = (
"481 746 OFFCURVE",
"520 787 OFFCURVE",
"520 857 OFFCURVE",
"479 894 OFFCURVE",
"410 894 OFFCURVE",
"371 852 OFFCURVE",
"371 790 OFFCURVE",
"407 746 OFFCURVE"
);
},
{
closed = 1;
nodes = (
"288 746 OFFCURVE",
"327 787 OFFCURVE",
"327 857 OFFCURVE",
"286 894 OFFCURVE",
"217 894 OFFCURVE",
"178 852 OFFCURVE",
"178 790 OFFCURVE",
"214 746 OFFCURVE"
);
}
);
width = 694;
}
);
leftKerningGroup = A;
note = Adieresis;
rightKerningGroup = A;
unicode = 00C4;
},
{
glyphname = Aring;
layers = (
{
layerId = "A70DCACA-0340-40F6-B519-7C37231E9414";
paths = (
{
closed = 1;
nodes = (
"361 19 LINE",
"361 0 LINE",
"688 0 LINE",
"688 19 LINE",
"642 19 LINE",
"390 706 LINE",
"308 706 LINE",
"53 19 LINE",
"6 19 LINE",
"6 0 LINE",
"159 0 LINE",
"159 19 LINE",
"84 19 LINE",
"161 235 LINE",
"359 235 LINE",
"432 19 LINE",
"432 19 LINE"
);
},
{
closed = 1;
nodes = (
"351 257 LINE",
"170 257 LINE",
"264 519 LINE",
"264 519 LINE"
);
},
{
closed = 1;
nodes = (
"277 853 OFFCURVE",
"311 894 OFFCURVE",
"384 894 OFFCURVE",
"420 853 OFFCURVE",
"420 791 OFFCURVE",
"384 750 OFFCURVE",
"349 750 QCURVE SMOOTH",
"277 750 OFFCURVE",
"277 823 QCURVE",
"277 823 LINE"
);
},
{
closed = 1;
nodes = (
"449 780 OFFCURVE",
"449 867 OFFCURVE",
"398 918 OFFCURVE",
"300 918 OFFCURVE",
"247 864 OFFCURVE",
"247 778 OFFCURVE",
"297 726 OFFCURVE",
"396 726 OFFCURVE"
);
}
);
width = 694;
}
);
leftKerningGroup = A;
note = Aring;
rightKerningGroup = A;
unicode = 00C5;
},
{
glyphname = AE;
layers = (
{
layerId = "A70DCACA-0340-40F6-B519-7C37231E9414";
paths = (
{
closed = 1;
nodes = (
"452 678 LINE",
"53 19 LINE",
"6 19 LINE",
"6 0 LINE",
"160 0 LINE",
"160 19 LINE",
"85 19 LINE",
"279 339 LINE",
"489 339 LINE",
"489 22 LINE",
"430 22 LINE",
"430 0 LINE",
"979 0 LINE",
"987 218 LINE",
"967 218 LINE",
"943 132 OFFCURVE",
"814 22 OFFCURVE",
"722 22 QCURVE SMOOTH",
"684 22 LINE",
"684 336 LINE",
"708 336 LINE SMOOTH",
"761 336 OFFCURVE",
"822 272 OFFCURVE",
"840 197 QCURVE",
"857 197 LINE",
"857 493 LINE",
"842 493 LINE",
"829 433 OFFCURVE",
"765 362 OFFCURVE",
"718 362 QCURVE SMOOTH",
"684 362 LINE",
"684 678 LINE",
"728 678 LINE SMOOTH",
"811 678 OFFCURVE",
"900 601 OFFCURVE",
"942 502 QCURVE",
"960 502 LINE",
"950 700 LINE",
"376 700 LINE",
"376 678 LINE",
"376 678 LINE"
);
},
{
closed = 1;
nodes = (
"489 678 LINE",
"489 363 LINE",
"291 363 LINE",
"483 678 LINE",
"483 678 LINE"
);
}
);
width = 1033;
}
);
leftKerningGroup = AE;
note = AE;
rightKerningGroup = E;
unicode = 00C6;
},
{
glyphname = Ccedilla;
layers = (
{
layerId = "A70DCACA-0340-40F6-B519-7C37231E9414";
paths = (
{
closed = 1;
nodes = (
"461 691 OFFCURVE",
"556 584 OFFCURVE",
"601 483 QCURVE",
"619 483 LINE",
"611 700 LINE",
"600 700 LINE",
"594 689 OFFCURVE",
"584 680 OFFCURVE",
"564 680 OFFCURVE",
"447 711 OFFCURVE",
"386 711 QCURVE SMOOTH",
"228 711 OFFCURVE",
"41 519 OFFCURVE",
"41 167 OFFCURVE",
"217 -8 OFFCURVE",
"378 -10 QCURVE",
"343 -69 LINE",
"346 -78 LINE",
"362 -74 OFFCURVE",
"376 -74 QCURVE SMOOTH",
"403 -74 OFFCURVE",
"406 -110 QCURVE SMOOTH",
"408 -125 OFFCURVE",
"408 -198 OFFCURVE",
"391 -233 OFFCURVE",
"354 -233 OFFCURVE",
"338 -210 OFFCURVE",
"338 -196 QCURVE",
"364 -176 LINE",
"352 -138 OFFCURVE",
"318 -138 QCURVE SMOOTH",
"299 -138 OFFCURVE",
"275 -162 OFFCURVE",
"275 -212 OFFCURVE",
"332 -249 OFFCURVE",
"378 -249 QCURVE SMOOTH",
"448 -249 OFFCURVE",
"514 -186 OFFCURVE",
"514 -145 QCURVE SMOOTH",
"514 -56 OFFCURVE",
"409 -56 QCURVE SMOOTH",
"397 -56 OFFCURVE",
"376 -59 QCURVE",
"405 -9 LINE",
"460 -7 OFFCURVE",
"572 21 OFFCURVE",
"593 21 OFFCURVE",
"603 12 OFFCURVE",
"609 1 QCURVE",
"620 1 LINE",
"627 224 LINE",
"609 224 LINE",
"517 10 OFFCURVE",
"407 10 QCURVE SMOOTH",
"327 10 OFFCURVE",
"245 171 OFFCURVE",
"245 313 QCURVE SMOOTH",
"245 392 LINE SMOOTH",
"245 691 OFFCURVE",
"400 691 QCURVE",
"400 691 LINE"
);
}
);
width = 690;
}
);
leftKerningGroup = C;
note = Ccedilla;
rightKerningGroup = C;
unicode = 00C7;
},
{
glyphname = Egrave;
layers = (
{
layerId = "A70DCACA-0340-40F6-B519-7C37231E9414";
paths = (
{
closed = 1;
nodes = (
"21 678 LINE",
"80 678 LINE",
"80 22 LINE",
"21 22 LINE",
"21 0 LINE",
"570 0 LINE",
"578 218 LINE",
"558 218 LINE",
"534 132 OFFCURVE",
"405 22 OFFCURVE",
"313 22 QCURVE SMOOTH",
"275 22 LINE",
"275 343 LINE",
"299 343 LINE SMOOTH",
"352 343 OFFCURVE",
"413 279 OFFCURVE",
"431 204 QCURVE",
"448 204 LINE",
"448 500 LINE",
"433 500 LINE",
"420 440 OFFCURVE",
"356 369 OFFCURVE",
"309 369 QCURVE SMOOTH",
"275 369 LINE",
"275 678 LINE",
"310 678 LINE SMOOTH",
"399 678 OFFCURVE",
"491 603 OFFCURVE",
"533 502 QCURVE",
"551 502 LINE",
"541 700 LINE",
"21 700 LINE",
"21 700 LINE"
);
},
{
closed = 1;
nodes = (
"227 901 LINE SMOOTH",
"202 899 OFFCURVE",
"179 873 OFFCURVE",
"179 856 QCURVE SMOOTH",
"179 816 OFFCURVE",
"223 798 QCURVE SMOOTH",
"382 733 LINE",
"390 743 LINE",
"275 905 LINE",
"275 905 LINE"
);
}
);
width = 624;
}
);
note = Egrave;
rightKerningGroup = E;
unicode = 00C8;
},
{
glyphname = Eacute;
layers = (
{
layerId = "A70DCACA-0340-40F6-B519-7C37231E9414";
paths = (
{
closed = 1;
nodes = (
"21 678 LINE",
"80 678 LINE",
"80 22 LINE",
"21 22 LINE",
"21 0 LINE",
"570 0 LINE",
"578 218 LINE",
"558 218 LINE",
"534 132 OFFCURVE",
"405 22 OFFCURVE",
"313 22 QCURVE SMOOTH",
"275 22 LINE",
"275 343 LINE",
"299 343 LINE SMOOTH",
"352 343 OFFCURVE",
"413 279 OFFCURVE",
"431 204 QCURVE",
"448 204 LINE",
"448 500 LINE",
"433 500 LINE",
"420 440 OFFCURVE",
"356 369 OFFCURVE",
"309 369 QCURVE SMOOTH",
"275 369 LINE",
"275 678 LINE",
"310 678 LINE SMOOTH",
"399 678 OFFCURVE",
"491 603 OFFCURVE",
"533 502 QCURVE",
"551 502 LINE",
"541 700 LINE",
"21 700 LINE",
"21 700 LINE"
);
},
{
closed = 1;
nodes = (
"215 733 LINE",
"374 798 LINE SMOOTH",
"418 816 OFFCURVE",
"418 856 QCURVE SMOOTH",
"418 873 OFFCURVE",
"395 899 OFFCURVE",
"370 901 QCURVE SMOOTH",
"322 905 LINE",
"207 743 LINE",
"207 743 LINE"
);
}
);
width = 624;
}
);
note = Eacute;
rightKerningGroup = E;
unicode = 00C9;
},
{
glyphname = Ecircumflex;
layers = (
{
layerId = "A70DCACA-0340-40F6-B519-7C37231E9414";
paths = (
{
closed = 1;
nodes = (
"21 678 LINE",
"80 678 LINE",
"80 22 LINE",
"21 22 LINE",
"21 0 LINE",
"570 0 LINE",
"578 218 LINE",
"558 218 LINE",
"534 132 OFFCURVE",
"405 22 OFFCURVE",
"313 22 QCURVE SMOOTH",
"275 22 LINE",
"275 343 LINE",
"299 343 LINE SMOOTH",
"352 343 OFFCURVE",
"413 279 OFFCURVE",
"431 204 QCURVE",
"448 204 LINE",
"448 500 LINE",
"433 500 LINE",
"420 440 OFFCURVE",
"356 369 OFFCURVE",
"309 369 QCURVE SMOOTH",
"275 369 LINE",
"275 678 LINE",
"310 678 LINE SMOOTH",
"399 678 OFFCURVE",
"491 603 OFFCURVE",
"533 502 QCURVE",
"551 502 LINE",
"541 700 LINE",
"21 700 LINE",
"21 700 LINE"
);
},
{
closed = 1;
nodes = (
"151 733 LINE",
"297 801 LINE",
"439 733 LINE",
"448 743 LINE",
"374 867 LINE SMOOTH",
"351 907 OFFCURVE",
"304 907 QCURVE SMOOTH",
"277 907 OFFCURVE",
"249 891 QCURVE",
"143 743 LINE",
"143 743 LINE"
);
}
);
width = 624;
}
);
note = Ecircumflex;
rightKerningGroup = E;
unicode = 00CA;
},
{
glyphname = Edieresis;
layers = (
{
layerId = "A70DCACA-0340-40F6-B519-7C37231E9414";
paths = (
{
closed = 1;
nodes = (
"21 678 LINE",
"80 678 LINE",
"80 22 LINE",
"21 22 LINE",
"21 0 LINE",
"570 0 LINE",
"578 218 LINE",
"558 218 LINE",
"534 132 OFFCURVE",
"405 22 OFFCURVE",
"313 22 QCURVE SMOOTH",
"275 22 LINE",
"275 343 LINE",
"299 343 LINE SMOOTH",
"352 343 OFFCURVE",
"413 279 OFFCURVE",
"431 204 QCURVE",
"448 204 LINE",
"448 500 LINE",
"433 500 LINE",
"420 440 OFFCURVE",
"356 369 OFFCURVE",
"309 369 QCURVE SMOOTH",
"275 369 LINE",
"275 678 LINE",
"310 678 LINE SMOOTH",
"399 678 OFFCURVE",
"491 603 OFFCURVE",
"533 502 QCURVE",
"551 502 LINE",
"541 700 LINE",
"21 700 LINE",
"21 700 LINE"
);
},
{
closed = 1;
nodes = (
"427 746 OFFCURVE",
"466 787 OFFCURVE",
"466 857 OFFCURVE",
"425 894 OFFCURVE",
"356 894 OFFCURVE",
"317 852 OFFCURVE",
"317 790 OFFCURVE",
"353 746 OFFCURVE"
);
},
{
closed = 1;
nodes = (
"234 746 OFFCURVE",
"273 787 OFFCURVE",
"273 857 OFFCURVE",
"232 894 OFFCURVE",
"163 894 OFFCURVE",
"124 852 OFFCURVE",
"124 790 OFFCURVE",
"160 746 OFFCURVE"
);
}
);
width = 624;
}
);
note = Edieresis;
rightKerningGroup = E;
unicode = 00CB;
},
{
glyphname = Igrave;
layers = (
{
layerId = "A70DCACA-0340-40F6-B519-7C37231E9414";
paths = (
{
closed = 1;
nodes = (
"25 681 LINE",
"80 681 LINE",
"80 19 LINE",
"25 19 LINE",
"25 0 LINE",
"330 0 LINE",
"330 19 LINE",
"275 19 LINE",
"275 681 LINE",
"330 681 LINE",
"330 700 LINE",
"25 700 LINE",
"25 700 LINE"
);
},
{
closed = 1;
nodes = (
"109 901 LINE SMOOTH",
"84 899 OFFCURVE",
"61 873 OFFCURVE",
"61 856 QCURVE SMOOTH",
"61 816 OFFCURVE",
"105 798 QCURVE SMOOTH",
"264 733 LINE",
"272 743 LINE",
"157 905 LINE",
"157 905 LINE"
);
}
);
width = 355;
}
);
note = Igrave;
rightKerningGroup = H;
unicode = 00CC;
},
{
glyphname = Iacute;
layers = (
{
layerId = "A70DCACA-0340-40F6-B519-7C37231E9414";
paths = (
{
closed = 1;
nodes = (
"25 681 LINE",
"80 681 LINE",
"80 19 LINE",
"25 19 LINE",
"25 0 LINE",
"330 0 LINE",
"330 19 LINE",
"275 19 LINE",
"275 681 LINE",
"330 681 LINE",
"330 700 LINE",
"25 700 LINE",
"25 700 LINE"
);
},
{
closed = 1;
nodes = (
"97 733 LINE",
"256 798 LINE SMOOTH",
"300 816 OFFCURVE",
"300 856 QCURVE SMOOTH",
"300 873 OFFCURVE",
"277 899 OFFCURVE",
"252 901 QCURVE SMOOTH",
"204 905 LINE",
"89 743 LINE",
"89 743 LINE"
);
}
);
width = 355;
}
);
note = Iacute;
rightKerningGroup = H;
unicode = 00CD;
},
{
glyphname = Icircumflex;
layers = (
{
layerId = "A70DCACA-0340-40F6-B519-7C37231E9414";
paths = (
{
closed = 1;
nodes = (
"25 681 LINE",
"80 681 LINE",
"80 19 LINE",
"25 19 LINE",
"25 0 LINE",
"330 0 LINE",
"330 19 LINE",
"275 19 LINE",
"275 681 LINE",
"330 681 LINE",
"330 700 LINE",
"25 700 LINE",
"25 700 LINE"
);
},
{
closed = 1;
nodes = (
"33 733 LINE",
"179 801 LINE",
"321 733 LINE",
"330 743 LINE",
"256 867 LINE SMOOTH",
"233 907 OFFCURVE",
"186 907 QCURVE SMOOTH",
"159 907 OFFCURVE",
"131 891 QCURVE",
"25 743 LINE",
"25 743 LINE"
);
}
);
width = 355;
}
);
note = Icircumflex;
rightKerningGroup = H;
unicode = 00CE;
},
{
glyphname = Idieresis;
layers = (
{
layerId = "A70DCACA-0340-40F6-B519-7C37231E9414";
paths = (
{
closed = 1;
nodes = (
"25 681 LINE",
"80 681 LINE",
"80 19 LINE",
"25 19 LINE",
"25 0 LINE",
"330 0 LINE",
"330 19 LINE",
"275 19 LINE",
"275 681 LINE",
"330 681 LINE",
"330 700 LINE",
"25 700 LINE",
"25 700 LINE"
);
},
{
closed = 1;
nodes = (
"309 746 OFFCURVE",
"348 787 OFFCURVE",
"348 857 OFFCURVE",
"307 894 OFFCURVE",
"238 894 OFFCURVE",
"199 852 OFFCURVE",
"199 790 OFFCURVE",
"235 746 OFFCURVE"
);
},
{
closed = 1;
nodes = (
"116 746 OFFCURVE",
"155 787 OFFCURVE",
"155 857 OFFCURVE",
"114 894 OFFCURVE",
"45 894 OFFCURVE",
"6 852 OFFCURVE",
"6 790 OFFCURVE",
"42 746 OFFCURVE"
);
}
);
width = 355;
}
);
note = Idieresis;
rightKerningGroup = H;
unicode = 00CF;
},
{
glyphname = Eth;
layers = (
{
layerId = "A70DCACA-0340-40F6-B519-7C37231E9414";
paths = (
{
closed = 1;
nodes = (
"95 359 LINE",
"95 19 LINE",
"29 19 LINE",
"29 0 LINE",
"312 0 LINE SMOOTH",
"499 0 OFFCURVE",
"606 75 QCURVE SMOOTH",
"722 156 OFFCURVE",
"722 362 QCURVE SMOOTH",
"722 543 OFFCURVE",
"530 700 OFFCURVE",
"338 700 QCURVE SMOOTH",
"29 700 LINE",
"29 681 LINE",
"95 681 LINE",
"95 385 LINE",
"19 385 LINE",
"19 359 LINE",
"19 359 LINE"
);
},
{
closed = 1;
nodes = (
"290 359 LINE",
"419 359 LINE",
"419 385 LINE",
"290 385 LINE",
"290 681 LINE",
"314 681 LINE SMOOTH",
"389 681 OFFCURVE",
"430 659 QCURVE SMOOTH",
"516 613 OFFCURVE",
"516 388 QCURVE SMOOTH",
"516 330 LINE SMOOTH",
"516 162 OFFCURVE",
"429 19 OFFCURVE",
"328 19 QCURVE SMOOTH",
"290 19 LINE",
"290 19 LINE"
);
}
);
width = 763;
}
);
note = Eth;
rightKerningGroup = D;
unicode = 00D0;
},
{
glyphname = Ntilde;
layers = (
{
layerId = "A70DCACA-0340-40F6-B519-7C37231E9414";
paths = (
{
closed = 1;
nodes = (
"645 681 LINE",
"645 700 LINE",
"508 700 LINE",
"508 681 LINE",
"563 681 LINE",
"563 198 LINE",
"301 700 LINE",
"25 700 LINE",
"25 681 LINE",
"80 681 LINE",
"80 19 LINE",
"25 19 LINE",
"25 0 LINE",
"162 0 LINE",
"162 19 LINE",
"107 19 LINE",
"107 647 LINE",
"450 0 LINE",
"590 0 LINE",
"590 681 LINE",
"590 681 LINE"
);
},
{
closed = 1;
nodes = (
"502 895 LINE",
"488 853 OFFCURVE",
"444 853 QCURVE SMOOTH",
"427 853 OFFCURVE",
"326 893 OFFCURVE",
"276 893 OFFCURVE",
"244 877 OFFCURVE",
"215 827 OFFCURVE",
"192 755 QCURVE",
"204 751 LINE",
"221 792 OFFCURVE",
"259 792 QCURVE SMOOTH",
"278 792 OFFCURVE",
"384 752 OFFCURVE",
"450 752 OFFCURVE",
"495 812 OFFCURVE",
"515 891 QCURVE",
"515 891 LINE"
);
}
);
width = 670;
}
);
note = Ntilde;
rightKerningGroup = N;
unicode = 00D1;
},
{
glyphname = Ograve;
layers = (
{
layerId = "A70DCACA-0340-40F6-B519-7C37231E9414";
paths = (
{
closed = 1;
nodes = (
"501 144 OFFCURVE",
"454 11 OFFCURVE",
"375 11 QCURVE SMOOTH",
"310 11 OFFCURVE",
"279 60 QCURVE SMOOTH",
"265 82 OFFCURVE",
"246 185 OFFCURVE",
"246 307 QCURVE SMOOTH",
"246 379 LINE SMOOTH",
"246 492 OFFCURVE",
"252 550 QCURVE SMOOTH",
"257 590 OFFCURVE",
"274 634 OFFCURVE",
"302 674 OFFCURVE",
"345 690 OFFCURVE",
"405 690 OFFCURVE",
"426 682 QCURVE SMOOTH",
"463 669 OFFCURVE",
"483 614 QCURVE SMOOTH",
"501 566 OFFCURVE",
"501 383 QCURVE SMOOTH",
"501 309 LINE",
"501 309 LINE"
);
},
{
closed = 1;
nodes = (
"707 180 OFFCURVE",
"707 524 OFFCURVE",
"542 711 OFFCURVE",
"218 711 OFFCURVE",
"41 514 OFFCURVE",
"41 171 OFFCURVE",
"206 -10 OFFCURVE",
"540 -10 OFFCURVE"
);
},
{
closed = 1;
nodes = (
"308 901 LINE SMOOTH",
"283 899 OFFCURVE",
"260 873 OFFCURVE",
"260 856 QCURVE SMOOTH",
"260 816 OFFCURVE",
"304 798 QCURVE SMOOTH",
"463 733 LINE",
"471 743 LINE",
"356 905 LINE",
"356 905 LINE"
);
}
);
width = 748;
}
);
leftKerningGroup = C;
note = Ograve;
rightKerningGroup = O;
unicode = 00D2;
},
{
glyphname = Oacute;
layers = (
{
layerId = "A70DCACA-0340-40F6-B519-7C37231E9414";
paths = (
{
closed = 1;
nodes = (
"501 144 OFFCURVE",
"454 11 OFFCURVE",
"375 11 QCURVE SMOOTH",
"310 11 OFFCURVE",
"279 60 QCURVE SMOOTH",
"265 82 OFFCURVE",
"246 185 OFFCURVE",
"246 307 QCURVE SMOOTH",
"246 379 LINE SMOOTH",
"246 492 OFFCURVE",
"252 550 QCURVE SMOOTH",
"257 590 OFFCURVE",
"274 634 OFFCURVE",
"302 674 OFFCURVE",
"345 690 OFFCURVE",
"405 690 OFFCURVE",
"426 682 QCURVE SMOOTH",
"463 669 OFFCURVE",
"483 614 QCURVE SMOOTH",
"501 566 OFFCURVE",
"501 383 QCURVE SMOOTH",
"501 309 LINE",
"501 309 LINE"
);
},
{
closed = 1;
nodes = (
"707 180 OFFCURVE",
"707 524 OFFCURVE",
"542 711 OFFCURVE",
"218 711 OFFCURVE",
"41 514 OFFCURVE",
"41 171 OFFCURVE",
"206 -10 OFFCURVE",
"540 -10 OFFCURVE"
);
},
{
closed = 1;
nodes = (
"296 733 LINE",
"455 798 LINE SMOOTH",
"499 816 OFFCURVE",
"499 856 QCURVE SMOOTH",
"499 873 OFFCURVE",
"476 899 OFFCURVE",
"451 901 QCURVE SMOOTH",
"403 905 LINE",
"288 743 LINE",
"288 743 LINE"
);
}
);
width = 748;
}
);
leftKerningGroup = C;
note = Oacute;
rightKerningGroup = O;
unicode = 00D3;
},
{
glyphname = Ocircumflex;
layers = (
{
layerId = "A70DCACA-0340-40F6-B519-7C37231E9414";
paths = (
{
closed = 1;
nodes = (
"501 144 OFFCURVE",
"454 11 OFFCURVE",
"375 11 QCURVE SMOOTH",
"310 11 OFFCURVE",
"279 60 QCURVE SMOOTH",
"265 82 OFFCURVE",
"246 185 OFFCURVE",
"246 307 QCURVE SMOOTH",
"246 379 LINE SMOOTH",
"246 492 OFFCURVE",
"252 550 QCURVE SMOOTH",
"257 590 OFFCURVE",
"274 634 OFFCURVE",
"302 674 OFFCURVE",
"345 690 OFFCURVE",
"405 690 OFFCURVE",
"426 682 QCURVE SMOOTH",
"463 669 OFFCURVE",
"483 614 QCURVE SMOOTH",
"501 566 OFFCURVE",
"501 383 QCURVE SMOOTH",
"501 309 LINE",
"501 309 LINE"
);
},
{
closed = 1;
nodes = (
"707 180 OFFCURVE",
"707 524 OFFCURVE",
"542 711 OFFCURVE",
"218 711 OFFCURVE",
"41 514 OFFCURVE",
"41 171 OFFCURVE",
"206 -10 OFFCURVE",
"540 -10 OFFCURVE"
);
},
{
closed = 1;
nodes = (
"232 733 LINE",
"378 801 LINE",
"520 733 LINE",
"529 743 LINE",
"455 867 LINE SMOOTH",
"432 907 OFFCURVE",
"385 907 QCURVE SMOOTH",
"358 907 OFFCURVE",
"330 891 QCURVE",
"224 743 LINE",
"224 743 LINE"
);
}
);
width = 748;
}
);
leftKerningGroup = C;
note = Ocircumflex;
rightKerningGroup = O;
unicode = 00D4;
},
{
glyphname = Otilde;
layers = (
{
layerId = "A70DCACA-0340-40F6-B519-7C37231E9414";
paths = (
{
closed = 1;
nodes = (
"501 144 OFFCURVE",
"454 11 OFFCURVE",
"375 11 QCURVE SMOOTH",
"310 11 OFFCURVE",
"279 60 QCURVE SMOOTH",
"265 82 OFFCURVE",
"246 185 OFFCURVE",
"246 307 QCURVE SMOOTH",
"246 379 LINE SMOOTH",
"246 492 OFFCURVE",
"252 550 QCURVE SMOOTH",
"257 590 OFFCURVE",
"274 634 OFFCURVE",
"302 674 OFFCURVE",
"345 690 OFFCURVE",
"405 690 OFFCURVE",
"426 682 QCURVE SMOOTH",
"463 669 OFFCURVE",
"483 614 QCURVE SMOOTH",
"501 566 OFFCURVE",
"501 383 QCURVE SMOOTH",
"501 309 LINE",
"501 309 LINE"
);
},
{
closed = 1;
nodes = (
"707 180 OFFCURVE",
"707 524 OFFCURVE",
"542 711 OFFCURVE",
"218 711 OFFCURVE",
"41 514 OFFCURVE",
"41 171 OFFCURVE",
"206 -10 OFFCURVE",
"540 -10 OFFCURVE"
);
},
{
closed = 1;
nodes = (
"536 895 LINE",
"522 853 OFFCURVE",
"478 853 QCURVE SMOOTH",
"461 853 OFFCURVE",
"360 893 OFFCURVE",
"310 893 OFFCURVE",
"278 877 OFFCURVE",
"249 827 OFFCURVE",
"226 755 QCURVE",
"238 751 LINE",
"255 792 OFFCURVE",
"293 792 QCURVE SMOOTH",
"312 792 OFFCURVE",
"418 752 OFFCURVE",
"484 752 OFFCURVE",
"529 812 OFFCURVE",
"549 891 QCURVE",
"549 891 LINE"
);
}
);
width = 748;
}
);
leftKerningGroup = C;
note = Otilde;
rightKerningGroup = O;
unicode = 00D5;
},
{
glyphname = Odieresis;
layers = (
{
layerId = "A70DCACA-0340-40F6-B519-7C37231E9414";
paths = (
{
closed = 1;
nodes = (
"501 144 OFFCURVE",
"454 11 OFFCURVE",
"375 11 QCURVE SMOOTH",
"310 11 OFFCURVE",
"279 60 QCURVE SMOOTH",
"265 82 OFFCURVE",
"246 185 OFFCURVE",
"246 307 QCURVE SMOOTH",
"246 379 LINE SMOOTH",
"246 492 OFFCURVE",
"252 550 QCURVE SMOOTH",
"257 590 OFFCURVE",
"274 634 OFFCURVE",
"302 674 OFFCURVE",
"345 690 OFFCURVE",
"405 690 OFFCURVE",
"426 682 QCURVE SMOOTH",
"463 669 OFFCURVE",
"483 614 QCURVE SMOOTH",
"501 566 OFFCURVE",
"501 383 QCURVE SMOOTH",
"501 309 LINE",
"501 309 LINE"
);
},
{
closed = 1;
nodes = (
"707 180 OFFCURVE",
"707 524 OFFCURVE",
"542 711 OFFCURVE",
"218 711 OFFCURVE",
"41 514 OFFCURVE",
"41 171 OFFCURVE",
"206 -10 OFFCURVE",
"540 -10 OFFCURVE"
);
},
{
closed = 1;
nodes = (
"508 746 OFFCURVE",
"547 787 OFFCURVE",
"547 857 OFFCURVE",
"506 894 OFFCURVE",
"437 894 OFFCURVE",
"398 852 OFFCURVE",
"398 790 OFFCURVE",
"434 746 OFFCURVE"
);
},
{
closed = 1;
nodes = (
"315 746 OFFCURVE",
"354 787 OFFCURVE",
"354 857 OFFCURVE",
"313 894 OFFCURVE",
"244 894 OFFCURVE",
"205 852 OFFCURVE",
"205 790 OFFCURVE",
"241 746 OFFCURVE"
);
}
);
width = 748;
}
);
leftKerningGroup = C;
note = Odieresis;
rightKerningGroup = O;
unicode = 00D6;
},
{
glyphname = multiply;
layers = (
{
layerId = "A70DCACA-0340-40F6-B519-7C37231E9414";
paths = (
{
closed = 1;
nodes = (
"413 488 LINE",
"264 339 LINE",
"116 487 LINE",
"93 463 LINE",
"240 315 LINE",
"92 167 LINE",
"116 143 LINE",
"264 291 LINE",
"411 144 LINE",
"435 167 LINE",
"287 315 LINE",
"437 464 LINE",
"437 464 LINE"
);
}
);
width = 530;
}
);
note = multiply;
unicode = 00D7;
},
{
glyphname = Oslash;
layers = (
{
layerId = "A70DCACA-0340-40F6-B519-7C37231E9414";
paths = (
{
closed = 1;
nodes = (
"41 80 OFFCURVE",
"229 12 QCURVE",
"200 -64 LINE",
"225 -74 LINE",
"254 4 LINE",
"308 -10 OFFCURVE",
"371 -10 QCURVE SMOOTH",
"540 -10 OFFCURVE",
"707 180 OFFCURVE",
"707 352 QCURVE SMOOTH",
"707 622 OFFCURVE",
"514 690 QCURVE",
"540 759 LINE",
"515 769 LINE",
"488 698 LINE",
"442 711 OFFCURVE",
"383 711 QCURVE SMOOTH",
"218 711 OFFCURVE",
"41 514 OFFCURVE",
"41 339 QCURVE",
"41 339 LINE"
);
},
{
closed = 1;
nodes = (
"501 144 OFFCURVE",
"454 11 OFFCURVE",
"306 11 OFFCURVE",
"277 64 QCURVE",
"484 610 LINE",
"501 552 OFFCURVE",
"501 383 QCURVE SMOOTH",
"501 309 LINE",
"501 309 LINE"
);
},
{
closed = 1;
nodes = (
"246 379 LINE SMOOTH",
"246 492 OFFCURVE",
"254 562 QCURVE SMOOTH",
"260 613 OFFCURVE",
"288 654 QCURVE SMOOTH",
"313 690 OFFCURVE",
"375 690 QCURVE SMOOTH",
"441 690 OFFCURVE",
"468 645 QCURVE",
"262 101 LINE",
"246 158 OFFCURVE",
"246 307 QCURVE",
"246 307 LINE"
);
}
);
width = 748;
}
);
leftKerningGroup = C;
note = Oslash;
rightKerningGroup = O;
unicode = 00D8;
},
{
glyphname = Ugrave;
layers = (
{
layerId = "A70DCACA-0340-40F6-B519-7C37231E9414";
paths = (
{
closed = 1;
nodes = (
"271 681 LINE",
"336 681 LINE",
"336 700 LINE",
"21 700 LINE",
"21 681 LINE",
"76 681 LINE",
"76 247 LINE SMOOTH",
"76 106 OFFCURVE",
"223 -10 OFFCURVE",
"502 -10 OFFCURVE",
"612 112 OFFCURVE",
"612 236 QCURVE SMOOTH",
"612 681 LINE",
"667 681 LINE",
"667 700 LINE",
"521 700 LINE",
"521 681 LINE",
"586 681 LINE",
"586 229 LINE SMOOTH",
"586 125 OFFCURVE",
"498 23 OFFCURVE",
"334 23 OFFCURVE",
"271 121 OFFCURVE",
"271 213 QCURVE",
"271 213 LINE"
);
},
{
closed = 1;
nodes = (
"302 901 LINE SMOOTH",
"277 899 OFFCURVE",
"254 873 OFFCURVE",
"254 856 QCURVE SMOOTH",
"254 816 OFFCURVE",
"298 798 QCURVE SMOOTH",
"457 733 LINE",
"465 743 LINE",
"350 905 LINE",
"350 905 LINE"
);
}
);
width = 683;
}
);
leftKerningGroup = U;
note = Ugrave;
rightKerningGroup = U;
unicode = 00D9;
},
{
glyphname = Uacute;
layers = (
{
layerId = "A70DCACA-0340-40F6-B519-7C37231E9414";
paths = (
{
closed = 1;
nodes = (
"271 681 LINE",
"336 681 LINE",
"336 700 LINE",
"21 700 LINE",
"21 681 LINE",
"76 681 LINE",
"76 247 LINE SMOOTH",
"76 106 OFFCURVE",
"223 -10 OFFCURVE",
"502 -10 OFFCURVE",
"612 112 OFFCURVE",
"612 236 QCURVE SMOOTH",
"612 681 LINE",
"667 681 LINE",
"667 700 LINE",
"521 700 LINE",
"521 681 LINE",
"586 681 LINE",
"586 229 LINE SMOOTH",
"586 125 OFFCURVE",
"498 23 OFFCURVE",
"334 23 OFFCURVE",
"271 121 OFFCURVE",
"271 213 QCURVE",
"271 213 LINE"
);
},
{
closed = 1;
nodes = (
"290 733 LINE",
"449 798 LINE SMOOTH",
"493 816 OFFCURVE",
"493 856 QCURVE SMOOTH",
"493 873 OFFCURVE",
"470 899 OFFCURVE",
"445 901 QCURVE SMOOTH",
"397 905 LINE",
"282 743 LINE",
"282 743 LINE"
);
}
);
width = 683;
}
);
leftKerningGroup = U;
note = Uacute;
rightKerningGroup = U;
unicode = 00DA;
},
{
glyphname = Ucircumflex;
layers = (
{
layerId = "A70DCACA-0340-40F6-B519-7C37231E9414";
paths = (
{
closed = 1;
nodes = (
"271 681 LINE",
"336 681 LINE",
"336 700 LINE",
"21 700 LINE",
"21 681 LINE",
"76 681 LINE",
"76 247 LINE SMOOTH",
"76 106 OFFCURVE",
"223 -10 OFFCURVE",
"502 -10 OFFCURVE",
"612 112 OFFCURVE",
"612 236 QCURVE SMOOTH",
"612 681 LINE",
"667 681 LINE",
"667 700 LINE",
"521 700 LINE",
"521 681 LINE",
"586 681 LINE",
"586 229 LINE SMOOTH",
"586 125 OFFCURVE",
"498 23 OFFCURVE",
"334 23 OFFCURVE",
"271 121 OFFCURVE",
"271 213 QCURVE",
"271 213 LINE"
);
},
{
closed = 1;
nodes = (
"226 733 LINE",
"372 801 LINE",
"514 733 LINE",
"523 743 LINE",
"449 867 LINE SMOOTH",
"426 907 OFFCURVE",
"379 907 QCURVE SMOOTH",
"352 907 OFFCURVE",
"324 891 QCURVE",
"218 743 LINE",
"218 743 LINE"
);
}
);
width = 683;
}
);
leftKerningGroup = U;
note = Ucircumflex;
rightKerningGroup = U;
unicode = 00DB;
},
{
glyphname = Udieresis;
layers = (
{
layerId = "A70DCACA-0340-40F6-B519-7C37231E9414";
paths = (
{
closed = 1;
nodes = (
"271 681 LINE",
"336 681 LINE",
"336 700 LINE",
"21 700 LINE",
"21 681 LINE",
"76 681 LINE",
"76 247 LINE SMOOTH",
"76 106 OFFCURVE",
"223 -10 OFFCURVE",
"502 -10 OFFCURVE",
"612 112 OFFCURVE",
"612 236 QCURVE SMOOTH",
"612 681 LINE",
"667 681 LINE",
"667 700 LINE",
"521 700 LINE",
"521 681 LINE",
"586 681 LINE",
"586 229 LINE SMOOTH",
"586 125 OFFCURVE",
"498 23 OFFCURVE",
"334 23 OFFCURVE",
"271 121 OFFCURVE",
"271 213 QCURVE",
"271 213 LINE"
);
},
{
closed = 1;
nodes = (
"502 746 OFFCURVE",
"541 787 OFFCURVE",
"541 857 OFFCURVE",
"500 894 OFFCURVE",
"431 894 OFFCURVE",
"392 852 OFFCURVE",
"392 790 OFFCURVE",
"428 746 OFFCURVE"
);
},
{
closed = 1;
nodes = (
"309 746 OFFCURVE",
"348 787 OFFCURVE",
"348 857 OFFCURVE",
"307 894 OFFCURVE",
"238 894 OFFCURVE",
"199 852 OFFCURVE",
"199 790 OFFCURVE",
"235 746 OFFCURVE"
);
}
);
width = 683;
}
);
leftKerningGroup = U;
note = Udieresis;
rightKerningGroup = U;
unicode = 00DC;
},
{
glyphname = Yacute;
layers = (
{
layerId = "A70DCACA-0340-40F6-B519-7C37231E9414";
paths = (
{
closed = 1;
nodes = (
"261 684 LINE",
"326 684 LINE",
"326 700 LINE",
"6 700 LINE",
"6 684 LINE",
"53 684 LINE",
"223 331 LINE",
"223 19 LINE",
"162 19 LINE",
"162 0 LINE",
"479 0 LINE",
"479 19 LINE",
"418 19 LINE",
"418 350 LINE",
"569 684 LINE",
"635 684 LINE",
"635 700 LINE",
"438 700 LINE",
"438 684 LINE",
"539 684 LINE",
"397 371 LINE",
"397 371 LINE"
);
},
{
closed = 1;
nodes = (
"269 733 LINE",
"428 798 LINE SMOOTH",
"472 816 OFFCURVE",
"472 856 QCURVE SMOOTH",
"472 873 OFFCURVE",
"449 899 OFFCURVE",
"424 901 QCURVE SMOOTH",
"376 905 LINE",
"261 743 LINE",
"261 743 LINE"
);
}
);
width = 641;
}
);
leftKerningGroup = Y;
note = Yacute;
rightKerningGroup = Y;
unicode = 00DD;
},
{
glyphname = Thorn;
layers = (
{
layerId = "A70DCACA-0340-40F6-B519-7C37231E9414";
paths = (
{
closed = 1;
nodes = (
"400 681 LINE",
"400 700 LINE",
"15 700 LINE",
"15 681 LINE",
"80 681 LINE",
"80 19 LINE",
"15 19 LINE",
"15 0 LINE",
"400 0 LINE",
"400 19 LINE",
"275 19 LINE",
"275 153 LINE",
"283 153 LINE SMOOTH",
"434 153 OFFCURVE",
"518 196 QCURVE SMOOTH",
"608 243 OFFCURVE",
"608 367 QCURVE SMOOTH",
"608 479 OFFCURVE",
"460 566 OFFCURVE",
"309 566 QCURVE SMOOTH",
"275 566 LINE",
"275 681 LINE",
"275 681 LINE"
);
},
{
closed = 1;
nodes = (
"302 547 LINE SMOOTH",
"359 547 OFFCURVE",
"402 479 OFFCURVE",
"402 394 QCURVE SMOOTH",
"402 346 LINE SMOOTH",
"402 254 OFFCURVE",
"356 172 OFFCURVE",
"296 172 QCURVE SMOOTH",
"275 172 LINE",
"275 547 LINE",
"275 547 LINE"
);
}
);
width = 634;
}
);
note = Thorn;
rightKerningGroup = P;
unicode = 00DE;
},
{
glyphname = germandbls;
layers = (
{
layerId = "A70DCACA-0340-40F6-B519-7C37231E9414";
paths = (
{
closed = 1;
nodes = (
"319 -10 LINE",
"328 31 OFFCURVE",
"350 31 QCURVE SMOOTH",
"360 31 OFFCURVE",
"381 19 QCURVE SMOOTH",
"432 -10 OFFCURVE",
"558 -10 OFFCURVE",
"659 85 OFFCURVE",
"659 161 QCURVE SMOOTH",
"659 211 OFFCURVE",
"622 285 OFFCURVE",
"566 322 OFFCURVE",
"502 354 OFFCURVE",
"446 374 OFFCURVE",
"409 408 OFFCURVE",
"409 454 OFFCURVE",
"446 506 OFFCURVE",
"489 546 OFFCURVE",
"526 613 OFFCURVE",
"526 649 QCURVE SMOOTH",
"526 701 OFFCURVE",
"447 773 OFFCURVE",
"353 773 QCURVE SMOOTH",
"218 773 OFFCURVE",
"65 634 OFFCURVE",
"65 469 QCURVE SMOOTH",
"65 18 LINE",
"-11 18 LINE",
"-11 0 LINE",
"251 0 LINE",
"251 604 LINE SMOOTH",
"251 673 OFFCURVE",
"298 751 OFFCURVE",
"429 751 OFFCURVE",
"497 697 OFFCURVE",
"497 590 OFFCURVE",
"434 529 QCURVE SMOOTH",
"408 504 OFFCURVE",
"355 452 OFFCURVE",
"318 381 OFFCURVE",
"318 285 OFFCURVE",
"370 211 OFFCURVE",
"445 176 OFFCURVE",
"520 149 OFFCURVE",
"572 109 OFFCURVE",
"572 78 QCURVE SMOOTH",
"572 12 OFFCURVE",
"480 12 QCURVE SMOOTH",
"369 12 OFFCURVE",
"319 169 QCURVE",
"307 169 LINE",
"307 -10 LINE",
"307 -10 LINE"
);
}
);
width = 674;
}
);
note = germandbls;
unicode = 00DF;
},
{
glyphname = aacute;
layers = (
{
layerId = "A70DCACA-0340-40F6-B519-7C37231E9414";
paths = (
{
closed = 1;
nodes = (
"133 235 OFFCURVE",
"20 182 OFFCURVE",
"20 111 QCURVE SMOOTH",
"20 -10 OFFCURVE",
"168 -10 QCURVE SMOOTH",
"218 -10 OFFCURVE",
"270 26 OFFCURVE",
"283 64 QCURVE",
"301 -10 OFFCURVE",
"421 -10 QCURVE SMOOTH",
"487 -10 OFFCURVE",
"545 56 OFFCURVE",
"549 144 QCURVE",
"534 145 LINE",
"528 42 OFFCURVE",
"494 42 QCURVE SMOOTH",
"465 42 OFFCURVE",
"465 94 QCURVE SMOOTH",
"465 297 LINE SMOOTH",
"465 405 OFFCURVE",
"374 486 OFFCURVE",
"255 486 QCURVE SMOOTH",
"46 486 OFFCURVE",
"46 363 QCURVE SMOOTH",
"46 280 OFFCURVE",
"132 280 QCURVE SMOOTH",
"170 280 OFFCURVE",
"220 323 OFFCURVE",
"220 382 OFFCURVE",
"212 403 QCURVE",
"187 403 LINE",
"181 420 OFFCURVE",
"181 453 OFFCURVE",
"210 472 OFFCURVE",
"228 472 QCURVE SMOOTH",
"258 472 OFFCURVE",
"279 407 OFFCURVE",
"279 312 QCURVE SMOOTH",
"279 235 LINE",
"250 235 LINE",
"250 235 LINE"
);
},
{
closed = 1;
nodes = (
"210 128 LINE SMOOTH",
"210 219 OFFCURVE",
"272 219 QCURVE SMOOTH",
"279 219 LINE",
"279 126 LINE SMOOTH",
"279 81 OFFCURVE",
"252 30 OFFCURVE",
"221 30 OFFCURVE",
"210 60 OFFCURVE",
"210 112 QCURVE",
"210 112 LINE"
);
},
{
closed = 1;
nodes = (
"199 540 LINE",
"333 651 LINE SMOOTH",
"362 677 OFFCURVE",
"362 726 OFFCURVE",
"329 755 OFFCURVE",
"298 748 QCURVE SMOOTH",
"251 738 LINE",
"188 547 LINE",
"188 547 LINE"
);
}
);
width = 549;
}
);
leftKerningGroup = a;
note = aacute;
rightKerningGroup = a;
unicode = 00E1;
},
{
glyphname = atilde;
layers = (
{
layerId = "A70DCACA-0340-40F6-B519-7C37231E9414";
paths = (
{
closed = 1;
nodes = (
"133 235 OFFCURVE",
"20 182 OFFCURVE",
"20 111 QCURVE SMOOTH",
"20 -10 OFFCURVE",
"168 -10 QCURVE SMOOTH",
"218 -10 OFFCURVE",
"270 26 OFFCURVE",
"283 64 QCURVE",
"301 -10 OFFCURVE",
"421 -10 QCURVE SMOOTH",
"487 -10 OFFCURVE",
"545 56 OFFCURVE",
"549 144 QCURVE",
"534 145 LINE",
"528 42 OFFCURVE",
"494 42 QCURVE SMOOTH",
"465 42 OFFCURVE",
"465 94 QCURVE SMOOTH",
"465 297 LINE SMOOTH",
"465 405 OFFCURVE",
"374 486 OFFCURVE",
"255 486 QCURVE SMOOTH",
"46 486 OFFCURVE",
"46 363 QCURVE SMOOTH",
"46 280 OFFCURVE",
"132 280 QCURVE SMOOTH",
"170 280 OFFCURVE",
"220 323 OFFCURVE",
"220 382 OFFCURVE",
"212 403 QCURVE",
"187 403 LINE",
"181 420 OFFCURVE",
"181 453 OFFCURVE",
"210 472 OFFCURVE",
"228 472 QCURVE SMOOTH",
"258 472 OFFCURVE",
"279 407 OFFCURVE",
"279 312 QCURVE SMOOTH",
"279 235 LINE",
"250 235 LINE",
"250 235 LINE"
);
},
{
closed = 1;
nodes = (
"210 128 LINE SMOOTH",
"210 219 OFFCURVE",
"272 219 QCURVE SMOOTH",
"279 219 LINE",
"279 126 LINE SMOOTH",
"279 81 OFFCURVE",
"252 30 OFFCURVE",
"221 30 OFFCURVE",
"210 60 OFFCURVE",
"210 112 QCURVE",
"210 112 LINE"
);
},
{
closed = 1;
nodes = (
"420 714 LINE",
"406 672 OFFCURVE",
"362 672 QCURVE SMOOTH",
"345 672 OFFCURVE",
"244 712 OFFCURVE",
"217 712 QCURVE SMOOTH",
"173 712 OFFCURVE",
"123 641 OFFCURVE",
"100 566 QCURVE",
"112 562 LINE",
"129 603 OFFCURVE",
"167 603 QCURVE SMOOTH",
"186 603 OFFCURVE",
"292 563 OFFCURVE",
"326 563 QCURVE SMOOTH",
"395 563 OFFCURVE",
"433 710 QCURVE",
"433 710 LINE"
);
}
);
width = 549;
}
);
leftKerningGroup = a;
note = atilde;
rightKerningGroup = a;
unicode = 00E3;
},
{
glyphname = aring;
layers = (
{
layerId = "A70DCACA-0340-40F6-B519-7C37231E9414";
paths = (
{
closed = 1;
nodes = (
"133 235 OFFCURVE",
"20 182 OFFCURVE",
"20 111 QCURVE SMOOTH",
"20 -10 OFFCURVE",
"168 -10 QCURVE SMOOTH",
"218 -10 OFFCURVE",
"270 26 OFFCURVE",
"283 64 QCURVE",
"301 -10 OFFCURVE",
"421 -10 QCURVE SMOOTH",
"487 -10 OFFCURVE",
"545 56 OFFCURVE",
"549 144 QCURVE",
"534 145 LINE",
"528 42 OFFCURVE",
"494 42 QCURVE SMOOTH",
"465 42 OFFCURVE",
"465 94 QCURVE SMOOTH",
"465 297 LINE SMOOTH",
"465 405 OFFCURVE",
"374 486 OFFCURVE",
"255 486 QCURVE SMOOTH",
"46 486 OFFCURVE",
"46 363 QCURVE SMOOTH",
"46 280 OFFCURVE",
"132 280 QCURVE SMOOTH",
"170 280 OFFCURVE",
"220 323 OFFCURVE",
"220 382 OFFCURVE",
"212 403 QCURVE",
"187 403 LINE",
"181 420 OFFCURVE",
"181 453 OFFCURVE",
"210 472 OFFCURVE",
"228 472 QCURVE SMOOTH",
"258 472 OFFCURVE",
"279 407 OFFCURVE",
"279 312 QCURVE SMOOTH",
"279 235 LINE",
"250 235 LINE",
"250 235 LINE"
);
},
{
closed = 1;
nodes = (
"210 128 LINE SMOOTH",
"210 219 OFFCURVE",
"272 219 QCURVE SMOOTH",
"279 219 LINE",
"279 126 LINE SMOOTH",
"279 81 OFFCURVE",
"252 30 OFFCURVE",
"221 30 OFFCURVE",
"210 60 OFFCURVE",
"210 112 QCURVE",
"210 112 LINE"
);
},
{
closed = 1;
nodes = (
"186 662 OFFCURVE",
"220 703 OFFCURVE",
"293 703 OFFCURVE",
"329 662 OFFCURVE",
"329 600 OFFCURVE",
"293 559 OFFCURVE",
"258 559 QCURVE SMOOTH",
"186 559 OFFCURVE",
"186 632 QCURVE",
"186 632 LINE"
);
},
{
closed = 1;
nodes = (
"358 589 OFFCURVE",
"358 676 OFFCURVE",
"307 727 OFFCURVE",
"209 727 OFFCURVE",
"156 673 OFFCURVE",
"156 587 OFFCURVE",
"206 535 OFFCURVE",
"305 535 OFFCURVE"
);
}
);
width = 549;
}
);
leftKerningGroup = a;
note = aring;
rightKerningGroup = a;
unicode = 00E5;
},
{
glyphname = ae;
layers = (
{
layerId = "A70DCACA-0340-40F6-B519-7C37231E9414";
paths = (
{
closed = 1;
nodes = (
"250 235 LINE SMOOTH",
"133 235 OFFCURVE",
"20 182 OFFCURVE",
"20 111 QCURVE SMOOTH",
"20 -10 OFFCURVE",
"173 -10 QCURVE SMOOTH",
"294 -10 OFFCURVE",
"328 70 QCURVE",
"390 -10 OFFCURVE",
"529 -10 QCURVE SMOOTH",
"628 -10 OFFCURVE",
"727 70 OFFCURVE",
"746 142 QCURVE",
"728 145 LINE",
"692 21 OFFCURVE",
"576 21 QCURVE SMOOTH",
"514 21 OFFCURVE",
"464 121 OFFCURVE",
"464 219 QCURVE SMOOTH",
"464 258 LINE",
"746 258 LINE",
"755 486 OFFCURVE",
"541 486 QCURVE SMOOTH",
"436 486 OFFCURVE",
"389 423 QCURVE",
"346 486 OFFCURVE",
"237 486 QCURVE SMOOTH",
"150 486 OFFCURVE",
"46 424 OFFCURVE",
"46 363 QCURVE SMOOTH",
"46 280 OFFCURVE",
"132 280 QCURVE SMOOTH",
"170 280 OFFCURVE",
"220 323 OFFCURVE",
"220 382 OFFCURVE",
"212 403 QCURVE",
"187 403 LINE",
"181 420 OFFCURVE",
"181 453 OFFCURVE",
"210 472 OFFCURVE",
"228 472 QCURVE SMOOTH",
"258 472 OFFCURVE",
"279 407 OFFCURVE",
"279 312 QCURVE SMOOTH",
"279 235 LINE",
"279 235 LINE"
);
},
{
closed = 1;
nodes = (
"465 327 LINE SMOOTH",
"465 404 OFFCURVE",
"492 467 OFFCURVE",
"549 467 OFFCURVE",
"568 408 OFFCURVE",
"568 327 QCURVE SMOOTH",
"568 278 LINE",
"465 278 LINE",
"465 278 LINE"
);
},
{
closed = 1;
nodes = (
"210 128 LINE SMOOTH",
"210 219 OFFCURVE",
"272 219 QCURVE SMOOTH",
"279 219 LINE",
"279 218 LINE SMOOTH",
"282 141 OFFCURVE",
"314 89 QCURVE",
"305 59 OFFCURVE",
"266 30 OFFCURVE",
"229 30 OFFCURVE",
"210 62 OFFCURVE",
"210 112 QCURVE",
"210 112 LINE"
);
}
);
width = 772;
}
);
leftKerningGroup = a;
note = ae;
rightKerningGroup = e;
unicode = 00E6;
},
{
glyphname = ccedilla;
layers = (
{
layerId = "A70DCACA-0340-40F6-B519-7C37231E9414";
paths = (
{
closed = 1;
nodes = (
"338 468 OFFCURVE",
"338 420 QCURVE SMOOTH",
"338 404 OFFCURVE",
"331 384 QCURVE",
"298 384 LINE",
"293 366 OFFCURVE",
"293 348 QCURVE SMOOTH",
"293 307 OFFCURVE",
"341 265 OFFCURVE",
"420 265 OFFCURVE",
"465 313 OFFCURVE",
"465 417 OFFCURVE",
"371 486 OFFCURVE",
"282 486 QCURVE SMOOTH",
"156 486 OFFCURVE",
"15 356 OFFCURVE",
"15 115 OFFCURVE",
"138 -9 OFFCURVE",
"254 -10 QCURVE",
"221 -65 LINE",
"224 -74 LINE",
"240 -70 OFFCURVE",
"254 -70 QCURVE SMOOTH",
"281 -70 OFFCURVE",
"284 -106 QCURVE SMOOTH",
"286 -121 OFFCURVE",
"286 -194 OFFCURVE",
"269 -229 OFFCURVE",
"232 -229 OFFCURVE",
"216 -206 OFFCURVE",
"216 -192 QCURVE",
"242 -172 LINE",
"230 -134 OFFCURVE",
"196 -134 QCURVE SMOOTH",
"177 -134 OFFCURVE",
"153 -158 OFFCURVE",
"153 -208 OFFCURVE",
"210 -245 OFFCURVE",
"256 -245 QCURVE SMOOTH",
"326 -245 OFFCURVE",
"392 -182 OFFCURVE",
"392 -141 QCURVE SMOOTH",
"392 -52 OFFCURVE",
"287 -52 QCURVE SMOOTH",
"275 -52 OFFCURVE",
"254 -55 QCURVE",
"281 -9 LINE",
"361 -3 OFFCURVE",
"406 34 QCURVE SMOOTH",
"449 71 OFFCURVE",
"468 153 QCURVE",
"450 155 LINE",
"440 104 OFFCURVE",
"370 24 OFFCURVE",
"252 24 OFFCURVE",
"208 110 OFFCURVE",
"208 209 QCURVE SMOOTH",
"208 261 LINE SMOOTH",
"208 372 OFFCURVE",
"246 468 OFFCURVE",
"290 468 QCURVE",
"290 468 LINE"
);
}
);
width = 483;
}
);
leftKerningGroup = c;
note = ccedilla;
rightKerningGroup = c;
unicode = 00E7;
},
{
glyphname = eacute;
layers = (
{
layerId = "A70DCACA-0340-40F6-B519-7C37231E9414";
paths = (
{
closed = 1;
nodes = (
"372 -10 OFFCURVE",
"471 70 OFFCURVE",
"490 142 QCURVE",
"472 145 LINE",
"436 21 OFFCURVE",
"320 21 QCURVE SMOOTH",
"258 21 OFFCURVE",
"208 121 OFFCURVE",
"208 219 QCURVE SMOOTH",
"208 258 LINE",
"490 258 LINE",
"499 486 OFFCURVE",
"272 486 QCURVE SMOOTH",
"160 486 OFFCURVE",
"15 360 OFFCURVE",
"15 123 OFFCURVE",
"144 -10 OFFCURVE",
"273 -10 QCURVE",
"273 -10 LINE"
);
},
{
closed = 1;
nodes = (
"209 278 LINE",
"209 327 LINE SMOOTH",
"209 404 OFFCURVE",
"236 467 OFFCURVE",
"293 467 OFFCURVE",
"312 408 OFFCURVE",
"312 327 QCURVE SMOOTH",
"312 278 LINE",
"312 278 LINE"
);
},
{
closed = 1;
nodes = (
"209 540 LINE",
"343 651 LINE SMOOTH",
"372 677 OFFCURVE",
"372 726 OFFCURVE",
"339 755 OFFCURVE",
"308 748 QCURVE SMOOTH",
"261 738 LINE",
"198 547 LINE",
"198 547 LINE"
);
}
);
width = 516;
}
);
leftKerningGroup = c;
note = eacute;
rightKerningGroup = e;
unicode = 00E9;
},
{
glyphname = edieresis;
layers = (
{
layerId = "A70DCACA-0340-40F6-B519-7C37231E9414";
paths = (
{
closed = 1;
nodes = (
"372 -10 OFFCURVE",
"471 70 OFFCURVE",
"490 142 QCURVE",
"472 145 LINE",
"436 21 OFFCURVE",
"320 21 QCURVE SMOOTH",
"258 21 OFFCURVE",
"208 121 OFFCURVE",
"208 219 QCURVE SMOOTH",
"208 258 LINE",
"490 258 LINE",
"499 486 OFFCURVE",
"272 486 QCURVE SMOOTH",
"160 486 OFFCURVE",
"15 360 OFFCURVE",
"15 123 OFFCURVE",
"144 -10 OFFCURVE",
"273 -10 QCURVE",
"273 -10 LINE"
);
},
{
closed = 1;
nodes = (
"209 327 LINE SMOOTH",
"209 404 OFFCURVE",
"236 467 OFFCURVE",
"293 467 OFFCURVE",
"312 408 OFFCURVE",
"312 327 QCURVE SMOOTH",
"312 278 LINE",
"209 278 LINE",
"209 278 LINE"
);
},
{
closed = 1;
nodes = (
"399 558 OFFCURVE",
"438 599 OFFCURVE",
"438 669 OFFCURVE",
"397 706 OFFCURVE",
"328 706 OFFCURVE",
"289 664 OFFCURVE",
"289 602 OFFCURVE",
"325 558 OFFCURVE"
);
},
{
closed = 1;
nodes = (
"206 558 OFFCURVE",
"245 599 OFFCURVE",
"245 669 OFFCURVE",
"204 706 OFFCURVE",
"135 706 OFFCURVE",
"96 664 OFFCURVE",
"96 602 OFFCURVE",
"132 558 OFFCURVE"
);
}
);
width = 516;
}
);
leftKerningGroup = c;
note = edieresis;
rightKerningGroup = e;
unicode = 00EB;
},
{
glyphname = igrave;
layers = (
{
layerId = "A70DCACA-0340-40F6-B519-7C37231E9414";
paths = (
{
closed = 1;
nodes = (
"100 748 LINE SMOOTH",
"69 755 OFFCURVE",
"36 726 OFFCURVE",
"36 677 OFFCURVE",
"65 651 QCURVE SMOOTH",
"199 540 LINE",
"210 547 LINE",
"147 738 LINE",
"147 738 LINE"
);
},
{
closed = 1;
nodes = (
"6 458 LINE",
"65 458 LINE",
"65 18 LINE",
"10 18 LINE",
"10 0 LINE",
"307 0 LINE",
"307 18 LINE",
"251 18 LINE",
"251 476 LINE",
"6 476 LINE",
"6 476 LINE"
);
}
);
width = 317;
}
);
leftKerningGroup = i;
note = igrave;
rightKerningGroup = i;
unicode = 00EC;
},
{
glyphname = iacute;
layers = (
{
layerId = "A70DCACA-0340-40F6-B519-7C37231E9414";
paths = (
{
closed = 1;
nodes = (
"96 540 LINE",
"230 651 LINE SMOOTH",
"259 677 OFFCURVE",
"259 726 OFFCURVE",
"226 755 OFFCURVE",
"195 748 QCURVE SMOOTH",
"148 738 LINE",
"85 547 LINE",
"85 547 LINE"
);
},
{
closed = 1;
nodes = (
"6 458 LINE",
"65 458 LINE",
"65 18 LINE",
"10 18 LINE",
"10 0 LINE",
"307 0 LINE",
"307 18 LINE",
"251 18 LINE",
"251 476 LINE",
"6 476 LINE",
"6 476 LINE"
);
}
);
width = 317;
}
);
leftKerningGroup = i;
note = iacute;
rightKerningGroup = i;
unicode = 00ED;
},
{
glyphname = icircumflex;
layers = (
{
layerId = "A70DCACA-0340-40F6-B519-7C37231E9414";
paths = (
{
closed = 1;
nodes = (
"6 458 LINE",
"65 458 LINE",
"65 18 LINE",
"10 18 LINE",
"10 0 LINE",
"307 0 LINE",
"307 18 LINE",
"251 18 LINE",
"251 476 LINE",
"6 476 LINE",
"6 476 LINE"
);
},
{
closed = 1;
nodes = (
"16 523 LINE",
"141 628 LINE",
"266 524 LINE",
"277 531 LINE",
"216 690 LINE SMOOTH",
"197 738 OFFCURVE",
"152 738 QCURVE SMOOTH",
"123 738 OFFCURVE",
"93 722 QCURVE",
"4 532 LINE",
"4 532 LINE"
);
}
);
width = 317;
}
);
leftKerningGroup = i;
note = icircumflex;
rightKerningGroup = i;
unicode = 00EE;
},
{
glyphname = idieresis;
layers = (
{
layerId = "A70DCACA-0340-40F6-B519-7C37231E9414";
paths = (
{
closed = 1;
nodes = (
"279 558 OFFCURVE",
"318 599 OFFCURVE",
"318 669 OFFCURVE",
"277 706 OFFCURVE",
"208 706 OFFCURVE",
"169 664 OFFCURVE",
"169 602 OFFCURVE",
"205 558 OFFCURVE"
);
},
{
closed = 1;
nodes = (
"86 558 OFFCURVE",
"125 599 OFFCURVE",
"125 669 OFFCURVE",
"84 706 OFFCURVE",
"15 706 OFFCURVE",
"-24 664 OFFCURVE",
"-24 602 OFFCURVE",
"12 558 OFFCURVE"
);
},
{
closed = 1;
nodes = (
"6 458 LINE",
"65 458 LINE",
"65 18 LINE",
"10 18 LINE",
"10 0 LINE",
"307 0 LINE",
"307 18 LINE",
"251 18 LINE",
"251 476 LINE",
"6 476 LINE",
"6 476 LINE"
);
}
);
width = 317;
}
);
leftKerningGroup = i;
note = idieresis;
rightKerningGroup = i;
unicode = 00EF;
},
{
glyphname = eth;
layers = (
{
layerId = "A70DCACA-0340-40F6-B519-7C37231E9414";
paths = (
{
closed = 1;
nodes = (
"307 649 LINE",
"352 579 OFFCURVE",
"360 431 QCURVE",
"332 494 OFFCURVE",
"249 494 QCURVE SMOOTH",
"142 494 OFFCURVE",
"20 358 OFFCURVE",
"20 117 OFFCURVE",
"150 -10 OFFCURVE",
"278 -10 QCURVE SMOOTH",
"342 -10 OFFCURVE",
"438 29 OFFCURVE",
"466 60 QCURVE SMOOTH",
"540 142 OFFCURVE",
"540 332 QCURVE SMOOTH",
"540 598 OFFCURVE",
"390 703 QCURVE",
"481 763 LINE",
"473 788 LINE",
"367 718 LINE",
"261 778 OFFCURVE",
"91 765 QCURVE",
"89 749 LINE",
"227 750 OFFCURVE",
"293 669 QCURVE",
"187 600 LINE",
"195 575 LINE",
"195 575 LINE"
);
},
{
closed = 1;
nodes = (
"344 91 OFFCURVE",
"320 8 OFFCURVE",
"238 8 OFFCURVE",
"213 99 OFFCURVE",
"213 199 QCURVE SMOOTH",
"213 277 LINE SMOOTH",
"213 375 OFFCURVE",
"239 468 OFFCURVE",
"320 468 OFFCURVE",
"344 376 OFFCURVE",
"344 282 QCURVE SMOOTH",
"344 197 LINE",
"344 197 LINE"
);
}
);
width = 560;
}
);
leftKerningGroup = c;
note = eth;
unicode = 00F0;
},
{
glyphname = ntilde;
layers = (
{
layerId = "A70DCACA-0340-40F6-B519-7C37231E9414";
paths = (
{
closed = 1;
nodes = (
"10 458 LINE",
"65 458 LINE",
"65 18 LINE",
"10 18 LINE",
"10 0 LINE",
"294 0 LINE",
"294 18 LINE",
"251 18 LINE",
"251 294 LINE SMOOTH",
"251 354 OFFCURVE",
"300 438 OFFCURVE",
"332 438 QCURVE SMOOTH",
"353 438 OFFCURVE",
"369 403 OFFCURVE",
"369 343 QCURVE SMOOTH",
"369 18 LINE",
"328 18 LINE",
"328 0 LINE",
"611 0 LINE",
"611 18 LINE",
"555 18 LINE",
"555 319 LINE SMOOTH",
"555 486 OFFCURVE",
"400 486 QCURVE SMOOTH",
"333 486 OFFCURVE",
"267 430 OFFCURVE",
"251 384 QCURVE",
"251 476 LINE",
"10 476 LINE",
"10 476 LINE"
);
},
{
closed = 1;
nodes = (
"468 714 LINE",
"454 672 OFFCURVE",
"410 672 QCURVE SMOOTH",
"393 672 OFFCURVE",
"292 712 OFFCURVE",
"265 712 QCURVE SMOOTH",
"221 712 OFFCURVE",
"171 641 OFFCURVE",
"148 566 QCURVE",
"160 562 LINE",
"177 603 OFFCURVE",
"215 603 QCURVE SMOOTH",
"234 603 OFFCURVE",
"340 563 OFFCURVE",
"374 563 QCURVE SMOOTH",
"443 563 OFFCURVE",
"481 710 QCURVE",
"481 710 LINE"
);
}
);
width = 616;
}
);
leftKerningGroup = m;
note = ntilde;
rightKerningGroup = h;
unicode = 00F1;
},
{
glyphname = oacute;
layers = (
{
layerId = "A70DCACA-0340-40F6-B519-7C37231E9414";
paths = (
{
closed = 1;
nodes = (
"333 85 OFFCURVE",
"324 53 QCURVE SMOOTH",
"312 8 OFFCURVE",
"273 8 QCURVE SMOOTH",
"241 8 OFFCURVE",
"230 32 QCURVE SMOOTH",
"223 46 OFFCURVE",
"210 90 OFFCURVE",
"210 199 QCURVE SMOOTH",
"210 277 LINE SMOOTH",
"210 369 OFFCURVE",
"219 414 QCURVE SMOOTH",
"225 443 OFFCURVE",
"252 468 OFFCURVE",
"274 468 QCURVE SMOOTH",
"312 468 OFFCURVE",
"333 379 OFFCURVE",
"333 282 QCURVE SMOOTH",
"333 197 LINE",
"333 197 LINE"
);
},
{
closed = 1;
nodes = (
"525 -10 OFFCURVE",
"525 245 QCURVE SMOOTH",
"525 367 OFFCURVE",
"403 486 OFFCURVE",
"155 486 OFFCURVE",
"18 357 OFFCURVE",
"18 118 OFFCURVE",
"146 -10 OFFCURVE",
"271 -10 QCURVE",
"271 -10 LINE"
);
},
{
closed = 1;
nodes = (
"216 540 LINE",
"350 651 LINE SMOOTH",
"379 677 OFFCURVE",
"379 726 OFFCURVE",
"346 755 OFFCURVE",
"315 748 QCURVE SMOOTH",
"268 738 LINE",
"205 547 LINE",
"205 547 LINE"
);
}
);
width = 543;
}
);
leftKerningGroup = c;
note = oacute;
rightKerningGroup = e;
unicode = 00F3;
},
{
glyphname = otilde;
layers = (
{
layerId = "A70DCACA-0340-40F6-B519-7C37231E9414";
paths = (
{
closed = 1;
nodes = (
"333 85 OFFCURVE",
"324 53 QCURVE SMOOTH",
"312 8 OFFCURVE",
"273 8 QCURVE SMOOTH",
"241 8 OFFCURVE",
"230 32 QCURVE SMOOTH",
"223 46 OFFCURVE",
"210 90 OFFCURVE",
"210 199 QCURVE SMOOTH",
"210 277 LINE SMOOTH",
"210 369 OFFCURVE",
"219 414 QCURVE SMOOTH",
"225 443 OFFCURVE",
"252 468 OFFCURVE",
"274 468 QCURVE SMOOTH",
"312 468 OFFCURVE",
"333 379 OFFCURVE",
"333 282 QCURVE SMOOTH",
"333 197 LINE",
"333 197 LINE"
);
},
{
closed = 1;
nodes = (
"525 -10 OFFCURVE",
"525 245 QCURVE SMOOTH",
"525 367 OFFCURVE",
"403 486 OFFCURVE",
"155 486 OFFCURVE",
"18 357 OFFCURVE",
"18 118 OFFCURVE",
"146 -10 OFFCURVE",
"271 -10 QCURVE",
"271 -10 LINE"
);
},
{
closed = 1;
nodes = (
"437 714 LINE",
"423 672 OFFCURVE",
"379 672 QCURVE SMOOTH",
"362 672 OFFCURVE",
"261 712 OFFCURVE",
"234 712 QCURVE SMOOTH",
"190 712 OFFCURVE",
"140 641 OFFCURVE",
"117 566 QCURVE",
"129 562 LINE",
"146 603 OFFCURVE",
"184 603 QCURVE SMOOTH",
"203 603 OFFCURVE",
"309 563 OFFCURVE",
"342 563 QCURVE SMOOTH",
"412 563 OFFCURVE",
"450 710 QCURVE",
"450 710 LINE"
);
}
);
width = 543;
}
);
leftKerningGroup = c;
note = otilde;
rightKerningGroup = e;
unicode = 00F5;
},
{
glyphname = divide;
layers = (
{
layerId = "A70DCACA-0340-40F6-B519-7C37231E9414";
paths = (
{
closed = 1;
nodes = (
"296 390 OFFCURVE",
"325 421 OFFCURVE",
"325 474 OFFCURVE",
"294 501 OFFCURVE",
"242 501 OFFCURVE",
"213 470 OFFCURVE",
"213 422 OFFCURVE",
"240 390 OFFCURVE"
);
},
{
closed = 1;
nodes = (
"296 136 OFFCURVE",
"325 167 OFFCURVE",
"325 220 OFFCURVE",
"294 247 OFFCURVE",
"242 247 OFFCURVE",
"213 216 OFFCURVE",
"213 168 OFFCURVE",
"240 136 OFFCURVE"
);
},
{
closed = 1;
nodes = (
"492 334 LINE",
"38 334 LINE",
"38 301 LINE",
"492 301 LINE",
"492 301 LINE"
);
}
);
width = 530;
}
);
note = divide;
unicode = 00F7;
},
{
glyphname = oslash;
layers = (
{
layerId = "A70DCACA-0340-40F6-B519-7C37231E9414";
paths = (
{
closed = 1;
nodes = (
"15 53 OFFCURVE",
"163 5 QCURVE",
"136 -67 LINE",
"158 -75 LINE",
"186 -1 LINE",
"225 -10 OFFCURVE",
"273 -10 QCURVE SMOOTH",
"531 -10 OFFCURVE",
"531 245 QCURVE SMOOTH",
"531 439 OFFCURVE",
"367 477 QCURVE",
"392 542 LINE",
"370 550 LINE",
"344 481 LINE",
"311 486 OFFCURVE",
"279 486 QCURVE SMOOTH",
"150 486 OFFCURVE",
"15 359 OFFCURVE",
"15 236 QCURVE",
"15 236 LINE"
);
},
{
closed = 1;
nodes = (
"339 91 OFFCURVE",
"315 8 OFFCURVE",
"275 8 QCURVE SMOOTH",
"227 8 OFFCURVE",
"215 75 QCURVE",
"334 389 LINE",
"339 352 OFFCURVE",
"339 282 QCURVE SMOOTH",
"339 197 LINE",
"339 197 LINE"
);
},
{
closed = 1;
nodes = (
"208 277 LINE SMOOTH",
"208 375 OFFCURVE",
"234 468 OFFCURVE",
"276 468 QCURVE SMOOTH",
"308 468 OFFCURVE",
"324 429 QCURVE",
"209 127 LINE",
"208 148 OFFCURVE",
"208 199 QCURVE",
"208 199 LINE"
);
}
);
width = 546;
}
);
leftKerningGroup = c;
note = oslash;
rightKerningGroup = e;
unicode = 00F8;
},
{
glyphname = uacute;
layers = (
{
layerId = "A70DCACA-0340-40F6-B519-7C37231E9414";
paths = (
{
closed = 1;
nodes = (
"595 18 LINE",
"540 18 LINE",
"540 476 LINE",
"308 476 LINE",
"308 458 LINE",
"354 458 LINE",
"354 152 LINE SMOOTH",
"354 97 OFFCURVE",
"314 35 OFFCURVE",
"263 35 OFFCURVE",
"246 73 OFFCURVE",
"246 133 QCURVE SMOOTH",
"246 476 LINE",
"4 476 LINE",
"4 458 LINE",
"60 458 LINE",
"60 157 LINE SMOOTH",
"60 -10 OFFCURVE",
"215 -10 QCURVE SMOOTH",
"277 -10 OFFCURVE",
"340 33 OFFCURVE",
"356 73 QCURVE",
"367 0 LINE",
"595 0 LINE",
"595 0 LINE"
);
},
{
closed = 1;
nodes = (
"234 540 LINE",
"368 651 LINE SMOOTH",
"397 677 OFFCURVE",
"397 726 OFFCURVE",
"364 755 OFFCURVE",
"333 748 QCURVE SMOOTH",
"286 738 LINE",
"223 547 LINE",
"223 547 LINE"
);
}
);
width = 605;
}
);
leftKerningGroup = u;
note = uacute;
rightKerningGroup = u;
unicode = 00FA;
},
{
glyphname = udieresis;
layers = (
{
layerId = "A70DCACA-0340-40F6-B519-7C37231E9414";
paths = (
{
closed = 1;
nodes = (
"595 18 LINE",
"540 18 LINE",
"540 476 LINE",
"308 476 LINE",
"308 458 LINE",
"354 458 LINE",
"354 152 LINE SMOOTH",
"354 97 OFFCURVE",
"314 35 OFFCURVE",
"263 35 OFFCURVE",
"246 73 OFFCURVE",
"246 133 QCURVE SMOOTH",
"246 476 LINE",
"4 476 LINE",
"4 458 LINE",
"60 458 LINE",
"60 157 LINE SMOOTH",
"60 -10 OFFCURVE",
"215 -10 QCURVE SMOOTH",
"277 -10 OFFCURVE",
"340 33 OFFCURVE",
"356 73 QCURVE",
"367 0 LINE",
"595 0 LINE",
"595 0 LINE"
);
},
{
closed = 1;
nodes = (
"424 558 OFFCURVE",
"463 599 OFFCURVE",
"463 669 OFFCURVE",
"422 706 OFFCURVE",
"353 706 OFFCURVE",
"314 664 OFFCURVE",
"314 602 OFFCURVE",
"350 558 OFFCURVE"
);
},
{
closed = 1;
nodes = (
"231 558 OFFCURVE",
"270 599 OFFCURVE",
"270 669 OFFCURVE",
"229 706 OFFCURVE",
"160 706 OFFCURVE",
"121 664 OFFCURVE",
"121 602 OFFCURVE",
"157 558 OFFCURVE"
);
}
);
width = 605;
}
);
leftKerningGroup = u;
note = udieresis;
rightKerningGroup = u;
unicode = 00FC;
},
{
glyphname = thorn;
layers = (
{
layerId = "A70DCACA-0340-40F6-B519-7C37231E9414";
paths = (
{
closed = 1;
nodes = (
"375 217 LINE SMOOTH",
"375 107 OFFCURVE",
"351 19 OFFCURVE",
"286 19 OFFCURVE",
"251 79 OFFCURVE",
"251 122 QCURVE SMOOTH",
"251 308 LINE SMOOTH",
"251 371 OFFCURVE",
"297 443 OFFCURVE",
"355 443 OFFCURVE",
"375 372 OFFCURVE",
"375 269 QCURVE",
"375 269 LINE"
);
},
{
closed = 1;
nodes = (
"10 -220 LINE",
"10 -238 LINE",
"380 -238 LINE",
"380 -220 LINE",
"251 -220 LINE",
"251 39 LINE",
"266 14 OFFCURVE",
"314 -10 OFFCURVE",
"362 -10 QCURVE SMOOTH",
"465 -10 OFFCURVE",
"568 110 OFFCURVE",
"568 237 QCURVE SMOOTH",
"568 486 OFFCURVE",
"381 486 QCURVE SMOOTH",
"289 486 OFFCURVE",
"251 400 QCURVE",
"251 750 LINE",
"16 750 LINE",
"16 732 LINE",
"65 732 LINE",
"65 -220 LINE",
"65 -220 LINE"
);
}
);
width = 588;
}
);
leftKerningGroup = b;
note = thorn;
rightKerningGroup = b;
unicode = 00FE;
},
{
glyphname = ydieresis;
layers = (
{
layerId = "A70DCACA-0340-40F6-B519-7C37231E9414";
paths = (
{
closed = 1;
nodes = (
"46 458 LINE",
"217 0 LINE",
"305 0 LINE",
"283 -62 LINE SMOOTH",
"254 -145 OFFCURVE",
"190 -226 OFFCURVE",
"149 -226 QCURVE SMOOTH",
"128 -226 OFFCURVE",
"116 -196 OFFCURVE",
"124 -173 QCURVE",
"159 -173 LINE",
"165 -152 OFFCURVE",
"165 -137 QCURVE SMOOTH",
"165 -68 OFFCURVE",
"82 -68 QCURVE SMOOTH",
"46 -68 OFFCURVE",
"2 -112 OFFCURVE",
"2 -196 OFFCURVE",
"70 -250 OFFCURVE",
"188 -250 OFFCURVE",
"270 -175 OFFCURVE",
"303 -81 QCURVE SMOOTH",
"490 458 LINE",
"540 458 LINE",
"540 476 LINE",
"399 476 LINE",
"399 458 LINE",
"466 458 LINE",
"350 126 LINE",
"241 458 LINE",
"295 458 LINE",
"295 476 LINE",
"5 476 LINE",
"5 458 LINE",
"5 458 LINE"
);
},
{
closed = 1;
nodes = (
"432 558 OFFCURVE",
"471 599 OFFCURVE",
"471 669 OFFCURVE",
"430 706 OFFCURVE",
"361 706 OFFCURVE",
"322 664 OFFCURVE",
"322 602 OFFCURVE",
"358 558 OFFCURVE"
);
},
{
closed = 1;
nodes = (
"239 558 OFFCURVE",
"278 599 OFFCURVE",
"278 669 OFFCURVE",
"237 706 OFFCURVE",
"168 706 OFFCURVE",
"129 664 OFFCURVE",
"129 602 OFFCURVE",
"165 558 OFFCURVE"
);
}
);
width = 532;
}
);
leftKerningGroup = v;
note = ydieresis;
rightKerningGroup = v;
unicode = 00FF;
},
{
glyphname = Amacron;
layers = (
{
layerId = "A70DCACA-0340-40F6-B519-7C37231E9414";
paths = (
{
closed = 1;
nodes = (
"361 19 LINE",
"361 0 LINE",
"688 0 LINE",
"688 19 LINE",
"642 19 LINE",
"390 706 LINE",
"308 706 LINE",
"53 19 LINE",
"6 19 LINE",
"6 0 LINE",
"159 0 LINE",
"159 19 LINE",
"84 19 LINE",
"161 235 LINE",
"359 235 LINE",
"432 19 LINE",
"432 19 LINE"
);
},
{
closed = 1;
nodes = (
"351 257 LINE",
"170 257 LINE",
"264 519 LINE",
"264 519 LINE"
);
},
{
closed = 1;
nodes = (
"485 770 LINE",
"485 867 LINE",
"213 867 LINE",
"213 770 LINE",
"213 770 LINE"
);
}
);
width = 694;
}
);
leftKerningGroup = A;
note = Amacron;
rightKerningGroup = A;
unicode = 0100;
},
{
glyphname = Abreve;
layers = (
{
layerId = "A70DCACA-0340-40F6-B519-7C37231E9414";
paths = (
{
closed = 1;
nodes = (
"361 19 LINE",
"361 0 LINE",
"688 0 LINE",
"688 19 LINE",
"642 19 LINE",
"390 706 LINE",
"308 706 LINE",
"53 19 LINE",
"6 19 LINE",
"6 0 LINE",
"159 0 LINE",
"159 19 LINE",
"84 19 LINE",
"161 235 LINE",
"359 235 LINE",
"432 19 LINE",
"432 19 LINE"
);
},
{
closed = 1;
nodes = (
"351 257 LINE",
"170 257 LINE",
"264 519 LINE",
"264 519 LINE"
);
},
{
closed = 1;
nodes = (
"216 841 OFFCURVE",
"244 796 QCURVE SMOOTH",
"274 746 OFFCURVE",
"349 746 QCURVE SMOOTH",
"473 746 OFFCURVE",
"491 918 QCURVE",
"476 921 LINE",
"464 879 OFFCURVE",
"409 853 OFFCURVE",
"294 853 OFFCURVE",
"237 881 OFFCURVE",
"223 921 QCURVE",
"207 918 LINE",
"207 918 LINE"
);
}
);
width = 694;
}
);
leftKerningGroup = A;
note = Abreve;
rightKerningGroup = A;
unicode = 0102;
},
{
glyphname = Aogonek;
layers = (
{
layerId = "A70DCACA-0340-40F6-B519-7C37231E9414";
paths = (
{
closed = 1;
nodes = (
"361 19 LINE",
"361 0 LINE",
"547 0 LINE",
"505 -26 LINE SMOOTH",
"439 -66 OFFCURVE",
"395 -126 OFFCURVE",
"395 -209 OFFCURVE",
"451 -251 OFFCURVE",
"527 -251 OFFCURVE",
"577 -227 OFFCURVE",
"601 -198 OFFCURVE",
"615 -175 QCURVE",
"602 -167 LINE",
"573 -210 OFFCURVE",
"529 -210 OFFCURVE",
"515 -184 OFFCURVE",
"515 -147 QCURVE SMOOTH",
"515 -51 OFFCURVE",
"577 0 QCURVE",
"688 0 LINE",
"688 19 LINE",
"642 19 LINE",
"390 706 LINE",
"308 706 LINE",
"53 19 LINE",
"6 19 LINE",
"6 0 LINE",
"159 0 LINE",
"159 19 LINE",
"84 19 LINE",
"161 235 LINE",
"359 235 LINE",
"432 19 LINE",
"432 19 LINE"
);
},
{
closed = 1;
nodes = (
"351 257 LINE",
"170 257 LINE",
"264 519 LINE",
"264 519 LINE"
);
}
);
width = 694;
}
);
leftKerningGroup = A;
note = Aogonek;
rightKerningGroup = A;
unicode = 0104;
},
{
glyphname = aogonek;
layers = (
{
layerId = "A70DCACA-0340-40F6-B519-7C37231E9414";
paths = (
{
closed = 1;
nodes = (
"417 -26 LINE SMOOTH",
"351 -66 OFFCURVE",
"307 -126 OFFCURVE",
"307 -209 OFFCURVE",
"363 -251 OFFCURVE",
"439 -251 OFFCURVE",
"489 -227 OFFCURVE",
"513 -198 OFFCURVE",
"527 -175 QCURVE",
"514 -167 LINE",
"485 -210 OFFCURVE",
"441 -210 OFFCURVE",
"427 -184 OFFCURVE",
"427 -147 QCURVE SMOOTH",
"427 -43 OFFCURVE",
"498 5 QCURVE SMOOTH",
"545 37 OFFCURVE",
"549 144 QCURVE",
"534 145 LINE",
"528 42 OFFCURVE",
"494 42 QCURVE SMOOTH",
"465 42 OFFCURVE",
"465 94 QCURVE SMOOTH",
"465 297 LINE SMOOTH",
"465 405 OFFCURVE",
"374 486 OFFCURVE",
"255 486 QCURVE SMOOTH",
"46 486 OFFCURVE",
"46 363 QCURVE SMOOTH",
"46 280 OFFCURVE",
"132 280 QCURVE SMOOTH",
"170 280 OFFCURVE",
"220 323 OFFCURVE",
"220 382 OFFCURVE",
"212 403 QCURVE",
"187 403 LINE",
"181 420 OFFCURVE",
"181 453 OFFCURVE",
"210 472 OFFCURVE",
"228 472 QCURVE SMOOTH",
"258 472 OFFCURVE",
"279 407 OFFCURVE",
"279 312 QCURVE SMOOTH",
"279 235 LINE",
"250 235 LINE SMOOTH",
"133 235 OFFCURVE",
"20 182 OFFCURVE",
"20 111 QCURVE SMOOTH",
"20 -10 OFFCURVE",
"168 -10 QCURVE SMOOTH",
"218 -10 OFFCURVE",
"270 26 OFFCURVE",
"283 64 QCURVE",
"301 -10 OFFCURVE",
"421 -10 QCURVE SMOOTH",
"445 -9 LINE",
"445 -9 LINE"
);
},
{
closed = 1;
nodes = (
"210 128 LINE SMOOTH",
"210 219 OFFCURVE",
"272 219 QCURVE SMOOTH",
"279 219 LINE",
"279 126 LINE SMOOTH",
"279 81 OFFCURVE",
"252 30 OFFCURVE",
"221 30 OFFCURVE",
"210 60 OFFCURVE",
"210 112 QCURVE",
"210 112 LINE"
);
}
);
width = 549;
}
);
leftKerningGroup = a;
note = aogonek;
rightKerningGroup = a;
unicode = 0105;
},
{
glyphname = Cacute;
layers = (
{
layerId = "A70DCACA-0340-40F6-B519-7C37231E9414";
paths = (
{
closed = 1;
nodes = (
"461 691 OFFCURVE",
"556 584 OFFCURVE",
"601 483 QCURVE",
"619 483 LINE",
"611 700 LINE",
"600 700 LINE",
"594 689 OFFCURVE",
"584 680 OFFCURVE",
"564 680 OFFCURVE",
"447 711 OFFCURVE",
"386 711 QCURVE SMOOTH",
"228 711 OFFCURVE",
"41 519 OFFCURVE",
"41 166 OFFCURVE",
"220 -10 OFFCURVE",
"383 -10 QCURVE SMOOTH",
"448 -10 OFFCURVE",
"574 21 OFFCURVE",
"593 21 OFFCURVE",
"603 12 OFFCURVE",
"609 1 QCURVE",
"620 1 LINE",
"627 224 LINE",
"609 224 LINE",
"517 10 OFFCURVE",
"407 10 QCURVE SMOOTH",
"327 10 OFFCURVE",
"245 171 OFFCURVE",
"245 313 QCURVE SMOOTH",
"245 392 LINE SMOOTH",
"245 691 OFFCURVE",
"400 691 QCURVE",
"400 691 LINE"
);
},
{
closed = 1;
nodes = (
"298 733 LINE",
"457 798 LINE SMOOTH",
"501 816 OFFCURVE",
"501 856 QCURVE SMOOTH",
"501 873 OFFCURVE",
"478 899 OFFCURVE",
"453 901 QCURVE SMOOTH",
"405 905 LINE",
"290 743 LINE",
"290 743 LINE"
);
}
);
width = 690;
}
);
leftKerningGroup = C;
note = Cacute;
rightKerningGroup = C;
unicode = 0106;
},
{
glyphname = Ccircumflex;
layers = (
{
layerId = "A70DCACA-0340-40F6-B519-7C37231E9414";
paths = (
{
closed = 1;
nodes = (
"461 691 OFFCURVE",
"556 584 OFFCURVE",
"601 483 QCURVE",
"619 483 LINE",
"611 700 LINE",
"600 700 LINE",
"594 689 OFFCURVE",
"584 680 OFFCURVE",
"564 680 OFFCURVE",
"447 711 OFFCURVE",
"386 711 QCURVE SMOOTH",
"228 711 OFFCURVE",
"41 519 OFFCURVE",
"41 166 OFFCURVE",
"220 -10 OFFCURVE",
"383 -10 QCURVE SMOOTH",
"448 -10 OFFCURVE",
"574 21 OFFCURVE",
"593 21 OFFCURVE",
"603 12 OFFCURVE",
"609 1 QCURVE",
"620 1 LINE",
"627 224 LINE",
"609 224 LINE",
"517 10 OFFCURVE",
"407 10 QCURVE SMOOTH",
"327 10 OFFCURVE",
"245 171 OFFCURVE",
"245 313 QCURVE SMOOTH",
"245 392 LINE SMOOTH",
"245 691 OFFCURVE",
"400 691 QCURVE",
"400 691 LINE"
);
},
{
closed = 1;
nodes = (
"234 733 LINE",
"380 801 LINE",
"522 733 LINE",
"531 743 LINE",
"457 867 LINE SMOOTH",
"434 907 OFFCURVE",
"387 907 QCURVE SMOOTH",
"360 907 OFFCURVE",
"332 891 QCURVE",
"226 743 LINE",
"226 743 LINE"
);
}
);
width = 690;
}
);
leftKerningGroup = C;
note = Ccircumflex;
rightKerningGroup = C;
unicode = 0108;
},
{
glyphname = Cdotaccent;
layers = (
{
layerId = "A70DCACA-0340-40F6-B519-7C37231E9414";
paths = (
{
closed = 1;
nodes = (
"461 691 OFFCURVE",
"556 584 OFFCURVE",
"601 483 QCURVE",
"619 483 LINE",
"611 700 LINE",
"600 700 LINE",
"594 689 OFFCURVE",
"584 680 OFFCURVE",
"564 680 OFFCURVE",
"447 711 OFFCURVE",
"386 711 QCURVE SMOOTH",
"228 711 OFFCURVE",
"41 519 OFFCURVE",
"41 166 OFFCURVE",
"220 -10 OFFCURVE",
"383 -10 QCURVE SMOOTH",
"448 -10 OFFCURVE",
"574 21 OFFCURVE",
"593 21 OFFCURVE",
"603 12 OFFCURVE",
"609 1 QCURVE",
"620 1 LINE",
"627 224 LINE",
"609 224 LINE",
"517 10 OFFCURVE",
"407 10 QCURVE SMOOTH",
"327 10 OFFCURVE",
"245 171 OFFCURVE",
"245 313 QCURVE SMOOTH",
"245 392 LINE SMOOTH",
"245 691 OFFCURVE",
"400 691 QCURVE",
"400 691 LINE"
);
},
{
closed = 1;
nodes = (
"479 805 OFFCURVE",
"479 892 OFFCURVE",
"427 939 OFFCURVE",
"327 939 OFFCURVE",
"278 887 OFFCURVE",
"278 807 OFFCURVE",
"323 753 OFFCURVE",
"429 753 OFFCURVE"
);
}
);
width = 690;
}
);
leftKerningGroup = C;
note = Cdotaccent;
rightKerningGroup = C;
unicode = 010A;
},
{
glyphname = Ccaron;
layers = (
{
layerId = "A70DCACA-0340-40F6-B519-7C37231E9414";
paths = (
{
closed = 1;
nodes = (
"461 691 OFFCURVE",
"556 584 OFFCURVE",
"601 483 QCURVE",
"619 483 LINE",
"611 700 LINE",
"600 700 LINE",
"594 689 OFFCURVE",
"584 680 OFFCURVE",
"564 680 OFFCURVE",
"447 711 OFFCURVE",
"386 711 QCURVE SMOOTH",
"228 711 OFFCURVE",
"41 519 OFFCURVE",
"41 166 OFFCURVE",
"220 -10 OFFCURVE",
"383 -10 QCURVE SMOOTH",
"448 -10 OFFCURVE",
"574 21 OFFCURVE",
"593 21 OFFCURVE",
"603 12 OFFCURVE",
"609 1 QCURVE",
"620 1 LINE",
"627 224 LINE",
"609 224 LINE",
"517 10 OFFCURVE",
"407 10 QCURVE SMOOTH",
"327 10 OFFCURVE",
"245 171 OFFCURVE",
"245 313 QCURVE SMOOTH",
"245 392 LINE SMOOTH",
"245 691 OFFCURVE",
"400 691 QCURVE",
"400 691 LINE"
);
},
{
closed = 1;
nodes = (
"526 919 LINE",
"380 851 LINE",
"238 919 LINE",
"229 909 LINE",
"303 785 LINE SMOOTH",
"326 745 OFFCURVE",
"373 745 QCURVE SMOOTH",
"400 745 OFFCURVE",
"428 761 QCURVE",
"534 909 LINE",
"534 909 LINE"
);
}
);
width = 690;
}
);
leftKerningGroup = C;
note = Ccaron;
rightKerningGroup = C;
unicode = 010C;
},
{
glyphname = Dcaron;
layers = (
{
layerId = "A70DCACA-0340-40F6-B519-7C37231E9414";
paths = (
{
closed = 1;
nodes = (
"714 543 OFFCURVE",
"522 700 OFFCURVE",
"330 700 QCURVE SMOOTH",
"21 700 LINE",
"21 681 LINE",
"87 681 LINE",
"87 19 LINE",
"21 19 LINE",
"21 0 LINE",
"304 0 LINE SMOOTH",
"491 0 OFFCURVE",
"598 75 QCURVE SMOOTH",
"714 156 OFFCURVE",
"714 362 QCURVE",
"714 362 LINE"
);
},
{
closed = 1;
nodes = (
"282 681 LINE",
"306 681 LINE SMOOTH",
"381 681 OFFCURVE",
"422 659 QCURVE SMOOTH",
"508 613 OFFCURVE",
"508 388 QCURVE SMOOTH",
"508 330 LINE SMOOTH",
"508 162 OFFCURVE",
"421 19 OFFCURVE",
"320 19 QCURVE SMOOTH",
"282 19 LINE",
"282 19 LINE"
);
},
{
closed = 1;
nodes = (
"480 919 LINE",
"334 851 LINE",
"192 919 LINE",
"183 909 LINE",
"257 785 LINE SMOOTH",
"280 745 OFFCURVE",
"327 745 QCURVE SMOOTH",
"354 745 OFFCURVE",
"382 761 QCURVE",
"488 909 LINE",
"488 909 LINE"
);
}
);
width = 755;
}
);
note = Dcaron;
rightKerningGroup = D;
unicode = 010E;
},
{
glyphname = dcaron;
layers = (
{
layerId = "A70DCACA-0340-40F6-B519-7C37231E9414";
paths = (
{
closed = 1;
nodes = (
"213 259 LINE SMOOTH",
"213 369 OFFCURVE",
"237 457 OFFCURVE",
"303 457 OFFCURVE",
"337 397 OFFCURVE",
"337 354 QCURVE SMOOTH",
"337 136 LINE SMOOTH",
"337 85 OFFCURVE",
"294 33 OFFCURVE",
"235 33 OFFCURVE",
"213 102 OFFCURVE",
"213 207 QCURVE",
"213 207 LINE"
);
},
{
closed = 1;
nodes = (
"350 0 LINE",
"572 0 LINE",
"572 18 LINE",
"523 18 LINE",
"523 750 LINE",
"273 750 LINE",
"273 732 LINE",
"334 732 LINE",
"334 437 LINE",
"306 486 OFFCURVE",
"218 486 QCURVE SMOOTH",
"20 486 OFFCURVE",
"20 237 QCURVE SMOOTH",
"20 114 OFFCURVE",
"115 -10 OFFCURVE",
"201 -10 QCURVE SMOOTH",
"305 -10 OFFCURVE",
"339 70 QCURVE",
"339 70 LINE"
);
},
{
closed = 1;
nodes = (
"694 608 OFFCURVE",
"694 689 QCURVE SMOOTH",
"694 718 OFFCURVE",
"662 759 OFFCURVE",
"606 759 OFFCURVE",
"577 730 QCURVE SMOOTH",
"555 708 LINE",
"600 669 OFFCURVE",
"600 635 QCURVE SMOOTH",
"600 579 OFFCURVE",
"558 533 QCURVE",
"570 520 LINE",
"570 520 LINE"
);
}
);
width = 664;
}
);
leftKerningGroup = d;
note = dcaron;
unicode = 010F;
},
{
glyphname = Dcroat;
layers = (
{
layerId = "A70DCACA-0340-40F6-B519-7C37231E9414";
paths = (
{
closed = 1;
nodes = (
"95 359 LINE",
"95 19 LINE",
"29 19 LINE",
"29 0 LINE",
"312 0 LINE SMOOTH",
"499 0 OFFCURVE",
"606 75 QCURVE SMOOTH",
"722 156 OFFCURVE",
"722 362 QCURVE SMOOTH",
"722 543 OFFCURVE",
"530 700 OFFCURVE",
"338 700 QCURVE SMOOTH",
"29 700 LINE",
"29 681 LINE",
"95 681 LINE",
"95 385 LINE",
"19 385 LINE",
"19 359 LINE",
"19 359 LINE"
);
},
{
closed = 1;
nodes = (
"290 359 LINE",
"419 359 LINE",
"419 385 LINE",
"290 385 LINE",
"290 681 LINE",
"314 681 LINE SMOOTH",
"389 681 OFFCURVE",
"430 659 QCURVE SMOOTH",
"516 613 OFFCURVE",
"516 388 QCURVE SMOOTH",
"516 330 LINE SMOOTH",
"516 162 OFFCURVE",
"429 19 OFFCURVE",
"328 19 QCURVE SMOOTH",
"290 19 LINE",
"290 19 LINE"
);
}
);
width = 763;
}
);
note = Dcroat;
rightKerningGroup = D;
unicode = 0110;
},
{
glyphname = dcroat;
layers = (
{
layerId = "A70DCACA-0340-40F6-B519-7C37231E9414";
paths = (
{
closed = 1;
nodes = (
"572 0 LINE",
"572 18 LINE",
"523 18 LINE",
"523 585 LINE",
"579 585 LINE",
"579 606 LINE",
"523 606 LINE",
"523 750 LINE",
"273 750 LINE",
"273 732 LINE",
"334 732 LINE",
"334 606 LINE",
"170 606 LINE",
"170 585 LINE",
"334 585 LINE",
"334 437 LINE",
"306 486 OFFCURVE",
"218 486 QCURVE SMOOTH",
"20 486 OFFCURVE",
"20 237 QCURVE SMOOTH",
"20 114 OFFCURVE",
"115 -10 OFFCURVE",
"201 -10 QCURVE SMOOTH",
"305 -10 OFFCURVE",
"339 70 QCURVE",
"350 0 LINE",
"350 0 LINE"
);
},
{
closed = 1;
nodes = (
"213 259 LINE SMOOTH",
"213 369 OFFCURVE",
"237 457 OFFCURVE",
"303 457 OFFCURVE",
"337 397 OFFCURVE",
"337 354 QCURVE SMOOTH",
"337 136 LINE SMOOTH",
"337 85 OFFCURVE",
"294 33 OFFCURVE",
"235 33 OFFCURVE",
"213 102 OFFCURVE",
"213 207 QCURVE",
"213 207 LINE"
);
}
);
width = 584;
}
);
leftKerningGroup = d;
note = dcroat;
unicode = 0111;
},
{
glyphname = Emacron;
layers = (
{
layerId = "A70DCACA-0340-40F6-B519-7C37231E9414";
paths = (
{
closed = 1;
nodes = (
"21 678 LINE",
"80 678 LINE",
"80 22 LINE",
"21 22 LINE",
"21 0 LINE",
"570 0 LINE",
"578 218 LINE",
"558 218 LINE",
"534 132 OFFCURVE",
"405 22 OFFCURVE",
"313 22 QCURVE SMOOTH",
"275 22 LINE",
"275 343 LINE",
"299 343 LINE SMOOTH",
"352 343 OFFCURVE",
"413 279 OFFCURVE",
"431 204 QCURVE",
"448 204 LINE",
"448 500 LINE",
"433 500 LINE",
"420 440 OFFCURVE",
"356 369 OFFCURVE",
"309 369 QCURVE SMOOTH",
"275 369 LINE",
"275 678 LINE",
"310 678 LINE SMOOTH",
"399 678 OFFCURVE",
"491 603 OFFCURVE",
"533 502 QCURVE",
"551 502 LINE",
"541 700 LINE",
"21 700 LINE",
"21 700 LINE"
);
},
{
closed = 1;
nodes = (
"431 770 LINE",
"431 867 LINE",
"159 867 LINE",
"159 770 LINE",
"159 770 LINE"
);
}
);
width = 624;
}
);
note = Emacron;
rightKerningGroup = E;
unicode = 0112;
},
{
glyphname = Ebreve;
layers = (
{
layerId = "A70DCACA-0340-40F6-B519-7C37231E9414";
paths = (
{
closed = 1;
nodes = (
"21 678 LINE",
"80 678 LINE",
"80 22 LINE",
"21 22 LINE",
"21 0 LINE",
"570 0 LINE",
"578 218 LINE",
"558 218 LINE",
"534 132 OFFCURVE",
"405 22 OFFCURVE",
"313 22 QCURVE SMOOTH",
"275 22 LINE",
"275 343 LINE",
"299 343 LINE SMOOTH",
"352 343 OFFCURVE",
"413 279 OFFCURVE",
"431 204 QCURVE",
"448 204 LINE",
"448 500 LINE",
"433 500 LINE",
"420 440 OFFCURVE",
"356 369 OFFCURVE",
"309 369 QCURVE SMOOTH",
"275 369 LINE",
"275 678 LINE",
"310 678 LINE SMOOTH",
"399 678 OFFCURVE",
"491 603 OFFCURVE",
"533 502 QCURVE",
"551 502 LINE",
"541 700 LINE",
"21 700 LINE",
"21 700 LINE"
);
},
{
closed = 1;
nodes = (
"166 841 OFFCURVE",
"194 796 QCURVE SMOOTH",
"224 746 OFFCURVE",
"299 746 QCURVE SMOOTH",
"423 746 OFFCURVE",
"441 918 QCURVE",
"426 921 LINE",
"414 879 OFFCURVE",
"359 853 OFFCURVE",
"244 853 OFFCURVE",
"187 881 OFFCURVE",
"173 921 QCURVE",
"157 918 LINE",
"157 918 LINE"
);
}
);
width = 624;
}
);
note = Ebreve;
rightKerningGroup = E;
unicode = 0114;
},
{
glyphname = Edotaccent;
layers = (
{
layerId = "A70DCACA-0340-40F6-B519-7C37231E9414";
paths = (
{
closed = 1;
nodes = (
"21 678 LINE",
"80 678 LINE",
"80 22 LINE",
"21 22 LINE",
"21 0 LINE",
"570 0 LINE",
"578 218 LINE",
"558 218 LINE",
"534 132 OFFCURVE",
"405 22 OFFCURVE",
"313 22 QCURVE SMOOTH",
"275 22 LINE",
"275 343 LINE",
"299 343 LINE SMOOTH",
"352 343 OFFCURVE",
"413 279 OFFCURVE",
"431 204 QCURVE",
"448 204 LINE",
"448 500 LINE",
"433 500 LINE",
"420 440 OFFCURVE",
"356 369 OFFCURVE",
"309 369 QCURVE SMOOTH",
"275 369 LINE",
"275 678 LINE",
"310 678 LINE SMOOTH",
"399 678 OFFCURVE",
"491 603 OFFCURVE",
"533 502 QCURVE",
"551 502 LINE",
"541 700 LINE",
"21 700 LINE",
"21 700 LINE"
);
},
{
closed = 1;
nodes = (
"401 805 OFFCURVE",
"401 892 OFFCURVE",
"349 939 OFFCURVE",
"249 939 OFFCURVE",
"200 887 OFFCURVE",
"200 807 OFFCURVE",
"245 753 OFFCURVE",
"351 753 OFFCURVE"
);
}
);
width = 624;
}
);
note = Edotaccent;
rightKerningGroup = E;
unicode = 0116;
},
{
glyphname = Eogonek;
layers = (
{
layerId = "A70DCACA-0340-40F6-B519-7C37231E9414";
paths = (
{
closed = 1;
nodes = (
"21 678 LINE",
"80 678 LINE",
"80 22 LINE",
"21 22 LINE",
"21 0 LINE",
"470 0 LINE",
"428 -26 LINE SMOOTH",
"362 -66 OFFCURVE",
"318 -126 OFFCURVE",
"318 -209 OFFCURVE",
"374 -251 OFFCURVE",
"450 -251 OFFCURVE",
"500 -227 OFFCURVE",
"524 -198 OFFCURVE",
"538 -175 QCURVE",
"525 -167 LINE",
"496 -210 OFFCURVE",
"452 -210 OFFCURVE",
"438 -184 OFFCURVE",
"438 -147 QCURVE SMOOTH",
"438 -51 OFFCURVE",
"501 0 QCURVE",
"570 0 LINE",
"578 218 LINE",
"558 218 LINE",
"534 132 OFFCURVE",
"405 22 OFFCURVE",
"313 22 QCURVE SMOOTH",
"275 22 LINE",
"275 343 LINE",
"299 343 LINE SMOOTH",
"352 343 OFFCURVE",
"413 279 OFFCURVE",
"431 204 QCURVE",
"448 204 LINE",
"448 500 LINE",
"433 500 LINE",
"420 440 OFFCURVE",
"356 369 OFFCURVE",
"309 369 QCURVE SMOOTH",
"275 369 LINE",
"275 678 LINE",
"310 678 LINE SMOOTH",
"399 678 OFFCURVE",
"491 603 OFFCURVE",
"533 502 QCURVE",
"551 502 LINE",
"541 700 LINE",
"21 700 LINE",
"21 700 LINE"
);
}
);
width = 624;
}
);
note = Eogonek;
rightKerningGroup = E;
unicode = 0118;
},
{
glyphname = eogonek;
layers = (
{
layerId = "A70DCACA-0340-40F6-B519-7C37231E9414";
paths = (
{
closed = 1;
nodes = (
"306 -10 OFFCURVE",
"341 -3 QCURVE",
"306 -27 LINE SMOOTH",
"244 -69 OFFCURVE",
"200 -128 OFFCURVE",
"200 -209 OFFCURVE",
"256 -251 OFFCURVE",
"332 -251 OFFCURVE",
"382 -227 OFFCURVE",
"406 -198 OFFCURVE",
"420 -175 QCURVE",
"407 -167 LINE",
"378 -210 OFFCURVE",
"334 -210 OFFCURVE",
"320 -184 OFFCURVE",
"320 -147 QCURVE SMOOTH",
"320 -33 OFFCURVE",
"394 11 QCURVE SMOOTH",
"467 53 OFFCURVE",
"490 142 QCURVE",
"472 145 LINE",
"436 21 OFFCURVE",
"320 21 QCURVE SMOOTH",
"258 21 OFFCURVE",
"208 121 OFFCURVE",
"208 219 QCURVE SMOOTH",
"208 258 LINE",
"490 258 LINE",
"499 486 OFFCURVE",
"272 486 QCURVE SMOOTH",
"160 486 OFFCURVE",
"15 360 OFFCURVE",
"15 123 OFFCURVE",
"144 -10 OFFCURVE",
"273 -10 QCURVE",
"273 -10 LINE"
);
},
{
closed = 1;
nodes = (
"209 327 LINE SMOOTH",
"209 404 OFFCURVE",
"236 467 OFFCURVE",
"293 467 OFFCURVE",
"312 408 OFFCURVE",
"312 327 QCURVE SMOOTH",
"312 278 LINE",
"209 278 LINE",
"209 278 LINE"
);
}
);
width = 516;
}
);
leftKerningGroup = c;
note = eogonek;
rightKerningGroup = e;
unicode = 0119;
},
{
glyphname = Ecaron;
layers = (
{
layerId = "A70DCACA-0340-40F6-B519-7C37231E9414";
paths = (
{
closed = 1;
nodes = (
"21 678 LINE",
"80 678 LINE",
"80 22 LINE",
"21 22 LINE",
"21 0 LINE",
"570 0 LINE",
"578 218 LINE",
"558 218 LINE",
"534 132 OFFCURVE",
"405 22 OFFCURVE",
"313 22 QCURVE SMOOTH",
"275 22 LINE",
"275 343 LINE",
"299 343 LINE SMOOTH",
"352 343 OFFCURVE",
"413 279 OFFCURVE",
"431 204 QCURVE",
"448 204 LINE",
"448 500 LINE",
"433 500 LINE",
"420 440 OFFCURVE",
"356 369 OFFCURVE",
"309 369 QCURVE SMOOTH",
"275 369 LINE",
"275 678 LINE",
"310 678 LINE SMOOTH",
"399 678 OFFCURVE",
"491 603 OFFCURVE",
"533 502 QCURVE",
"551 502 LINE",
"541 700 LINE",
"21 700 LINE",
"21 700 LINE"
);
},
{
closed = 1;
nodes = (
"443 919 LINE",
"297 851 LINE",
"155 919 LINE",
"146 909 LINE",
"220 785 LINE SMOOTH",
"243 745 OFFCURVE",
"290 745 QCURVE SMOOTH",
"317 745 OFFCURVE",
"345 761 QCURVE",
"451 909 LINE",
"451 909 LINE"
);
}
);
width = 624;
}
);
note = Ecaron;
rightKerningGroup = E;
unicode = 011A;
},
{
glyphname = Gcircumflex;
layers = (
{
layerId = "A70DCACA-0340-40F6-B519-7C37231E9414";
paths = (
{
closed = 1;
nodes = (
"320 10 OFFCURVE",
"245 163 OFFCURVE",
"245 313 QCURVE SMOOTH",
"245 392 LINE SMOOTH",
"245 691 OFFCURVE",
"398 691 QCURVE SMOOTH",
"459 691 OFFCURVE",
"558 580 OFFCURVE",
"607 483 QCURVE",
"625 483 LINE",
"617 700 LINE",
"606 700 LINE",
"600 689 OFFCURVE",
"590 680 OFFCURVE",
"570 680 OFFCURVE",
"447 711 OFFCURVE",
"386 711 QCURVE SMOOTH",
"228 711 OFFCURVE",
"41 519 OFFCURVE",
"41 166 OFFCURVE",
"220 -10 OFFCURVE",
"383 -10 QCURVE SMOOTH",
"432 -10 OFFCURVE",
"571 26 OFFCURVE",
"585 26 QCURVE SMOOTH",
"618 26 OFFCURVE",
"636 1 QCURVE",
"651 1 LINE",
"651 283 LINE",
"690 283 LINE",
"690 305 LINE",
"402 305 LINE",
"402 283 LINE",
"466 283 LINE",
"466 89 LINE SMOOTH",
"466 46 OFFCURVE",
"439 10 OFFCURVE",
"390 10 QCURVE",
"390 10 LINE"
);
},
{
closed = 1;
nodes = (
"235 733 LINE",
"381 801 LINE",
"523 733 LINE",
"532 743 LINE",
"458 867 LINE SMOOTH",
"435 907 OFFCURVE",
"388 907 QCURVE SMOOTH",
"361 907 OFFCURVE",
"333 891 QCURVE",
"227 743 LINE",
"227 743 LINE"
);
}
);
width = 723;
}
);
leftKerningGroup = C;
note = Gcircumflex;
rightKerningGroup = G;
unicode = 011C;
},
{
glyphname = gcircumflex;
layers = (
{
layerId = "A70DCACA-0340-40F6-B519-7C37231E9414";
paths = (
{
closed = 1;
nodes = (
"123 523 LINE",
"248 643 LINE",
"346 583 LINE",
"357 590 LINE",
"319 685 LINE SMOOTH",
"300 731 OFFCURVE",
"259 731 QCURVE SMOOTH",
"231 731 OFFCURVE",
"203 715 QCURVE",
"111 532 LINE",
"111 532 LINE"
);
},
{
closed = 1;
nodes = (
"411 528 LINE",
"412 503 OFFCURVE",
"445 476 OFFCURVE",
"496 476 OFFCURVE",
"532 509 OFFCURVE",
"532 577 OFFCURVE",
"487 616 OFFCURVE",
"413 616 OFFCURVE",
"353 566 OFFCURVE",
"353 510 QCURVE SMOOTH",
"353 488 OFFCURVE",
"359 461 QCURVE",
"313 486 OFFCURVE",
"248 486 QCURVE SMOOTH",
"140 486 OFFCURVE",
"32 394 OFFCURVE",
"32 319 QCURVE SMOOTH",
"32 200 OFFCURVE",
"148 167 QCURVE",
"84 128 OFFCURVE",
"34 75 OFFCURVE",
"34 -4 OFFCURVE",
"104 -58 OFFCURVE",
"185 -58 QCURVE SMOOTH",
"282 -58 LINE SMOOTH",
"358 -58 OFFCURVE",
"409 -87 OFFCURVE",
"409 -173 OFFCURVE",
"325 -231 OFFCURVE",
"247 -231 QCURVE SMOOTH",
"119 -231 OFFCURVE",
"119 -145 QCURVE SMOOTH",
"119 -119 OFFCURVE",
"127 -90 QCURVE",
"67 -63 LINE",
"-10 -85 OFFCURVE",
"-10 -143 QCURVE SMOOTH",
"-10 -250 OFFCURVE",
"237 -250 QCURVE SMOOTH",
"382 -250 OFFCURVE",
"519 -147 OFFCURVE",
"519 -59 QCURVE SMOOTH",
"519 104 OFFCURVE",
"292 104 QCURVE SMOOTH",
"190 104 LINE SMOOTH",
"126 104 OFFCURVE",
"126 132 OFFCURVE",
"170 160 QCURVE",
"212 152 OFFCURVE",
"251 152 QCURVE SMOOTH",
"345 152 OFFCURVE",
"455 240 OFFCURVE",
"455 399 OFFCURVE",
"379 450 QCURVE",
"372 484 OFFCURVE",
"372 510 QCURVE SMOOTH",
"372 576 OFFCURVE",
"415 576 QCURVE SMOOTH",
"445 576 OFFCURVE",
"439 545 QCURVE",
"439 545 LINE"
);
},
{
closed = 1;
nodes = (
"199 341 LINE SMOOTH",
"199 417 OFFCURVE",
"223 468 OFFCURVE",
"270 468 OFFCURVE",
"290 419 OFFCURVE",
"290 341 QCURVE SMOOTH",
"290 292 LINE SMOOTH",
"290 219 OFFCURVE",
"269 172 OFFCURVE",
"222 172 OFFCURVE",
"199 220 OFFCURVE",
"199 287 QCURVE",
"199 287 LINE"
);
}
);
width = 522;
}
);
leftKerningGroup = g;
note = gcircumflex;
rightKerningGroup = g;
unicode = 011D;
},
{
glyphname = Gbreve;
layers = (
{
layerId = "A70DCACA-0340-40F6-B519-7C37231E9414";
paths = (
{
closed = 1;
nodes = (
"320 10 OFFCURVE",
"245 163 OFFCURVE",
"245 313 QCURVE SMOOTH",
"245 392 LINE SMOOTH",
"245 691 OFFCURVE",
"398 691 QCURVE SMOOTH",
"459 691 OFFCURVE",
"558 580 OFFCURVE",
"607 483 QCURVE",
"625 483 LINE",
"617 700 LINE",
"606 700 LINE",
"600 689 OFFCURVE",
"590 680 OFFCURVE",
"570 680 OFFCURVE",
"447 711 OFFCURVE",
"386 711 QCURVE SMOOTH",
"228 711 OFFCURVE",
"41 519 OFFCURVE",
"41 166 OFFCURVE",
"220 -10 OFFCURVE",
"383 -10 QCURVE SMOOTH",
"432 -10 OFFCURVE",
"571 26 OFFCURVE",
"585 26 QCURVE SMOOTH",
"618 26 OFFCURVE",
"636 1 QCURVE",
"651 1 LINE",
"651 283 LINE",
"690 283 LINE",
"690 305 LINE",
"402 305 LINE",
"402 283 LINE",
"466 283 LINE",
"466 89 LINE SMOOTH",
"466 46 OFFCURVE",
"439 10 OFFCURVE",
"390 10 QCURVE",
"390 10 LINE"
);
},
{
closed = 1;
nodes = (
"246 841 OFFCURVE",
"274 796 QCURVE SMOOTH",
"304 746 OFFCURVE",
"379 746 QCURVE SMOOTH",
"503 746 OFFCURVE",
"521 918 QCURVE",
"506 921 LINE",
"494 879 OFFCURVE",
"439 853 OFFCURVE",
"324 853 OFFCURVE",
"267 881 OFFCURVE",
"253 921 QCURVE",
"237 918 LINE",
"237 918 LINE"
);
}
);
width = 723;
}
);
leftKerningGroup = C;
note = Gbreve;
rightKerningGroup = G;
unicode = 011E;
},
{
glyphname = Gdotaccent;
layers = (
{
layerId = "A70DCACA-0340-40F6-B519-7C37231E9414";
paths = (
{
closed = 1;
nodes = (
"320 10 OFFCURVE",
"245 163 OFFCURVE",
"245 313 QCURVE SMOOTH",
"245 392 LINE SMOOTH",
"245 691 OFFCURVE",
"398 691 QCURVE SMOOTH",
"459 691 OFFCURVE",
"558 580 OFFCURVE",
"607 483 QCURVE",
"625 483 LINE",
"617 700 LINE",
"606 700 LINE",
"600 689 OFFCURVE",
"590 680 OFFCURVE",
"570 680 OFFCURVE",
"447 711 OFFCURVE",
"386 711 QCURVE SMOOTH",
"228 711 OFFCURVE",
"41 519 OFFCURVE",
"41 166 OFFCURVE",
"220 -10 OFFCURVE",
"383 -10 QCURVE SMOOTH",
"432 -10 OFFCURVE",
"571 26 OFFCURVE",
"585 26 QCURVE SMOOTH",
"618 26 OFFCURVE",
"636 1 QCURVE",
"651 1 LINE",
"651 283 LINE",
"690 283 LINE",
"690 305 LINE",
"402 305 LINE",
"402 283 LINE",
"466 283 LINE",
"466 89 LINE SMOOTH",
"466 46 OFFCURVE",
"439 10 OFFCURVE",
"390 10 QCURVE",
"390 10 LINE"
);
},
{
closed = 1;
nodes = (
"480 805 OFFCURVE",
"480 892 OFFCURVE",
"428 939 OFFCURVE",
"328 939 OFFCURVE",
"279 887 OFFCURVE",
"279 807 OFFCURVE",
"324 753 OFFCURVE",
"430 753 OFFCURVE"
);
}
);
width = 723;
}
);
leftKerningGroup = C;
note = Gdotaccent;
rightKerningGroup = G;
unicode = 0120;
},
{
glyphname = Gcommaaccent;
layers = (
{
layerId = "A70DCACA-0340-40F6-B519-7C37231E9414";
paths = (
{
closed = 1;
nodes = (
"320 10 OFFCURVE",
"245 163 OFFCURVE",
"245 313 QCURVE SMOOTH",
"245 392 LINE SMOOTH",
"245 691 OFFCURVE",
"398 691 QCURVE SMOOTH",
"459 691 OFFCURVE",
"558 580 OFFCURVE",
"607 483 QCURVE",
"625 483 LINE",
"617 700 LINE",
"606 700 LINE",
"600 689 OFFCURVE",
"590 680 OFFCURVE",
"570 680 OFFCURVE",
"447 711 OFFCURVE",
"386 711 QCURVE SMOOTH",
"228 711 OFFCURVE",
"41 519 OFFCURVE",
"41 166 OFFCURVE",
"220 -10 OFFCURVE",
"383 -10 QCURVE SMOOTH",
"432 -10 OFFCURVE",
"571 26 OFFCURVE",
"585 26 QCURVE SMOOTH",
"618 26 OFFCURVE",
"636 1 QCURVE",
"651 1 LINE",
"651 283 LINE",
"690 283 LINE",
"690 305 LINE",
"402 305 LINE",
"402 283 LINE",
"466 283 LINE",
"466 89 LINE SMOOTH",
"466 46 OFFCURVE",
"439 10 OFFCURVE",
"390 10 QCURVE",
"390 10 LINE"
);
},
{
closed = 1;
nodes = (
"453 -230 OFFCURVE",
"453 -145 QCURVE SMOOTH",
"453 -103 OFFCURVE",
"413 -54 OFFCURVE",
"344 -54 OFFCURVE",
"305 -90 OFFCURVE",
"305 -123 QCURVE SMOOTH",
"305 -172 OFFCURVE",
"354 -190 QCURVE",
"385 -159 LINE",
"403 -167 OFFCURVE",
"403 -192 QCURVE SMOOTH",
"403 -227 OFFCURVE",
"340 -275 QCURVE",
"351 -290 LINE",
"351 -290 LINE"
);
}
);
width = 723;
}
);
leftKerningGroup = C;
note = Gcommaaccent;
rightKerningGroup = G;
unicode = 0122;
},
{
glyphname = gcommaaccent;
layers = (
{
layerId = "A70DCACA-0340-40F6-B519-7C37231E9414";
paths = (
{
closed = 1;
nodes = (
"411 528 LINE",
"412 503 OFFCURVE",
"445 476 OFFCURVE",
"496 476 OFFCURVE",
"532 509 OFFCURVE",
"532 577 OFFCURVE",
"487 616 OFFCURVE",
"413 616 OFFCURVE",
"353 566 OFFCURVE",
"353 510 QCURVE SMOOTH",
"353 488 OFFCURVE",
"359 461 QCURVE",
"313 486 OFFCURVE",
"248 486 QCURVE SMOOTH",
"140 486 OFFCURVE",
"32 394 OFFCURVE",
"32 319 QCURVE SMOOTH",
"32 200 OFFCURVE",
"148 167 QCURVE",
"84 128 OFFCURVE",
"34 75 OFFCURVE",
"34 -4 OFFCURVE",
"104 -58 OFFCURVE",
"185 -58 QCURVE SMOOTH",
"282 -58 LINE SMOOTH",
"358 -58 OFFCURVE",
"409 -87 OFFCURVE",
"409 -173 OFFCURVE",
"325 -231 OFFCURVE",
"247 -231 QCURVE SMOOTH",
"119 -231 OFFCURVE",
"119 -145 QCURVE SMOOTH",
"119 -119 OFFCURVE",
"127 -90 QCURVE",
"67 -63 LINE",
"-10 -85 OFFCURVE",
"-10 -143 QCURVE SMOOTH",
"-10 -250 OFFCURVE",
"237 -250 QCURVE SMOOTH",
"382 -250 OFFCURVE",
"519 -147 OFFCURVE",
"519 -59 QCURVE SMOOTH",
"519 104 OFFCURVE",
"292 104 QCURVE SMOOTH",
"190 104 LINE SMOOTH",
"126 104 OFFCURVE",
"126 132 OFFCURVE",
"170 160 QCURVE",
"212 152 OFFCURVE",
"251 152 QCURVE SMOOTH",
"345 152 OFFCURVE",
"455 240 OFFCURVE",
"455 399 OFFCURVE",
"379 450 QCURVE",
"372 484 OFFCURVE",
"372 510 QCURVE SMOOTH",
"372 576 OFFCURVE",
"415 576 QCURVE SMOOTH",
"445 576 OFFCURVE",
"439 545 QCURVE",
"439 545 LINE"
);
},
{
closed = 1;
nodes = (
"199 341 LINE SMOOTH",
"199 417 OFFCURVE",
"223 468 OFFCURVE",
"270 468 OFFCURVE",
"290 419 OFFCURVE",
"290 341 QCURVE SMOOTH",
"290 292 LINE SMOOTH",
"290 219 OFFCURVE",
"269 172 OFFCURVE",
"222 172 OFFCURVE",
"199 220 OFFCURVE",
"199 287 QCURVE",
"199 287 LINE"
);
},
{
closed = 1;
nodes = (
"173 716 OFFCURVE",
"173 631 QCURVE SMOOTH",
"173 589 OFFCURVE",
"213 540 OFFCURVE",
"282 540 OFFCURVE",
"321 576 OFFCURVE",
"321 609 QCURVE SMOOTH",
"321 658 OFFCURVE",
"272 676 QCURVE",
"241 645 LINE",
"223 653 OFFCURVE",
"223 678 QCURVE SMOOTH",
"223 713 OFFCURVE",
"286 761 QCURVE",
"275 776 LINE",
"275 776 LINE"
);
}
);
width = 522;
}
);
leftKerningGroup = g;
note = gcommaaccent;
rightKerningGroup = g;
unicode = 0123;
},
{
glyphname = Hcircumflex;
layers = (
{
layerId = "A70DCACA-0340-40F6-B519-7C37231E9414";
paths = (
{
closed = 1;
nodes = (
"21 681 LINE",
"80 681 LINE",
"80 19 LINE",
"21 19 LINE",
"21 0 LINE",
"333 0 LINE",
"333 19 LINE",
"275 19 LINE",
"275 345 LINE",
"474 345 LINE",
"474 19 LINE",
"415 19 LINE",
"415 0 LINE",
"728 0 LINE",
"728 19 LINE",
"669 19 LINE",
"669 681 LINE",
"728 681 LINE",
"728 700 LINE",
"415 700 LINE",
"415 681 LINE",
"474 681 LINE",
"474 371 LINE",
"275 371 LINE",
"275 681 LINE",
"333 681 LINE",
"333 700 LINE",
"21 700 LINE",
"21 700 LINE"
);
},
{
closed = 1;
nodes = (
"230 733 LINE",
"376 801 LINE",
"518 733 LINE",
"527 743 LINE",
"453 867 LINE SMOOTH",
"430 907 OFFCURVE",
"383 907 QCURVE SMOOTH",
"356 907 OFFCURVE",
"328 891 QCURVE",
"222 743 LINE",
"222 743 LINE"
);
}
);
width = 749;
}
);
note = Hcircumflex;
rightKerningGroup = H;
unicode = 0124;
},
{
glyphname = hcircumflex;
layers = (
{
layerId = "A70DCACA-0340-40F6-B519-7C37231E9414";
paths = (
{
closed = 1;
nodes = (
"10 732 LINE",
"65 732 LINE",
"65 18 LINE",
"10 18 LINE",
"10 0 LINE",
"294 0 LINE",
"294 18 LINE",
"251 18 LINE",
"251 294 LINE SMOOTH",
"251 354 OFFCURVE",
"300 438 OFFCURVE",
"332 438 QCURVE SMOOTH",
"353 438 OFFCURVE",
"369 403 OFFCURVE",
"369 343 QCURVE SMOOTH",
"369 18 LINE",
"328 18 LINE",
"328 0 LINE",
"611 0 LINE",
"611 18 LINE",
"555 18 LINE",
"555 319 LINE SMOOTH",
"555 486 OFFCURVE",
"400 486 QCURVE SMOOTH",
"333 486 OFFCURVE",
"267 430 OFFCURVE",
"251 384 QCURVE",
"251 750 LINE",
"10 750 LINE",
"10 750 LINE"
);
},
{
closed = 1;
nodes = (
"-5 770 LINE",
"141 838 LINE",
"283 770 LINE",
"292 780 LINE",
"218 904 LINE SMOOTH",
"195 944 OFFCURVE",
"148 944 QCURVE SMOOTH",
"121 944 OFFCURVE",
"93 928 QCURVE",
"-13 780 LINE",
"-13 780 LINE"
);
}
);
width = 616;
}
);
note = hcircumflex;
rightKerningGroup = h;
unicode = 0125;
},
{
glyphname = Hbar;
layers = (
{
layerId = "A70DCACA-0340-40F6-B519-7C37231E9414";
paths = (
{
closed = 1;
nodes = (
"21 681 LINE",
"80 681 LINE",
"80 534 LINE",
"11 534 LINE",
"11 508 LINE",
"80 508 LINE",
"80 19 LINE",
"21 19 LINE",
"21 0 LINE",
"333 0 LINE",
"333 19 LINE",
"275 19 LINE",
"275 345 LINE",
"474 345 LINE",
"474 19 LINE",
"415 19 LINE",
"415 0 LINE",
"728 0 LINE",
"728 19 LINE",
"669 19 LINE",
"669 508 LINE",
"738 508 LINE",
"738 534 LINE",
"669 534 LINE",
"669 681 LINE",
"728 681 LINE",
"728 700 LINE",
"415 700 LINE",
"415 681 LINE",
"474 681 LINE",
"474 534 LINE",
"275 534 LINE",
"275 681 LINE",
"333 681 LINE",
"333 700 LINE",
"21 700 LINE",
"21 700 LINE"
);
},
{
closed = 1;
nodes = (
"275 508 LINE",
"474 508 LINE",
"474 371 LINE",
"275 371 LINE",
"275 371 LINE"
);
}
);
width = 749;
}
);
note = Hbar;
rightKerningGroup = H;
unicode = 0126;
},
{
glyphname = hbar;
layers = (
{
layerId = "A70DCACA-0340-40F6-B519-7C37231E9414";
paths = (
{
closed = 1;
nodes = (
"10 732 LINE",
"65 732 LINE",
"65 606 LINE",
"3 606 LINE",
"3 585 LINE",
"65 585 LINE",
"65 18 LINE",
"10 18 LINE",
"10 0 LINE",
"294 0 LINE",
"294 18 LINE",
"251 18 LINE",
"251 294 LINE SMOOTH",
"251 354 OFFCURVE",
"300 438 OFFCURVE",
"332 438 QCURVE SMOOTH",
"353 438 OFFCURVE",
"369 403 OFFCURVE",
"369 343 QCURVE SMOOTH",
"369 18 LINE",
"328 18 LINE",
"328 0 LINE",
"611 0 LINE",
"611 18 LINE",
"555 18 LINE",
"555 319 LINE SMOOTH",
"555 486 OFFCURVE",
"400 486 QCURVE SMOOTH",
"333 486 OFFCURVE",
"267 430 OFFCURVE",
"251 384 QCURVE",
"251 585 LINE",
"422 585 LINE",
"422 606 LINE",
"251 606 LINE",
"251 750 LINE",
"10 750 LINE",
"10 750 LINE"
);
}
);
width = 616;
}
);
note = hbar;
rightKerningGroup = h;
unicode = 0127;
},
{
glyphname = Itilde;
layers = (
{
layerId = "A70DCACA-0340-40F6-B519-7C37231E9414";
paths = (
{
closed = 1;
nodes = (
"25 681 LINE",
"80 681 LINE",
"80 19 LINE",
"25 19 LINE",
"25 0 LINE",
"330 0 LINE",
"330 19 LINE",
"275 19 LINE",
"275 681 LINE",
"330 681 LINE",
"330 700 LINE",
"25 700 LINE",
"25 700 LINE"
);
},
{
closed = 1;
nodes = (
"337 895 LINE",
"323 853 OFFCURVE",
"279 853 QCURVE SMOOTH",
"262 853 OFFCURVE",
"161 893 OFFCURVE",
"111 893 OFFCURVE",
"79 877 OFFCURVE",
"50 827 OFFCURVE",
"27 755 QCURVE",
"39 751 LINE",
"56 792 OFFCURVE",
"94 792 QCURVE SMOOTH",
"113 792 OFFCURVE",
"219 752 OFFCURVE",
"285 752 OFFCURVE",
"330 812 OFFCURVE",
"350 891 QCURVE",
"350 891 LINE"
);
}
);
width = 355;
}
);
note = Itilde;
rightKerningGroup = H;
unicode = 0128;
},
{
glyphname = itilde;
layers = (
{
layerId = "A70DCACA-0340-40F6-B519-7C37231E9414";
paths = (
{
closed = 1;
nodes = (
"304 699 LINE",
"290 657 OFFCURVE",
"246 657 QCURVE SMOOTH",
"229 657 OFFCURVE",
"128 697 OFFCURVE",
"101 697 QCURVE SMOOTH",
"57 697 OFFCURVE",
"7 626 OFFCURVE",
"-16 551 QCURVE",
"-4 547 LINE",
"13 588 OFFCURVE",
"51 588 QCURVE SMOOTH",
"70 588 OFFCURVE",
"176 548 OFFCURVE",
"210 548 QCURVE SMOOTH",
"279 548 OFFCURVE",
"317 695 QCURVE",
"317 695 LINE"
);
},
{
closed = 1;
nodes = (
"6 458 LINE",
"65 458 LINE",
"65 18 LINE",
"10 18 LINE",
"10 0 LINE",
"307 0 LINE",
"307 18 LINE",
"251 18 LINE",
"251 476 LINE",
"6 476 LINE",
"6 476 LINE"
);
}
);
width = 317;
}
);
leftKerningGroup = i;
note = itilde;
rightKerningGroup = i;
unicode = 0129;
},
{
glyphname = Imacron;
layers = (
{
layerId = "A70DCACA-0340-40F6-B519-7C37231E9414";
paths = (
{
closed = 1;
nodes = (
"25 681 LINE",
"80 681 LINE",
"80 19 LINE",
"25 19 LINE",
"25 0 LINE",
"330 0 LINE",
"330 19 LINE",
"275 19 LINE",
"275 681 LINE",
"330 681 LINE",
"330 700 LINE",
"25 700 LINE",
"25 700 LINE"
);
},
{
closed = 1;
nodes = (
"313 770 LINE",
"313 867 LINE",
"41 867 LINE",
"41 770 LINE",
"41 770 LINE"
);
}
);
width = 355;
}
);
note = Imacron;
rightKerningGroup = H;
unicode = 012A;
},
{
glyphname = imacron;
layers = (
{
layerId = "A70DCACA-0340-40F6-B519-7C37231E9414";
paths = (
{
closed = 1;
nodes = (
"272 552 LINE",
"272 647 LINE",
"0 647 LINE",
"0 552 LINE",
"0 552 LINE"
);
},
{
closed = 1;
nodes = (
"6 458 LINE",
"65 458 LINE",
"65 18 LINE",
"10 18 LINE",
"10 0 LINE",
"307 0 LINE",
"307 18 LINE",
"251 18 LINE",
"251 476 LINE",
"6 476 LINE",
"6 476 LINE"
);
}
);
width = 317;
}
);
leftKerningGroup = i;
note = imacron;
rightKerningGroup = i;
unicode = 012B;
},
{
glyphname = Ibreve;
layers = (
{
layerId = "A70DCACA-0340-40F6-B519-7C37231E9414";
paths = (
{
closed = 1;
nodes = (
"25 681 LINE",
"80 681 LINE",
"80 19 LINE",
"25 19 LINE",
"25 0 LINE",
"330 0 LINE",
"330 19 LINE",
"275 19 LINE",
"275 681 LINE",
"330 681 LINE",
"330 700 LINE",
"25 700 LINE",
"25 700 LINE"
);
},
{
closed = 1;
nodes = (
"44 841 OFFCURVE",
"72 796 QCURVE SMOOTH",
"102 746 OFFCURVE",
"177 746 QCURVE SMOOTH",
"301 746 OFFCURVE",
"319 918 QCURVE",
"304 921 LINE",
"292 879 OFFCURVE",
"237 853 OFFCURVE",
"122 853 OFFCURVE",
"65 881 OFFCURVE",
"51 921 QCURVE",
"35 918 LINE",
"35 918 LINE"
);
}
);
width = 355;
}
);
note = Ibreve;
rightKerningGroup = H;
unicode = 012C;
},
{
glyphname = ibreve;
layers = (
{
layerId = "A70DCACA-0340-40F6-B519-7C37231E9414";
paths = (
{
closed = 1;
nodes = (
"12 625 OFFCURVE",
"38 579 QCURVE SMOOTH",
"67 526 OFFCURVE",
"143 526 QCURVE SMOOTH",
"267 526 OFFCURVE",
"285 706 QCURVE",
"270 709 LINE",
"258 667 OFFCURVE",
"203 641 OFFCURVE",
"88 641 OFFCURVE",
"31 669 OFFCURVE",
"17 709 QCURVE",
"1 706 LINE",
"1 706 LINE"
);
},
{
closed = 1;
nodes = (
"6 458 LINE",
"65 458 LINE",
"65 18 LINE",
"10 18 LINE",
"10 0 LINE",
"307 0 LINE",
"307 18 LINE",
"251 18 LINE",
"251 476 LINE",
"6 476 LINE",
"6 476 LINE"
);
}
);
width = 317;
}
);
leftKerningGroup = i;
note = ibreve;
rightKerningGroup = i;
unicode = 012D;
},
{
glyphname = Iogonek;
layers = (
{
layerId = "A70DCACA-0340-40F6-B519-7C37231E9414";
paths = (
{
closed = 1;
nodes = (
"25 681 LINE",
"80 681 LINE",
"80 19 LINE",
"25 19 LINE",
"25 0 LINE",
"197 0 LINE",
"155 -26 LINE SMOOTH",
"89 -66 OFFCURVE",
"45 -126 OFFCURVE",
"45 -209 OFFCURVE",
"101 -251 OFFCURVE",
"177 -251 OFFCURVE",
"227 -227 OFFCURVE",
"251 -198 OFFCURVE",
"265 -175 QCURVE",
"252 -167 LINE",
"223 -210 OFFCURVE",
"179 -210 OFFCURVE",
"165 -184 OFFCURVE",
"165 -147 QCURVE SMOOTH",
"165 -51 OFFCURVE",
"227 0 QCURVE",
"330 0 LINE",
"330 19 LINE",
"275 19 LINE",
"275 681 LINE",
"330 681 LINE",
"330 700 LINE",
"25 700 LINE",
"25 700 LINE"
);
}
);
width = 355;
}
);
note = Iogonek;
rightKerningGroup = H;
unicode = 012E;
},
{
glyphname = iogonek;
layers = (
{
layerId = "A70DCACA-0340-40F6-B519-7C37231E9414";
paths = (
{
closed = 1;
nodes = (
"6 458 LINE",
"65 458 LINE",
"65 18 LINE",
"10 18 LINE",
"10 0 LINE",
"178 0 LINE",
"136 -26 LINE SMOOTH",
"70 -66 OFFCURVE",
"26 -126 OFFCURVE",
"26 -209 OFFCURVE",
"82 -251 OFFCURVE",
"158 -251 OFFCURVE",
"208 -227 OFFCURVE",
"232 -198 OFFCURVE",
"246 -175 QCURVE",
"233 -167 LINE",
"204 -210 OFFCURVE",
"160 -210 OFFCURVE",
"146 -184 OFFCURVE",
"146 -147 QCURVE SMOOTH",
"146 -51 OFFCURVE",
"208 0 QCURVE",
"307 0 LINE",
"307 18 LINE",
"251 18 LINE",
"251 476 LINE",
"6 476 LINE",
"6 476 LINE"
);
},
{
closed = 1;
nodes = (
"251 597 OFFCURVE",
"251 684 OFFCURVE",
"199 731 OFFCURVE",
"99 731 OFFCURVE",
"50 679 OFFCURVE",
"50 599 OFFCURVE",
"95 545 OFFCURVE",
"201 545 OFFCURVE"
);
}
);
width = 317;
}
);
leftKerningGroup = i;
note = iogonek;
rightKerningGroup = i;
unicode = 012F;
},
{
glyphname = Idotaccent;
layers = (
{
layerId = "A70DCACA-0340-40F6-B519-7C37231E9414";
paths = (
{
closed = 1;
nodes = (
"25 681 LINE",
"80 681 LINE",
"80 19 LINE",
"25 19 LINE",
"25 0 LINE",
"330 0 LINE",
"330 19 LINE",
"275 19 LINE",
"275 681 LINE",
"330 681 LINE",
"330 700 LINE",
"25 700 LINE",
"25 700 LINE"
);
},
{
closed = 1;
nodes = (
"278 805 OFFCURVE",
"278 892 OFFCURVE",
"226 939 OFFCURVE",
"126 939 OFFCURVE",
"77 887 OFFCURVE",
"77 807 OFFCURVE",
"122 753 OFFCURVE",
"228 753 OFFCURVE"
);
}
);
width = 355;
}
);
note = Idotaccent;
rightKerningGroup = H;
unicode = 0130;
},
{
glyphname = dotlessi;
layers = (
{
layerId = "A70DCACA-0340-40F6-B519-7C37231E9414";
paths = (
{
closed = 1;
nodes = (
"6 458 LINE",
"65 458 LINE",
"65 18 LINE",
"10 18 LINE",
"10 0 LINE",
"307 0 LINE",
"307 18 LINE",
"251 18 LINE",
"251 476 LINE",
"6 476 LINE",
"6 476 LINE"
);
}
);
width = 317;
}
);
leftKerningGroup = i;
note = dotlessi;
rightKerningGroup = i;
unicode = 0131;
},
{
glyphname = IJ;
layers = (
{
layerId = "A70DCACA-0340-40F6-B519-7C37231E9414";
paths = (
{
closed = 1;
nodes = (
"25 681 LINE",
"80 681 LINE",
"80 19 LINE",
"25 19 LINE",
"25 0 LINE",
"330 0 LINE",
"330 19 LINE",
"275 19 LINE",
"275 681 LINE",
"330 681 LINE",
"330 700 LINE",
"25 700 LINE",
"25 700 LINE"
);
},
{
closed = 1;
nodes = (
"521 681 LINE",
"596 681 LINE",
"596 177 LINE SMOOTH",
"596 72 OFFCURVE",
"573 9 OFFCURVE",
"533 9 QCURVE SMOOTH",
"511 9 OFFCURVE",
"484 28 OFFCURVE",
"484 55 OFFCURVE",
"493 70 QCURVE",
"532 70 LINE",
"543 100 OFFCURVE",
"543 159 OFFCURVE",
"502 201 OFFCURVE",
"419 201 OFFCURVE",
"371 152 OFFCURVE",
"371 109 QCURVE SMOOTH",
"371 53 OFFCURVE",
"466 -9 OFFCURVE",
"547 -9 QCURVE SMOOTH",
"669 -9 OFFCURVE",
"791 114 OFFCURVE",
"791 249 QCURVE SMOOTH",
"791 681 LINE",
"846 681 LINE",
"846 700 LINE",
"521 700 LINE",
"521 700 LINE"
);
}
);
width = 862;
}
);
note = IJ;
rightKerningGroup = J;
unicode = 0132;
},
{
glyphname = ij;
layers = (
{
layerId = "A70DCACA-0340-40F6-B519-7C37231E9414";
paths = (
{
closed = 1;
nodes = (
"260 597 OFFCURVE",
"260 684 OFFCURVE",
"208 731 OFFCURVE",
"108 731 OFFCURVE",
"59 679 OFFCURVE",
"59 599 OFFCURVE",
"104 545 OFFCURVE",
"210 545 OFFCURVE"
);
},
{
closed = 1;
nodes = (
"6 458 LINE",
"65 458 LINE",
"65 18 LINE",
"10 18 LINE",
"10 0 LINE",
"307 0 LINE",
"307 18 LINE",
"251 18 LINE",
"251 476 LINE",
"6 476 LINE",
"6 476 LINE"
);
},
{
closed = 1;
nodes = (
"317 476 LINE",
"317 458 LINE",
"382 458 LINE",
"382 -56 LINE SMOOTH",
"382 -164 OFFCURVE",
"360 -233 OFFCURVE",
"299 -233 OFFCURVE",
"276 -195 OFFCURVE",
"292 -168 QCURVE",
"330 -168 LINE",
"336 -144 OFFCURVE",
"336 -92 OFFCURVE",
"297 -49 OFFCURVE",
"219 -49 OFFCURVE",
"167 -96 OFFCURVE",
"167 -184 OFFCURVE",
"244 -250 OFFCURVE",
"327 -250 QCURVE SMOOTH",
"455 -250 OFFCURVE",
"568 -78 OFFCURVE",
"568 86 QCURVE SMOOTH",
"568 476 LINE",
"568 476 LINE"
);
},
{
closed = 1;
nodes = (
"576 597 OFFCURVE",
"576 684 OFFCURVE",
"524 731 OFFCURVE",
"424 731 OFFCURVE",
"375 679 OFFCURVE",
"375 599 OFFCURVE",
"420 545 OFFCURVE",
"526 545 OFFCURVE"
);
}
);
width = 623;
}
);
leftKerningGroup = i;
note = ij;
rightKerningGroup = j;
unicode = 0133;
},
{
glyphname = Jcircumflex;
layers = (
{
layerId = "A70DCACA-0340-40F6-B519-7C37231E9414";
paths = (
{
closed = 1;
nodes = (
"166 681 LINE",
"241 681 LINE",
"241 177 LINE SMOOTH",
"241 72 OFFCURVE",
"218 9 OFFCURVE",
"178 9 QCURVE SMOOTH",
"156 9 OFFCURVE",
"129 28 OFFCURVE",
"129 55 OFFCURVE",
"138 70 QCURVE",
"177 70 LINE",
"188 100 OFFCURVE",
"188 159 OFFCURVE",
"147 201 OFFCURVE",
"64 201 OFFCURVE",
"16 152 OFFCURVE",
"16 109 QCURVE SMOOTH",
"16 53 OFFCURVE",
"111 -9 OFFCURVE",
"192 -9 QCURVE SMOOTH",
"314 -9 OFFCURVE",
"436 114 OFFCURVE",
"436 249 QCURVE SMOOTH",
"436 681 LINE",
"491 681 LINE",
"491 700 LINE",
"166 700 LINE",
"166 700 LINE"
);
},
{
closed = 1;
nodes = (
"181 733 LINE",
"327 801 LINE",
"469 733 LINE",
"478 743 LINE",
"404 867 LINE SMOOTH",
"381 907 OFFCURVE",
"334 907 QCURVE SMOOTH",
"307 907 OFFCURVE",
"279 891 QCURVE",
"173 743 LINE",
"173 743 LINE"
);
}
);
width = 507;
}
);
leftKerningGroup = J;
note = Jcircumflex;
rightKerningGroup = J;
unicode = 0134;
},
{
glyphname = jcircumflex;
layers = (
{
layerId = "A70DCACA-0340-40F6-B519-7C37231E9414";
paths = (
{
closed = 1;
nodes = (
"0 476 LINE",
"0 458 LINE",
"65 458 LINE",
"65 -56 LINE SMOOTH",
"65 -164 OFFCURVE",
"43 -233 OFFCURVE",
"-18 -233 OFFCURVE",
"-41 -195 OFFCURVE",
"-25 -168 QCURVE",
"13 -168 LINE",
"19 -144 OFFCURVE",
"19 -92 OFFCURVE",
"-20 -49 OFFCURVE",
"-98 -49 OFFCURVE",
"-150 -96 OFFCURVE",
"-150 -184 OFFCURVE",
"-73 -250 OFFCURVE",
"10 -250 QCURVE SMOOTH",
"138 -250 OFFCURVE",
"251 -78 OFFCURVE",
"251 86 QCURVE SMOOTH",
"251 476 LINE",
"251 476 LINE"
);
},
{
closed = 1;
nodes = (
"10 523 LINE",
"135 628 LINE",
"260 524 LINE",
"271 531 LINE",
"210 690 LINE SMOOTH",
"191 738 OFFCURVE",
"146 738 QCURVE SMOOTH",
"117 738 OFFCURVE",
"87 722 QCURVE",
"-2 532 LINE",
"-2 532 LINE"
);
}
);
width = 306;
}
);
leftKerningGroup = j;
note = jcircumflex;
rightKerningGroup = j;
unicode = 0135;
},
{
glyphname = Kcommaaccent;
layers = (
{
layerId = "A70DCACA-0340-40F6-B519-7C37231E9414";
paths = (
{
closed = 1;
nodes = (
"25 681 LINE",
"80 681 LINE",
"80 19 LINE",
"25 19 LINE",
"25 0 LINE",
"330 0 LINE",
"330 19 LINE",
"275 19 LINE",
"275 336 LINE",
"284 338 LINE",
"449 19 LINE",
"402 19 LINE",
"402 0 LINE",
"723 0 LINE",
"723 19 LINE",
"669 19 LINE",
"429 489 LINE",
"601 681 LINE",
"661 681 LINE",
"661 700 LINE",
"486 700 LINE",
"486 681 LINE",
"565 681 LINE",
"283 367 LINE",
"275 365 LINE",
"275 681 LINE",
"330 681 LINE",
"330 700 LINE",
"25 700 LINE",
"25 700 LINE"
);
},
{
closed = 1;
nodes = (
"417 -230 OFFCURVE",
"417 -145 QCURVE SMOOTH",
"417 -103 OFFCURVE",
"377 -54 OFFCURVE",
"308 -54 OFFCURVE",
"269 -90 OFFCURVE",
"269 -123 QCURVE SMOOTH",
"269 -172 OFFCURVE",
"318 -190 QCURVE",
"349 -159 LINE",
"367 -167 OFFCURVE",
"367 -192 QCURVE SMOOTH",
"367 -227 OFFCURVE",
"304 -275 QCURVE",
"315 -290 LINE",
"315 -290 LINE"
);
}
);
width = 734;
}
);
note = Kcommaaccent;
rightKerningGroup = K;
unicode = 0136;
},
{
glyphname = kcommaaccent;
layers = (
{
layerId = "A70DCACA-0340-40F6-B519-7C37231E9414";
paths = (
{
closed = 1;
nodes = (
"615 0 LINE",
"615 18 LINE",
"579 18 LINE",
"406 357 LINE",
"525 458 LINE",
"595 458 LINE",
"595 476 LINE",
"398 476 LINE",
"398 458 LINE",
"492 458 LINE",
"267 271 LINE",
"251 265 LINE",
"251 750 LINE",
"6 750 LINE",
"6 732 LINE",
"65 732 LINE",
"65 18 LINE",
"10 18 LINE",
"10 0 LINE",
"297 0 LINE",
"297 18 LINE",
"251 18 LINE",
"251 245 LINE",
"270 250 LINE",
"383 18 LINE",
"337 18 LINE",
"337 0 LINE",
"337 0 LINE"
);
},
{
closed = 1;
nodes = (
"377 -230 OFFCURVE",
"377 -145 QCURVE SMOOTH",
"377 -103 OFFCURVE",
"337 -54 OFFCURVE",
"268 -54 OFFCURVE",
"229 -90 OFFCURVE",
"229 -123 QCURVE SMOOTH",
"229 -172 OFFCURVE",
"278 -190 QCURVE",
"309 -159 LINE",
"327 -167 OFFCURVE",
"327 -192 QCURVE SMOOTH",
"327 -227 OFFCURVE",
"264 -275 QCURVE",
"275 -290 LINE",
"275 -290 LINE"
);
}
);
width = 620;
}
);
leftKerningGroup = b;
note = kcommaaccent;
rightKerningGroup = k;
unicode = 0137;
},
{
glyphname = kgreenlandic;
layers = (
{
layerId = "A70DCACA-0340-40F6-B519-7C37231E9414";
paths = (
{
closed = 1;
nodes = (
"615 0 LINE",
"615 18 LINE",
"579 18 LINE",
"406 357 LINE",
"525 458 LINE",
"595 458 LINE",
"595 476 LINE",
"398 476 LINE",
"398 458 LINE",
"492 458 LINE",
"267 271 LINE",
"251 265 LINE",
"251 476 LINE",
"6 476 LINE",
"6 458 LINE",
"65 458 LINE",
"65 18 LINE",
"10 18 LINE",
"10 0 LINE",
"297 0 LINE",
"297 18 LINE",
"251 18 LINE",
"251 245 LINE",
"270 250 LINE",
"383 18 LINE",
"337 18 LINE",
"337 0 LINE",
"337 0 LINE"
);
}
);
width = 620;
}
);
leftKerningGroup = m;
note = kgreenlandic;
rightKerningGroup = k;
unicode = 0138;
},
{
glyphname = Lacute;
layers = (
{
layerId = "A70DCACA-0340-40F6-B519-7C37231E9414";
paths = (
{
closed = 1;
nodes = (
"21 678 LINE",
"80 678 LINE",
"80 22 LINE",
"21 22 LINE",
"21 0 LINE",
"551 0 LINE",
"570 234 LINE",
"549 234 LINE",
"497 126 OFFCURVE",
"396 22 OFFCURVE",
"311 22 QCURVE SMOOTH",
"275 22 LINE",
"275 678 LINE",
"381 678 LINE",
"381 700 LINE",
"21 700 LINE",
"21 700 LINE"
);
},
{
closed = 1;
nodes = (
"100 733 LINE",
"259 798 LINE SMOOTH",
"303 816 OFFCURVE",
"303 856 QCURVE SMOOTH",
"303 873 OFFCURVE",
"280 899 OFFCURVE",
"255 901 QCURVE SMOOTH",
"207 905 LINE",
"92 743 LINE",
"92 743 LINE"
);
}
);
width = 596;
}
);
note = Lacute;
rightKerningGroup = L;
unicode = 0139;
},
{
glyphname = lacute;
layers = (
{
layerId = "A70DCACA-0340-40F6-B519-7C37231E9414";
paths = (
{
closed = 1;
nodes = (
"6 732 LINE",
"65 732 LINE",
"65 18 LINE",
"10 18 LINE",
"10 0 LINE",
"307 0 LINE",
"307 18 LINE",
"251 18 LINE",
"251 750 LINE",
"6 750 LINE",
"6 750 LINE"
);
},
{
closed = 1;
nodes = (
"59 770 LINE",
"218 835 LINE SMOOTH",
"262 853 OFFCURVE",
"262 893 QCURVE SMOOTH",
"262 910 OFFCURVE",
"239 936 OFFCURVE",
"214 938 QCURVE SMOOTH",
"166 942 LINE",
"51 780 LINE",
"51 780 LINE"
);
}
);
width = 316;
}
);
leftKerningGroup = b;
note = lacute;
rightKerningGroup = l;
unicode = 013A;
},
{
glyphname = Lcommaaccent;
layers = (
{
layerId = "A70DCACA-0340-40F6-B519-7C37231E9414";
paths = (
{
closed = 1;
nodes = (
"21 678 LINE",
"80 678 LINE",
"80 22 LINE",
"21 22 LINE",
"21 0 LINE",
"551 0 LINE",
"570 234 LINE",
"549 234 LINE",
"497 126 OFFCURVE",
"396 22 OFFCURVE",
"311 22 QCURVE SMOOTH",
"275 22 LINE",
"275 678 LINE",
"381 678 LINE",
"381 700 LINE",
"21 700 LINE",
"21 700 LINE"
);
},
{
closed = 1;
nodes = (
"378 -230 OFFCURVE",
"378 -145 QCURVE SMOOTH",
"378 -103 OFFCURVE",
"338 -54 OFFCURVE",
"269 -54 OFFCURVE",
"230 -90 OFFCURVE",
"230 -123 QCURVE SMOOTH",
"230 -172 OFFCURVE",
"279 -190 QCURVE",
"310 -159 LINE",
"328 -167 OFFCURVE",
"328 -192 QCURVE SMOOTH",
"328 -227 OFFCURVE",
"265 -275 QCURVE",
"276 -290 LINE",
"276 -290 LINE"
);
}
);
width = 596;
}
);
note = Lcommaaccent;
rightKerningGroup = L;
unicode = 013B;
},
{
glyphname = lcommaaccent;
layers = (
{
layerId = "A70DCACA-0340-40F6-B519-7C37231E9414";
paths = (
{
closed = 1;
nodes = (
"6 732 LINE",
"65 732 LINE",
"65 18 LINE",
"10 18 LINE",
"10 0 LINE",
"307 0 LINE",
"307 18 LINE",
"251 18 LINE",
"251 750 LINE",
"6 750 LINE",
"6 750 LINE"
);
},
{
closed = 1;
nodes = (
"228 -231 OFFCURVE",
"228 -146 QCURVE SMOOTH",
"228 -104 OFFCURVE",
"188 -55 OFFCURVE",
"119 -55 OFFCURVE",
"80 -91 OFFCURVE",
"80 -124 QCURVE SMOOTH",
"80 -173 OFFCURVE",
"129 -191 QCURVE",
"160 -160 LINE",
"178 -168 OFFCURVE",
"178 -193 QCURVE SMOOTH",
"178 -228 OFFCURVE",
"115 -276 QCURVE",
"126 -291 LINE",
"126 -291 LINE"
);
}
);
width = 316;
}
);
leftKerningGroup = b;
note = lcommaaccent;
rightKerningGroup = l;
unicode = 013C;
},
{
glyphname = Lcaron;
layers = (
{
layerId = "A70DCACA-0340-40F6-B519-7C37231E9414";
paths = (
{
closed = 1;
nodes = (
"21 678 LINE",
"80 678 LINE",
"80 22 LINE",
"21 22 LINE",
"21 0 LINE",
"551 0 LINE",
"570 234 LINE",
"549 234 LINE",
"497 126 OFFCURVE",
"396 22 OFFCURVE",
"311 22 QCURVE SMOOTH",
"275 22 LINE",
"275 678 LINE",
"381 678 LINE",
"381 700 LINE",
"21 700 LINE",
"21 700 LINE"
);
},
{
closed = 1;
nodes = (
"548 565 OFFCURVE",
"548 646 QCURVE SMOOTH",
"548 675 OFFCURVE",
"516 716 OFFCURVE",
"460 716 OFFCURVE",
"431 687 QCURVE SMOOTH",
"409 665 LINE",
"454 626 OFFCURVE",
"454 592 QCURVE SMOOTH",
"454 536 OFFCURVE",
"412 490 QCURVE",
"424 477 LINE",
"424 477 LINE"
);
}
);
width = 596;
}
);
note = Lcaron;
rightKerningGroup = L;
unicode = 013D;
},
{
glyphname = lcaron;
layers = (
{
layerId = "A70DCACA-0340-40F6-B519-7C37231E9414";
paths = (
{
closed = 1;
nodes = (
"6 732 LINE",
"65 732 LINE",
"65 18 LINE",
"10 18 LINE",
"10 0 LINE",
"307 0 LINE",
"307 18 LINE",
"251 18 LINE",
"251 750 LINE",
"6 750 LINE",
"6 750 LINE"
);
},
{
closed = 1;
nodes = (
"418 609 OFFCURVE",
"418 690 QCURVE SMOOTH",
"418 719 OFFCURVE",
"386 760 OFFCURVE",
"330 760 OFFCURVE",
"301 731 QCURVE SMOOTH",
"279 709 LINE",
"324 670 OFFCURVE",
"324 636 QCURVE SMOOTH",
"324 580 OFFCURVE",
"282 534 QCURVE",
"294 521 LINE",
"294 521 LINE"
);
}
);
width = 385;
}
);
leftKerningGroup = b;
note = lcaron;
rightKerningGroup = l;
unicode = 013E;
},
